<svg xmlns="http://www.w3.org/2000/svg" xmlns:xlink="http://www.w3.org/1999/xlink" width="48" height="48" viewBox="0 0 48 48">
    <defs>
        <linearGradient id="prefix__a" x1="52.131%" x2="50%" y1="43.011%" y2="60.555%">
            <stop offset="0%" stop-color="#EAC6A1"/>
            <stop offset="100%" stop-color="#EDC4A0"/>
        </linearGradient>
        <linearGradient id="prefix__d" x1="52.131%" x2="50%" y1="44.792%" y2="57.865%">
            <stop offset="0%" stop-color="#FCE0C3"/>
            <stop offset="100%" stop-color="#EDC4A0"/>
        </linearGradient>
        <linearGradient id="prefix__g" x1="50%" x2="50%" y1="0%" y2="100%">
            <stop offset="0%" stop-color="#09E6A7"/>
            <stop offset="100%" stop-color="#05C991"/>
        </linearGradient>
        <linearGradient id="prefix__h" x1="9.871%" x2="96.398%" y1="48.427%" y2="50.919%">
            <stop offset="0%" stop-color="#F7D7B7"/>
            <stop offset="100%" stop-color="#EDC5A1"/>
            <stop offset="100%" stop-color="#EDC4A0"/>
            <stop offset="100%" stop-color="#EDC5A1"/>
        </linearGradient>
        <linearGradient id="prefix__k" x1="52.131%" x2="50%" y1="16.894%" y2="100%">
            <stop offset="0%" stop-color="#FFED00"/>
            <stop offset=".061%" stop-color="#FFED00"/>
            <stop offset="100%" stop-color="#FFAD00"/>
        </linearGradient>
        <filter id="prefix__c" width="110.8%" height="123.5%" x="-5.4%" y="-11.8%" filterUnits="objectBoundingBox">
            <feGaussianBlur in="SourceAlpha" result="shadowBlurInner1" stdDeviation="1.5"/>
            <feOffset dy="-1" in="shadowBlurInner1" result="shadowOffsetInner1"/>
            <feComposite in="shadowOffsetInner1" in2="SourceAlpha" k2="-1" k3="1" operator="arithmetic" result="shadowInnerInner1"/>
            <feColorMatrix in="shadowInnerInner1" values="0 0 0 0 0.760784314 0 0 0 0 0.48627451 0 0 0 0 0.333333333 0 0 0 0.524994537 0"/>
        </filter>
        <filter id="prefix__f" width="109.8%" height="124.6%" x="-4.9%" y="-12.3%" filterUnits="objectBoundingBox">
            <feGaussianBlur in="SourceAlpha" result="shadowBlurInner1" stdDeviation="1.5"/>
            <feOffset dy="-1" in="shadowBlurInner1" result="shadowOffsetInner1"/>
            <feComposite in="shadowOffsetInner1" in2="SourceAlpha" k2="-1" k3="1" operator="arithmetic" result="shadowInnerInner1"/>
            <feColorMatrix in="shadowInnerInner1" values="0 0 0 0 0.760784314 0 0 0 0 0.48627451 0 0 0 0 0.333333333 0 0 0 0.314466783 0"/>
        </filter>
        <filter id="prefix__j" width="120%" height="142.9%" x="-10%" y="-21.4%" filterUnits="objectBoundingBox">
            <feGaussianBlur in="SourceAlpha" result="shadowBlurInner1" stdDeviation="1"/>
            <feOffset dx="-1" dy="-1" in="shadowBlurInner1" result="shadowOffsetInner1"/>
            <feComposite in="shadowOffsetInner1" in2="SourceAlpha" k2="-1" k3="1" operator="arithmetic" result="shadowInnerInner1"/>
            <feColorMatrix in="shadowInnerInner1" values="0 0 0 0 0.760784314 0 0 0 0 0.48627451 0 0 0 0 0.333333333 0 0 0 0.327524038 0"/>
        </filter>
        <filter id="prefix__m" width="118.2%" height="118.2%" x="-9.1%" y="-9.1%" filterUnits="objectBoundingBox">
            <feGaussianBlur in="SourceAlpha" result="shadowBlurInner1" stdDeviation="1.5"/>
            <feOffset dy="-1" in="shadowBlurInner1" result="shadowOffsetInner1"/>
            <feComposite in="shadowOffsetInner1" in2="SourceAlpha" k2="-1" k3="1" operator="arithmetic" result="shadowInnerInner1"/>
            <feColorMatrix in="shadowInnerInner1" values="0 0 0 0 1 0 0 0 0 0.420399913 0 0 0 0 0 0 0 0 0.191187719 0"/>
        </filter>
        <path id="prefix__b" d="M36.873 1.991c-1.223-1.236-3.205-1.236-4.428 0l-2.617 2.646c-1.017 1.028-2.405 1.56-3.842 1.55h-3.928c-1.204 0-2.373-.415-3.304-1.186C17.338 3.828 14.399 3.02 11 3.02c-2.506 0-4.764.44-6.344 1.14H.79v10.292h8.282l10.645 3.456c3.097.566 6.272-.439 8.498-2.689l8.658-8.752c1.223-1.236 1.223-3.24 0-4.477"/>
        <path id="prefix__e" d="M40.767 1.373c-1.355-1.182-3.551-1.182-4.906 0l-2.9 2.53c-1.126.984-2.664 1.493-4.257 1.483h-4.351c-1.333 0-2.63-.396-3.66-1.134-1.569-1.122-4.826-1.893-8.59-1.893-2.777 0-5.278.42-7.028 1.09H.79V13.291h9.175l11.794 3.306c3.432.54 6.95-.42 9.415-2.572l9.593-8.37c1.355-1.183 1.355-3.1 0-4.282"/>
        <path id="prefix__i" d="M19.54 6.118h7.708c2.31 0 4.182 1.567 4.182 3.5s-1.872 3.5-4.182 3.5H16.43"/>
        <circle id="prefix__l" cx="28" cy="16" r="11"/>
    </defs>
    <g fill="none" fill-rule="evenodd">
        <path fill="#E7F9F4" d="M36.735 2.937c-.97-.517-1.997-.932-3.08-1.228-7.373-2.023-17.6-2.725-24.66.573-2.163 1.01-4.04 2.529-5.396 4.492-3.072 4.448-5.054 8.995-2.26 14.155 1.809 3.343 5.059 4.962 7.355 7.805 4.358 5.393 2.907 13.847 9.555 17.68 4.875 2.81 11.102 1.473 15.926-.809 4.866-2.302 9.075-6.176 11.506-10.978.59-1.165 1.078-2.38 1.45-3.63 2.798-9.388-1.294-23.211-10.396-28.06"/>
        <g transform="translate(3 23)">
            <use fill="url(#prefix__a)" xlink:href="#prefix__b"/>
            <use fill="#000" filter="url(#prefix__c)" xlink:href="#prefix__b"/>
            <use fill="url(#prefix__d)" xlink:href="#prefix__e"/>
            <use fill="#000" filter="url(#prefix__f)" xlink:href="#prefix__e"/>
            <path fill="url(#prefix__g)" d="M2.168 17.052h2.906c1.197 0 2.168-.97 2.168-2.167V2.974c0-1.197-.97-2.168-2.168-2.168H2.168C.97.806 0 1.776 0 2.974v11.91c0 1.198.97 2.168 2.168 2.168z"/>
            <g>
                <use fill="url(#prefix__h)" xlink:href="#prefix__i"/>
                <use fill="#000" filter="url(#prefix__j)" xlink:href="#prefix__i"/>
            </g>
        </g>
        <use fill="url(#prefix__k)" xlink:href="#prefix__l"/>
        <use fill="#000" filter="url(#prefix__m)" xlink:href="#prefix__l"/>
        <g fill="#F07A01" fill-rule="nonzero">
            <path d="M7 2c.552 0 1 .448 1 1 0 .513-.386.936-.883.993L7 4H3.25C2.56 4 2 4.56 2 5.25c0 .647.492 1.18 1.122 1.244l.128.006h1.5C6.545 6.5 8 7.955 8 9.75c0 1.733-1.356 3.15-3.066 3.245L4.75 13H1c-.552 0-1-.448-1-1 0-.513.386-.936.883-.993L1 11h3.75C5.44 11 6 10.44 6 9.75c0-.647-.492-1.18-1.122-1.244L4.75 8.5h-1.5C1.455 8.5 0 7.045 0 5.25 0 3.517 1.356 2.1 3.066 2.005L3.25 2H7z" transform="translate(24 8)"/>
            <path d="M3.88 0c.513 0 .936.386.993.883L4.88 1v2c0 .552-.448 1-1 1-.513 0-.936-.386-.993-.883L2.88 3V1c0-.552.448-1 1-1zM3.88 11c.513 0 .936.386.993.883L4.88 12v2c0 .552-.448 1-1 1-.513 0-.936-.386-.993-.883L2.88 14v-2c0-.552.448-1 1-1z" transform="translate(24 8)"/>
        </g>
    </g>
</svg>
