<svg xmlns="http://www.w3.org/2000/svg" width="48" height="48" viewBox="0 0 48 48">
    <defs>
        <linearGradient id="prefix__a" x1="50%" x2="50%" y1="0%" y2="100%">
            <stop offset="0%" stop-color="#019BF3"/>
            <stop offset="100%" stop-color="#237EFD"/>
        </linearGradient>
        <linearGradient id="prefix__b" x1="50%" x2="50%" y1="0%" y2="100%">
            <stop offset="0%" stop-color="#FFCF00"/>
            <stop offset="100%" stop-color="#F97000"/>
        </linearGradient>
    </defs>
    <g fill="none" fill-rule="evenodd" transform="translate(-7 -1)">
        <path fill="#F5F7F9" d="M43.735 3.937c-.97-.517-1.997-.932-3.08-1.228-7.373-2.023-17.6-2.725-24.66.573-2.163 1.01-4.04 2.529-5.396 4.492-3.072 4.448-5.054 8.995-2.26 14.155 1.809 3.343 5.059 4.962 7.355 7.805 4.358 5.393 2.907 13.847 9.555 17.68 4.875 2.81 11.102 1.473 15.926-.809 4.866-2.302 9.075-6.176 11.506-10.978.59-1.165 1.078-2.38 1.45-3.63 2.798-9.388-1.294-23.211-10.396-28.06"/>
        <path fill="url(#prefix__a)" d="M15 10h35c2.21 0 4 1.79 4 4v20c0 2.21-1.79 4-4 4H15c-2.21 0-4-1.79-4-4V14c0-2.21 1.79-4 4-4z"/>
        <path fill="#FFF" d="M25.858 25.718c1.38 0 2.5 1.119 2.5 2.5v.5c0 1.104-.896 2-2 2h-6c-1.105 0-2-.896-2-2v-.5c0-1.381 1.12-2.5 2.5-2.5h5zm-2-9c1.933 0 3.5 1.567 3.5 3.5s-1.567 3.5-3.5 3.5-3.5-1.567-3.5-3.5 1.567-3.5 3.5-3.5z"/>
        <rect width="14" height="2" x="34.056" y="25.018" fill="#0B64E0" opacity=".5" rx="1"/>
        <rect width="14" height="2" x="34.056" y="20.188" fill="#0B64E0" opacity=".5" rx="1"/>
        <path fill="url(#prefix__b)" d="M16.14.567c8.837 0 16 7.163 16 16 0 7.932-5.773 14.517-13.347 15.78V42.71c0 1.02-.896 1.846-2 1.846-1.04 0-1.894-.732-1.991-1.668l-.01-.178v-10.2C6.588 31.827.14 24.95.14 16.568c0-8.837 7.163-16 16-16zm0 4c-6.627 0-12 5.372-12 12 0 6.627 5.373 12 12 12s12-5.373 12-12c0-6.628-5.373-12-12-12z" transform="rotate(-35 31.772 8.556)"/>
    </g>
</svg>
