<svg xmlns="http://www.w3.org/2000/svg" xmlns:xlink="http://www.w3.org/1999/xlink" width="280" height="240" viewBox="0 0 280 240">
    <defs>
        <rect id="b" width="246" height="228" rx="4"/>
        <filter id="a" width="110.2%" height="111%" x="-5.1%" y="-5%" filterUnits="objectBoundingBox">
            <feOffset dy="1" in="SourceAlpha" result="shadowOffsetOuter1"/>
            <feGaussianBlur in="shadowOffsetOuter1" result="shadowBlurOuter1" stdDeviation="4"/>
            <feComposite in="shadowBlurOuter1" in2="SourceAlpha" operator="out" result="shadowBlurOuter1"/>
            <feColorMatrix in="shadowBlurOuter1" values="0 0 0 0 0 0 0 0 0 0 0 0 0 0 0 0 0 0 0.04 0"/>
        </filter>
        <rect id="d" width="103" height="72" x="29" y="116" rx="3.186"/>
        <filter id="c" width="127.2%" height="138.9%" x="-13.6%" y="-18.1%" filterUnits="objectBoundingBox">
            <feOffset dy="1" in="SourceAlpha" result="shadowOffsetOuter1"/>
            <feGaussianBlur in="shadowOffsetOuter1" result="shadowBlurOuter1" stdDeviation="4.5"/>
            <feComposite in="shadowBlurOuter1" in2="SourceAlpha" operator="out" result="shadowBlurOuter1"/>
            <feColorMatrix in="shadowBlurOuter1" values="0 0 0 0 0 0 0 0 0 0 0 0 0 0 0 0 0 0 0.04 0"/>
        </filter>
        <rect id="f" width="103" height="72" x="140" y="116" rx="3.186"/>
        <filter id="e" width="127.2%" height="138.9%" x="-13.6%" y="-18.1%" filterUnits="objectBoundingBox">
            <feOffset dy="1" in="SourceAlpha" result="shadowOffsetOuter1"/>
            <feGaussianBlur in="shadowOffsetOuter1" result="shadowBlurOuter1" stdDeviation="4.5"/>
            <feComposite in="shadowBlurOuter1" in2="SourceAlpha" operator="out" result="shadowBlurOuter1"/>
            <feColorMatrix in="shadowBlurOuter1" values="0 0 0 0 0 0 0 0 0 0 0 0 0 0 0 0 0 0 0.04 0"/>
        </filter>
    </defs>
    <g fill="none" fill-rule="evenodd">
        <g transform="translate(13 4)">
            <use fill="#000" filter="url(#a)" xlink:href="#b"/>
            <rect width="245" height="227" x=".5" y=".5" fill="#FFF" stroke="#ECECEC" stroke-linejoin="square" rx="4"/>
            <path fill="#632678" fill-rule="nonzero" d="M5 3h236a2 2 0 0 1 2 2v70H3V5a2 2 0 0 1 2-2z"/>
            <path fill="#632678" fill-rule="nonzero" d="M5 3h236a2 2 0 0 1 2 2v70H3V5a2 2 0 0 1 2-2z"/>
            <rect width="95" height="6" x="16" y="29" fill="#FFF" fill-rule="nonzero" opacity=".4" rx="3"/>
            <rect width="125" height="6" x="16" y="43" fill="#FFF" fill-rule="nonzero" opacity=".4" rx="3"/>
        </g>
        <use fill="#000" filter="url(#c)" xlink:href="#d"/>
        <rect width="101.936" height="70.936" x="29.532" y="116.532" fill="#FFF" stroke="#ECECEC" stroke-linejoin="square" stroke-width="1.064" rx="3.186"/>
        <path fill="#575756" fill-rule="nonzero" d="M50.003 142.394H39.886v-2.191l4.66-4.9c1.149-1.307 1.723-2.346 1.723-3.116 0-.624-.136-1.099-.408-1.424-.272-.325-.667-.488-1.185-.488-.511 0-.926.217-1.245.652-.318.435-.478.978-.478 1.628h-3.365a4.761 4.761 0 0 1 2.519-4.232c.79-.425 1.673-.637 2.649-.637 1.566 0 2.773.362 3.62 1.085.846.724 1.269 1.763 1.269 3.117 0 .571-.106 1.127-.319 1.668-.212.541-.542 1.109-.99 1.703-.449.594-1.17 1.389-2.166 2.385l-1.872 2.16h5.705v2.59z"/>
        <rect width="71" height="4" x="42" y="154" fill="#E2E9F2" rx="2"/>
        <rect width="30" height="4" x="42" y="163" fill="#E2E9F2" rx="2"/>
        <path fill="#B6C0CC" fill-rule="nonzero" d="M114.093 137.969a.425.425 0 0 1 .106.37.313.313 0 0 1-.035.141.47.47 0 0 1-.089.123.267.267 0 0 1-.14.097.558.558 0 0 1-.16.027.408.408 0 0 1-.166-.036.77.77 0 0 1-.15-.088l-.423-.423-.511.511a.5.5 0 0 1-.15.106.408.408 0 0 1-.335 0 .33.33 0 0 1-.132-.106.32.32 0 0 1-.115-.167.703.703 0 0 1-.026-.185c.012-.047.026-.094.044-.141a.275.275 0 0 1 .097-.123l.775-.793.265-.265a.402.402 0 0 0 .14-.317c0-.13-.046-.24-.14-.335a.47.47 0 0 0-.511-.105.32.32 0 0 0-.141.105l-.406.406c-.07.07-.147.132-.229.185a.88.88 0 0 1-.264.114.742.742 0 0 1-.22.07 1.563 1.563 0 0 1-.238.018 2.24 2.24 0 0 1-.203-.008.655.655 0 0 1-.185-.045 1.717 1.717 0 0 1-.3-.132 1.22 1.22 0 0 1-.264-.202 1.304 1.304 0 0 1-.396-.881 1.33 1.33 0 0 1 .29-.917l-.423-.423a.393.393 0 0 1-.14-.308c0-.124.046-.226.14-.309a.393.393 0 0 1 .309-.14c.123 0 .226.046.308.14l.423.406.529-.529a.438.438 0 0 1 .317-.14c.118 0 .223.046.317.14a.418.418 0 0 1 .124.308.418.418 0 0 1-.124.309l-1.057 1.057a.492.492 0 0 0-.123.335c0 .13.04.235.123.317a.47.47 0 0 0 .67 0l.405-.405c.117-.118.258-.212.423-.282a1.328 1.328 0 0 1 1.269.123c.07.047.14.1.211.159.165.176.276.376.335.6a1.365 1.365 0 0 1-.027.81 1.468 1.468 0 0 1-.14.282.692.692 0 0 1-.097.123l.44.423zm2.626-8.794l-3.683 3.701a.265.265 0 0 1-.115.07.48.48 0 0 1-.132.018.332.332 0 0 1-.132-.026.71.71 0 0 1-.115-.062.348.348 0 0 1-.105-.255c0-.1.035-.185.105-.256l3.683-3.683a.338.338 0 0 1 .494 0c.07.07.106.156.106.256s-.036.179-.106.237zm1.445 1.445l-3.683 3.701a.71.71 0 0 1-.115.062.332.332 0 0 1-.132.026.332.332 0 0 1-.132-.026.71.71 0 0 1-.115-.062.348.348 0 0 1-.105-.255c0-.1.035-.185.105-.256l3.683-3.683a.338.338 0 0 1 .494 0c.07.07.106.156.106.256s-.036.179-.106.237zm4.44.318c.283.27.424.599.424.987 0 .387-.141.722-.423 1.004l-4.388 4.388c.387.082.716.279.987.59.27.312.405.679.405 1.102 0 .47-.167.872-.502 1.207a1.646 1.646 0 0 1-1.207.502h-11.155c-.459 0-.858-.159-1.199-.476a1.588 1.588 0 0 1-.528-1.163 1.695 1.695 0 0 1 .308-1.048c.217-.312.496-.526.837-.644l-.652-.652a1.354 1.354 0 0 1-.405-.995c0-.394.135-.726.405-.996l9.463-9.463c.141-.13.297-.23.467-.3a1.392 1.392 0 0 1 1.057 0c.17.07.327.17.468.3l5.639 5.657zm-15.877 8.687h1.71l-1.305-1.304h-.387a.672.672 0 0 0-.467.185.586.586 0 0 0-.203.45.594.594 0 0 0 .176.467c.13.135.288.202.476.202zm11.155 0a.641.641 0 0 0 .458-.185c.13-.123.2-.273.212-.449a.594.594 0 0 0-.177-.467.633.633 0 0 0-.475-.203h-.723l-1.304 1.304h2.009zm3.965-7.471a.261.261 0 0 0 .07-.124c.012-.047.024-.088.036-.123a.482.482 0 0 0-.018-.106.312.312 0 0 0-.088-.14l-5.622-5.622a.312.312 0 0 0-.14-.088.518.518 0 0 0-.124-.018.482.482 0 0 0-.106.018.312.312 0 0 0-.14.088l-9.429 9.428a.312.312 0 0 0-.088.14.482.482 0 0 0-.017.106c0 .036.006.077.017.124a.222.222 0 0 0 .088.123l3.648 3.665h4.441l7.472-7.471z"/>
        <use fill="#000" filter="url(#e)" xlink:href="#f"/>
        <rect width="101.936" height="70.936" x="140.532" y="116.532" fill="#FFF" stroke="#ECECEC" stroke-linejoin="square" stroke-width="1.064" rx="3.186"/>
        <path fill="#575756" fill-rule="nonzero" d="M153.953 133.74h1.584c1.254 0 1.882-.614 1.882-1.842 0-.478-.15-.868-.449-1.17-.298-.302-.72-.453-1.264-.453-.445 0-.832.13-1.16.388-.329.26-.493.581-.493.966h-3.356c0-.763.212-1.444.637-2.041.425-.598 1.014-1.064 1.768-1.4.753-.334 1.581-.502 2.484-.502 1.613 0 2.881.368 3.804 1.105s1.384 1.75 1.384 3.037c0 .624-.19 1.214-.572 1.768-.382.554-.938 1.004-1.668 1.35.77.278 1.374.701 1.812 1.269.438.567.657 1.27.657 2.106 0 1.294-.498 2.33-1.493 3.107-.996.776-2.304 1.165-3.924 1.165-.949 0-1.83-.181-2.643-.543-.814-.362-1.43-.863-1.848-1.504-.418-.64-.627-1.369-.627-2.185h3.376c0 .444.179.83.537 1.155.359.325.8.488 1.325.488.59 0 1.062-.165 1.414-.493.352-.329.528-.749.528-1.26 0-.73-.183-1.248-.548-1.553-.365-.306-.87-.458-1.514-.458h-1.633v-2.5z"/>
        <rect width="71" height="4" x="153" y="154" fill="#E2E9F2" rx="2"/>
        <rect width="30" height="4" x="153" y="163" fill="#E2E9F2" rx="2"/>
        <path fill="#B6C0CC" fill-rule="nonzero" d="M227.763 138.832a.84.84 0 0 1 .273.661.928.928 0 0 1-.273.661l-1.674 1.674a.939.939 0 0 1-1.34 0l-5.814-5.815-1.375.934c.211.27.308.584.29.943a1.363 1.363 0 0 1-.413.925l-.617.599c-.13.141-.282.247-.458.317a1.392 1.392 0 0 1-1.533-.317l-4.37-4.37a1.325 1.325 0 0 1-.424-.996c0-.394.141-.725.423-.996l.617-.616c.13-.141.282-.244.458-.309a1.527 1.527 0 0 1 1.013-.017c.159.052.303.132.432.237l1.075-1.568a9.227 9.227 0 0 1 1.198-1.454c.447-.44.929-.843 1.445-1.207l1.586-1.075a1.347 1.347 0 0 1-.334-.96c.011-.37.147-.685.405-.943l.617-.617c.14-.13.3-.229.476-.3.176-.07.352-.105.528-.105.176 0 .353.035.529.106.176.07.329.17.458.3l4.388 4.387c.27.27.405.602.405.996 0 .393-.135.725-.405.995l-.617.617a1.32 1.32 0 0 1-.467.309 1.503 1.503 0 0 1-.987.026 1.256 1.256 0 0 1-.414-.23L221.93 133l5.833 5.833zm-8.652-12.44l4.37 4.37a.312.312 0 0 0 .141.088.482.482 0 0 0 .106.017.518.518 0 0 0 .123-.017.312.312 0 0 0 .141-.089l.6-.616a.222.222 0 0 0 .087-.124.518.518 0 0 0 .018-.123.482.482 0 0 0-.018-.106.312.312 0 0 0-.088-.14l-4.37-4.371a.312.312 0 0 0-.141-.088.482.482 0 0 0-.106-.018.518.518 0 0 0-.123.018.222.222 0 0 0-.123.088l-.617.599a.312.312 0 0 0-.088.141.518.518 0 0 0-.018.123c0 .024.006.06.018.106a.312.312 0 0 0 .088.141zm-2.415 11.172l-4.387-4.388a.222.222 0 0 0-.124-.088.518.518 0 0 0-.123-.018.482.482 0 0 0-.106.018.312.312 0 0 0-.14.088l-.618.616a.312.312 0 0 0-.088.141.482.482 0 0 0-.017.106c0 .035.005.077.017.124a.222.222 0 0 0 .088.123l4.388 4.388a.222.222 0 0 0 .124.088.518.518 0 0 0 .123.018.482.482 0 0 0 .106-.018.312.312 0 0 0 .14-.088l.617-.617a.312.312 0 0 0 .089-.14.482.482 0 0 0 .017-.107.482.482 0 0 0-.017-.105.312.312 0 0 0-.089-.141zm.106-1.393l1.745-1.18a8.747 8.747 0 0 0 2.361-2.362l1.199-1.744-3.067-3.067-1.744 1.181a8.45 8.45 0 0 0-1.296 1.075c-.393.4-.749.828-1.066 1.287l-1.198 1.744 3.066 3.066zM225.42 141l1.515-1.498-5.621-5.639a7.866 7.866 0 0 1-.846.916 2.33 2.33 0 0 1-.273.265 12.754 12.754 0 0 0-.353.3.289.289 0 0 0-.044.034L225.42 141z"/>
        <path fill="#000" fill-opacity=".6" fill-rule="nonzero" d="M32.568 94.147l2.557 7.219 2.543-7.22h2.693v9.954h-2.057v-2.72l.205-4.697-2.687 7.417h-1.408l-2.68-7.41.205 4.69v2.72h-2.05v-9.953h2.68zm9.147 6.186c0-.733.141-1.387.424-1.962a3.103 3.103 0 0 1 1.22-1.333c.53-.314 1.147-.471 1.849-.471.998 0 1.813.305 2.444.916.631.61.983 1.44 1.056 2.488l.014.506c0 1.135-.317 2.045-.95 2.73-.634.687-1.484 1.03-2.55 1.03-1.067 0-1.918-.342-2.554-1.026-.635-.683-.953-1.613-.953-2.789v-.089zm1.975.144c0 .702.133 1.238.397 1.61.264.371.642.557 1.135.557.478 0 .852-.183 1.12-.55.27-.367.404-.954.404-1.76 0-.689-.134-1.222-.403-1.6-.27-.378-.647-.568-1.135-.568-.483 0-.857.188-1.121.564-.264.376-.397.959-.397 1.747zm8.067-3.773l.061.854c.529-.66 1.238-.991 2.126-.991.784 0 1.368.23 1.75.69.383.46.58 1.149.588 2.065v4.778h-1.975v-4.73c0-.42-.092-.724-.274-.913-.182-.19-.485-.284-.909-.284-.556 0-.973.237-1.251.711v5.216h-1.976v-7.396h1.86zm8.107 7.396h-1.982v-7.396h1.982v7.396zm-2.098-9.31c0-.297.099-.54.297-.732.198-.191.468-.287.81-.287.337 0 .606.096.807.287.2.191.3.435.3.731a.97.97 0 0 1-.304.739c-.203.191-.47.287-.803.287-.333 0-.6-.096-.803-.287a.97.97 0 0 1-.304-.739zm6.09.095v1.819h1.265v1.449h-1.265v3.691c0 .274.053.47.158.588.104.119.305.178.601.178.219 0 .413-.016.581-.048v1.497a4.067 4.067 0 0 1-1.196.178c-1.385 0-2.092-.7-2.12-2.099v-3.985H60.8v-1.45h1.08v-1.818h1.976zm1.853 5.448c0-.733.141-1.387.424-1.962a3.103 3.103 0 0 1 1.22-1.333c.531-.314 1.147-.471 1.85-.471.997 0 1.812.305 2.443.916.631.61.983 1.44 1.056 2.488l.014.506c0 1.135-.317 2.045-.95 2.73-.634.687-1.484 1.03-2.55 1.03-1.067 0-1.918-.342-2.553-1.026-.636-.683-.954-1.613-.954-2.789v-.089zm1.976.144c0 .702.132 1.238.396 1.61.264.371.643.557 1.135.557.478 0 .852-.183 1.12-.55.27-.367.404-.954.404-1.76 0-.689-.134-1.222-.403-1.6-.269-.378-.647-.568-1.135-.568-.483 0-.857.188-1.12.564-.265.376-.397.959-.397 1.747zm10.404-1.92a5.367 5.367 0 0 0-.711-.056c-.747 0-1.237.253-1.47.76v4.839h-1.975v-7.396h1.866l.055.881c.396-.679.945-1.018 1.647-1.018.219 0 .424.03.615.089l-.027 1.9zm5.031 5.543a2.194 2.194 0 0 1-.198-.663c-.479.533-1.1.8-1.866.8-.725 0-1.325-.21-1.802-.63a2.023 2.023 0 0 1-.714-1.585c0-.784.29-1.386.872-1.805.58-.42 1.42-.631 2.519-.636h.909v-.423c0-.342-.088-.616-.263-.82-.176-.206-.453-.308-.83-.308-.334 0-.594.08-.784.239-.189.16-.283.378-.283.656h-1.976c0-.428.132-.825.397-1.19.264-.364.638-.65 1.12-.857a4.086 4.086 0 0 1 1.628-.311c.911 0 1.635.229 2.17.687.536.458.803 1.102.803 1.931v3.206c.005.702.103 1.233.294 1.593v.116H83.12zm-1.634-1.374c.292 0 .56-.065.807-.195a1.28 1.28 0 0 0 .547-.523v-1.271h-.738c-.99 0-1.516.342-1.58 1.025l-.006.116a.79.79 0 0 0 .26.609c.173.16.41.239.71.239zm6.706-6.022l.062.827c.524-.643 1.233-.964 2.126-.964.952 0 1.606.376 1.962 1.128.52-.752 1.26-1.128 2.221-1.128.803 0 1.4.233 1.791.7.392.468.588 1.17.588 2.11v4.723H94.96v-4.717c0-.42-.082-.726-.246-.92-.164-.193-.454-.29-.868-.29-.593 0-1.003.283-1.23.848l.006 5.079h-1.976v-4.71c0-.428-.084-.738-.252-.93-.17-.191-.456-.287-.862-.287-.56 0-.966.233-1.217.698v5.229H86.34v-7.396h1.852zm13.672 7.533c-1.084 0-1.967-.333-2.649-.998-.681-.666-1.022-1.552-1.022-2.66v-.19c0-.744.144-1.408.431-1.994a3.16 3.16 0 0 1 1.22-1.353c.527-.317 1.127-.475 1.802-.475 1.011 0 1.808.319 2.389.957.58.638.871 1.542.871 2.714v.806h-4.71c.064.483.257.87.578 1.162.321.292.728.438 1.22.438.761 0 1.356-.276 1.784-.827l.971 1.087c-.296.419-.697.746-1.203.98a3.947 3.947 0 0 1-1.682.353zm-.225-6.07c-.392 0-.71.132-.954.396s-.4.642-.468 1.135h2.748v-.158c-.01-.437-.128-.775-.356-1.015-.227-.239-.551-.359-.97-.359zm6.207-1.463l.061.854c.529-.66 1.238-.991 2.126-.991.784 0 1.367.23 1.75.69.383.46.579 1.149.588 2.065v4.778h-1.975v-4.73c0-.42-.092-.724-.274-.913-.182-.19-.485-.284-.91-.284-.555 0-.972.237-1.25.711v5.216h-1.976v-7.396h1.86zm8.387-1.819v1.819h1.265v1.449h-1.265v3.691c0 .274.053.47.158.588.104.119.305.178.601.178.219 0 .413-.016.581-.048v1.497a4.067 4.067 0 0 1-1.196.178c-1.385 0-2.092-.7-2.12-2.099v-3.985h-1.08v-1.45h1.08v-1.818h1.976zm1.853 5.448c0-.733.141-1.387.424-1.962a3.103 3.103 0 0 1 1.22-1.333c.53-.314 1.147-.471 1.85-.471.997 0 1.812.305 2.443.916.631.61.983 1.44 1.056 2.488l.014.506c0 1.135-.317 2.045-.95 2.73-.634.687-1.484 1.03-2.55 1.03-1.067 0-1.918-.342-2.553-1.026-.636-.683-.954-1.613-.954-2.789v-.089zm1.976.144c0 .702.132 1.238.396 1.61.264.371.643.557 1.135.557.478 0 .852-.183 1.12-.55.27-.367.404-.954.404-1.76 0-.689-.134-1.222-.403-1.6-.269-.378-.647-.568-1.135-.568-.483 0-.857.188-1.121.564-.264.376-.396.959-.396 1.747zm13.138 3.76c-1.084 0-1.967-.333-2.649-.998-.681-.666-1.022-1.552-1.022-2.66v-.19c0-.744.144-1.408.431-1.994a3.16 3.16 0 0 1 1.22-1.353c.527-.317 1.127-.475 1.801-.475 1.012 0 1.809.319 2.39.957.58.638.871 1.542.871 2.714v.806h-4.71c.064.483.257.87.578 1.162.321.292.728.438 1.22.438.761 0 1.356-.276 1.784-.827l.971 1.087c-.296.419-.697.746-1.203.98a3.947 3.947 0 0 1-1.682.353zm-.225-6.07c-.392 0-.71.132-.954.396s-.4.642-.468 1.135h2.748v-.158c-.01-.437-.128-.775-.356-1.015-.228-.239-.551-.359-.97-.359zm6.24-1.463l.062.827c.524-.643 1.233-.964 2.126-.964.953 0 1.607.376 1.962 1.128.52-.752 1.26-1.128 2.222-1.128.802 0 1.399.233 1.79.7.393.468.589 1.17.589 2.11v4.723h-1.983v-4.717c0-.42-.082-.726-.246-.92-.164-.193-.453-.29-.868-.29-.592 0-1.002.283-1.23.848l.007 5.079h-1.976v-4.71c0-.428-.084-.738-.253-.93-.169-.191-.456-.287-.861-.287-.56 0-.966.233-1.217.698v5.229h-1.976v-7.396h1.853zm17.76 5.352c0-.241-.119-.432-.358-.57-.24-.14-.624-.264-1.152-.373-1.76-.37-2.639-1.117-2.639-2.242 0-.657.272-1.205.817-1.645.545-.44 1.257-.66 2.136-.66.94 0 1.69.222 2.253.664.563.442.844 1.016.844 1.723H156.9a.956.956 0 0 0-.273-.701c-.182-.185-.467-.277-.855-.277-.332 0-.59.075-.772.226a.712.712 0 0 0-.273.574c0 .219.103.395.31.53.208.134.558.25 1.05.348a8.57 8.57 0 0 1 1.244.332c1.044.383 1.565 1.046 1.565 1.989 0 .675-.289 1.22-.868 1.637-.578.417-1.326.626-2.242.626-.62 0-1.17-.11-1.65-.332-.482-.22-.859-.524-1.132-.909-.274-.385-.41-.8-.41-1.248h1.873c.018.351.148.62.39.807.241.187.565.28.97.28.378 0 .664-.071.858-.215a.67.67 0 0 0 .29-.564zm6.597 2.18c-1.084 0-1.967-.332-2.649-.997-.681-.666-1.022-1.552-1.022-2.66v-.19c0-.744.144-1.408.431-1.994a3.16 3.16 0 0 1 1.22-1.353c.527-.317 1.127-.475 1.802-.475 1.011 0 1.808.319 2.389.957.58.638.871 1.542.871 2.714v.806h-4.71c.064.483.257.87.578 1.162.321.292.728.438 1.22.438.761 0 1.356-.276 1.784-.827l.971 1.087c-.296.419-.697.746-1.203.98a3.947 3.947 0 0 1-1.682.353zm-.225-6.07c-.392 0-.71.133-.954.397s-.4.642-.468 1.135h2.748v-.158c-.01-.437-.128-.775-.356-1.015-.227-.239-.551-.359-.97-.359zm8.818 5.182c-.488.592-1.162.889-2.023.889-.793 0-1.398-.228-1.815-.684-.417-.456-.63-1.123-.64-2.003v-4.846h1.976v4.778c0 .77.351 1.155 1.053 1.155.67 0 1.13-.232 1.38-.697v-5.236h1.983v7.396h-1.86l-.054-.752zm14.834-2.563c-.077 1.07-.473 1.914-1.186 2.529s-1.653.923-2.82.923c-1.276 0-2.28-.43-3.011-1.289-.732-.859-1.097-2.038-1.097-3.537v-.609c0-.957.168-1.8.506-2.53.337-.728.819-1.288 1.445-1.677.627-.39 1.355-.585 2.185-.585 1.148 0 2.073.308 2.775.923s1.107 1.479 1.217 2.59h-2.051c-.05-.642-.23-1.108-.537-1.397-.307-.29-.776-.434-1.404-.434-.684 0-1.196.245-1.535.735-.34.49-.514 1.25-.523 2.28v.751c0 1.076.163 1.862.489 2.359.326.497.84.745 1.541.745.634 0 1.106-.145 1.419-.434.312-.29.49-.737.536-1.343H187zm3.397-.192v3.507h-2.05v-9.953h3.883c.747 0 1.404.137 1.972.41a3.022 3.022 0 0 1 1.309 1.166c.305.503.458 1.076.458 1.719 0 .975-.334 1.744-1.002 2.307-.667.563-1.591.844-2.772.844h-1.798zm0-1.661h1.833c.542 0 .955-.128 1.24-.383.285-.255.427-.62.427-1.094 0-.487-.143-.881-.43-1.182-.287-.3-.684-.456-1.19-.465h-1.88v3.124zm12.968 1.1h-3.937v4.068h-2.051v-9.953h6.48v1.661h-4.43v2.57h3.938v1.655z"/>
        <rect width="43" height="42" x="196" y="23" fill="#FFF" fill-rule="nonzero" opacity=".4" rx="10"/>
        <rect width="78" height="6" x="97" y="206" fill="#BA2F7D" fill-rule="nonzero" rx="3"/>
    </g>
</svg>
