<svg xmlns="http://www.w3.org/2000/svg" xmlns:xlink="http://www.w3.org/1999/xlink" width="304" height="259" viewBox="0 0 304 259">
    <defs>
        <rect id="b" width="253" height="199" rx="4"/>
        <filter id="a" width="105.5%" height="107%" x="-2.8%" y="-2.5%" filterUnits="objectBoundingBox">
            <feOffset dy="2" in="SourceAlpha" result="shadowOffsetOuter1"/>
            <feGaussianBlur in="shadowOffsetOuter1" result="shadowBlurOuter1" stdDeviation="2"/>
            <feComposite in="shadowBlurOuter1" in2="SourceAlpha" operator="out" result="shadowBlurOuter1"/>
            <feColorMatrix in="shadowBlurOuter1" values="0 0 0 0 0 0 0 0 0 0 0 0 0 0 0 0 0 0 0.15 0"/>
        </filter>
        <rect id="d" width="253" height="200" rx="4"/>
        <filter id="c" width="124.5%" height="131%" x="-12.3%" y="-14.5%" filterUnits="objectBoundingBox">
            <feOffset dy="2" in="SourceAlpha" result="shadowOffsetOuter1"/>
            <feGaussianBlur in="shadowOffsetOuter1" result="shadowBlurOuter1" stdDeviation="10"/>
            <feComposite in="shadowBlurOuter1" in2="SourceAlpha" operator="out" result="shadowBlurOuter1"/>
            <feColorMatrix in="shadowBlurOuter1" values="0 0 0 0 0 0 0 0 0 0 0 0 0 0 0 0 0 0 0.05 0"/>
        </filter>
        <linearGradient id="e" x1="86.881%" x2="11.784%" y1="36.73%" y2="62.97%">
            <stop offset="0%" stop-color="#009078"/>
            <stop offset="100%" stop-color="#003B31"/>
        </linearGradient>
        <linearGradient id="f" x1="22.088%" x2="81.434%" y1="32.538%" y2="68.273%">
            <stop offset="0%" stop-color="#FFF"/>
            <stop offset="100%" stop-color="#9E9E9E"/>
        </linearGradient>
    </defs>
    <g fill="none" fill-rule="evenodd">
        <g transform="translate(4 2)">
            <g fill-rule="nonzero">
                <use fill="#000" filter="url(#a)" xlink:href="#b"/>
                <rect width="252" height="198" x=".5" y=".5" fill="#FFF" fill-rule="evenodd" stroke="#EBEBEB" stroke-linejoin="square" stroke-opacity=".98" rx="4"/>
            </g>
            <path fill="#0081A7" fill-rule="nonzero" d="M4 0h245a4 4 0 0 1 4 4v38.453H0V4a4 4 0 0 1 4-4z"/>
            <path fill="#FFF" d="M28.125 21.58h-5.399v4.443h6.272v1.351h-7.915V14.84h7.83v1.36h-6.187v4.029h5.4v1.352zm4.158-3.52l.043 1.033c.679-.804 1.595-1.206 2.747-1.206 1.295 0 2.176.5 2.644 1.498.308-.447.708-.809 1.202-1.084.493-.276 1.076-.414 1.75-.414 2.03 0 3.063 1.082 3.097 3.246v6.241h-1.583v-6.146c0-.666-.151-1.164-.453-1.494-.303-.33-.81-.495-1.523-.495-.588 0-1.076.176-1.464.53-.387.352-.613.827-.676 1.424v6.181h-1.591v-6.103c0-1.355-.659-2.032-1.976-2.032-1.039 0-1.749.445-2.131 1.334v6.801h-1.583V18.06h1.497zm21.69 4.76c0 1.418-.322 2.56-.966 3.427-.645.866-1.518 1.3-2.619 1.3-1.123 0-2.007-.36-2.652-1.077v4.486h-1.583V18.06H47.6l.077 1.033c.645-.804 1.54-1.206 2.687-1.206 1.112 0 1.992.422 2.64 1.266.647.844.97 2.017.97 3.52v.147zm-1.582-.18c0-1.05-.223-1.88-.668-2.489-.445-.608-1.055-.912-1.83-.912-.96 0-1.678.427-2.157 1.283v4.45c.473.85 1.198 1.275 2.173 1.275.759 0 1.362-.303 1.81-.909.448-.605.672-1.505.672-2.699zm8.068-3.151c-.24-.04-.499-.06-.778-.06-1.039 0-1.743.444-2.114 1.334v6.611h-1.583V18.06h1.54l.026 1.076c.52-.833 1.255-1.249 2.208-1.249.308 0 .541.04.701.12v1.482zm5.296 8.057c-1.254 0-2.276-.414-3.063-1.244-.787-.829-1.18-1.938-1.18-3.327v-.293c0-.924.175-1.749.526-2.475.35-.726.841-1.294 1.471-1.704a3.684 3.684 0 0 1 2.05-.616c1.203 0 2.139.4 2.806 1.197.667.798 1.001 1.94 1.001 3.426v.663h-6.272c.023.918.29 1.66.8 2.226.511.565 1.16.848 1.947.848.559 0 1.032-.115 1.42-.345.388-.23.728-.534 1.019-.912l.966.757c-.775 1.2-1.939 1.8-3.49 1.8zm-.196-8.35c-.64 0-1.175.234-1.609.702-.433.467-.702 1.123-.804 1.967h4.637v-.12c-.045-.81-.262-1.437-.65-1.882-.388-.445-.913-.667-1.574-.667zm.77-5.045h1.916l-2.293 2.531h-1.275l1.652-2.53zm10.259 10.753c0-.43-.161-.765-.484-1.003-.322-.239-.884-.444-1.685-.616-.802-.172-1.438-.379-1.908-.62-.471-.24-.819-.528-1.044-.86-.226-.334-.338-.73-.338-1.189 0-.763.32-1.409.962-1.937.642-.528 1.462-.792 2.46-.792 1.05 0 1.901.273 2.554.818.653.545.98 1.243.98 2.092h-1.591c0-.436-.184-.812-.552-1.128-.368-.315-.832-.473-1.39-.473-.577 0-1.027.126-1.353.379a1.195 1.195 0 0 0-.487.99c0 .384.15.674.453.87.302.194.849.38 1.639.559.79.178 1.43.39 1.92.637.491.247.855.544 1.091.89.237.348.356.771.356 1.27 0 .833-.331 1.5-.993 2.002-.662.502-1.52.753-2.575.753-.742 0-1.398-.132-1.968-.396-.57-.264-1.017-.632-1.34-1.106a2.678 2.678 0 0 1-.483-1.536h1.583c.029.533.241.957.638 1.27.396.312.92.469 1.57.469.599 0 1.08-.122 1.441-.366.363-.244.544-.57.544-.977zm5.792-9.1v2.256h1.729v1.23H82.38v5.777c0 .373.077.653.231.84.154.186.417.28.787.28.183 0 .434-.035.753-.104v1.291a4.563 4.563 0 0 1-1.215.172c-.707 0-1.24-.215-1.6-.645-.359-.43-.539-1.042-.539-1.834v-5.776h-1.685V18.06h1.685v-2.256h1.583zm5.297 11.57h-1.583V18.06h1.583v9.314zM85.965 15.59c0-.258.079-.477.236-.654.156-.178.389-.267.697-.267.308 0 .542.089.702.267.16.177.24.396.24.654s-.08.473-.24.645c-.16.173-.394.259-.702.259-.308 0-.54-.086-.697-.259a.922.922 0 0 1-.236-.645zm5.733 2.47l.043 1.034c.679-.804 1.594-1.206 2.746-1.206 1.295 0 2.176.5 2.644 1.498.308-.447.709-.809 1.202-1.084.494-.276 1.077-.414 1.75-.414 2.03 0 3.063 1.082 3.097 3.246v6.241h-1.582v-6.146c0-.666-.152-1.164-.454-1.494-.302-.33-.81-.495-1.523-.495-.587 0-1.075.176-1.463.53-.388.352-.613.827-.676 1.424v6.181h-1.591v-6.103c0-1.355-.66-2.032-1.977-2.032-1.038 0-1.748.445-2.13 1.334v6.801H90.2V18.06h1.497zm13.45 4.572c0-.913.179-1.733.535-2.462.357-.73.853-1.292 1.489-1.688.636-.396 1.362-.594 2.177-.594 1.261 0 2.28.44 3.06 1.317.778.879 1.167 2.047 1.167 3.504v.112c0 .907-.172 1.72-.517 2.44a3.947 3.947 0 0 1-1.48 1.684c-.642.402-1.38.602-2.212.602-1.255 0-2.272-.439-3.05-1.317-.78-.878-1.169-2.04-1.169-3.486v-.112zm1.592.19c0 1.032.238 1.862.714 2.487.477.626 1.114.939 1.913.939.804 0 1.443-.318 1.916-.952.474-.634.71-1.522.71-2.664 0-1.022-.24-1.85-.723-2.484-.482-.634-1.122-.951-1.92-.951-.782 0-1.412.313-1.891.938-.48.626-.72 1.521-.72 2.686zm20.98 0c0 1.417-.323 2.559-.967 3.426-.645.866-1.517 1.3-2.618 1.3-1.124 0-2.008-.36-2.653-1.077v4.486H119.9V18.06h1.446l.077 1.033c.645-.804 1.54-1.206 2.687-1.206 1.112 0 1.992.422 2.64 1.266.647.844.97 2.017.97 3.52v.147zm-1.583-.182c0-1.05-.223-1.88-.668-2.488-.444-.608-1.055-.912-1.83-.912-.959 0-1.678.427-2.157 1.283v4.45c.474.85 1.198 1.275 2.174 1.275.758 0 1.361-.303 1.81-.909.447-.605.67-1.505.67-2.699zm7.435 4.907c-1.255 0-2.276-.414-3.063-1.244-.787-.829-1.18-1.938-1.18-3.327v-.293c0-.924.175-1.749.525-2.475.351-.726.842-1.294 1.472-1.704a3.684 3.684 0 0 1 2.05-.616c1.203 0 2.138.4 2.806 1.197.667.798 1 1.94 1 3.426v.663h-6.27c.022.918.289 1.66.8 2.226.51.565 1.159.848 1.946.848.559 0 1.032-.115 1.42-.345.388-.23.727-.534 1.018-.912l.967.757c-.776 1.2-1.94 1.8-3.49 1.8zm-.197-8.35c-.638 0-1.175.234-1.608.702-.434.467-.702 1.123-.804 1.967h4.637v-.12c-.046-.81-.262-1.437-.65-1.882-.388-.445-.913-.667-1.575-.667zm11.03 5.708c0-.43-.162-.765-.484-1.003-.322-.239-.884-.444-1.686-.616-.801-.172-1.437-.379-1.908-.62-.47-.24-.818-.528-1.044-.86-.225-.334-.337-.73-.337-1.189 0-.763.32-1.409.962-1.937.642-.528 1.462-.792 2.46-.792 1.05 0 1.9.273 2.554.818.653.545.98 1.243.98 2.092h-1.592c0-.436-.184-.812-.552-1.128-.368-.315-.831-.473-1.39-.473-.576 0-1.027.126-1.352.379a1.195 1.195 0 0 0-.488.99c0 .384.152.674.454.87.302.194.848.38 1.638.559.79.178 1.43.39 1.921.637.49.247.854.544 1.091.89.237.348.355.771.355 1.27 0 .833-.33 1.5-.992 2.002-.662.502-1.52.753-2.576.753-.741 0-1.397-.132-1.968-.396-.57-.264-1.016-.632-1.339-1.106a2.678 2.678 0 0 1-.483-1.536h1.583c.028.533.24.957.637 1.27.397.312.92.469 1.57.469.6 0 1.08-.122 1.442-.366.362-.244.543-.57.543-.977zm9.035 0c0-.43-.161-.765-.484-1.003-.322-.239-.884-.444-1.685-.616-.802-.172-1.438-.379-1.908-.62-.47-.24-.819-.528-1.044-.86-.225-.334-.338-.73-.338-1.189 0-.763.32-1.409.962-1.937.642-.528 1.462-.792 2.46-.792 1.05 0 1.901.273 2.554.818.654.545.98 1.243.98 2.092h-1.591c0-.436-.184-.812-.552-1.128-.368-.315-.832-.473-1.39-.473-.577 0-1.027.126-1.353.379a1.195 1.195 0 0 0-.487.99c0 .384.15.674.453.87.303.194.849.38 1.639.559.79.178 1.43.39 1.92.637.491.247.855.544 1.092.89.236.348.355.771.355 1.27 0 .833-.331 1.5-.993 2.002-.662.502-1.52.753-2.575.753-.742 0-1.398-.132-1.968-.396-.57-.264-1.017-.632-1.34-1.106a2.678 2.678 0 0 1-.483-1.536h1.583c.029.533.241.957.638 1.27.396.312.92.469 1.57.469.599 0 1.08-.122 1.441-.366.363-.244.544-.57.544-.977zm3.225-2.273c0-.913.179-1.733.535-2.462.357-.73.853-1.292 1.489-1.688.636-.396 1.362-.594 2.178-.594 1.26 0 2.28.44 3.058 1.317.78.879 1.168 2.047 1.168 3.504v.112c0 .907-.172 1.72-.517 2.44a3.947 3.947 0 0 1-1.48 1.684c-.642.402-1.38.602-2.212.602-1.255 0-2.272-.439-3.05-1.317-.78-.878-1.169-2.04-1.169-3.486v-.112zm1.592.19c0 1.032.238 1.862.714 2.487.477.626 1.114.939 1.913.939.804 0 1.443-.318 1.916-.952.474-.634.71-1.522.71-2.664 0-1.022-.24-1.85-.723-2.484-.482-.634-1.122-.951-1.92-.951-.782 0-1.412.313-1.891.938-.48.626-.72 1.521-.72 2.686zm14.537 4.553c-.091-.183-.165-.51-.222-.981-.736.769-1.615 1.153-2.636 1.153-.912 0-1.661-.26-2.246-.779-.584-.519-.877-1.178-.877-1.975 0-.97.367-1.724 1.1-2.26.733-.537 1.764-.805 3.093-.805h1.54v-.732c0-.557-.166-1-.496-1.33-.331-.33-.819-.495-1.464-.495-.564 0-1.038.144-1.42.43-.382.287-.573.635-.573 1.042H167c0-.465.164-.914.492-1.347.328-.433.773-.776 1.335-1.029a4.467 4.467 0 0 1 1.853-.379c1.066 0 1.902.269 2.507.805.604.537.918 1.276.94 2.217v4.287c0 .855.11 1.535.326 2.04v.138h-1.66zm-2.627-1.214c.496 0 .967-.129 1.412-.387.445-.258.767-.594.967-1.007v-1.911h-1.24c-1.94 0-2.91.57-2.91 1.713 0 .5.165.89.496 1.17.331.282.756.422 1.275.422zm8.163 1.214h-1.583V14.151h1.583v13.223z"/>
            <path fill="#00AF7D" d="M19.498 80.56H16.63v5.747h-2.573V71.394h5.208c1.71 0 3.029.385 3.958 1.157.929.772 1.394 1.888 1.394 3.35 0 .996-.24 1.831-.718 2.504-.478.672-1.144 1.19-1.999 1.552l3.327 6.217v.133h-2.757l-2.97-5.746zm-2.869-2.078h2.646c.868 0 1.546-.22 2.034-.661.489-.44.733-1.043.733-1.808 0-.799-.226-1.417-.677-1.854-.45-.437-1.124-.662-2.02-.676H16.63v4.999zm16.791 3.933c0-.58-.183-1.06-.55-1.44-.365-.378-.976-.72-1.83-1.024-.855-.303-1.52-.585-1.994-.845-1.58-.853-2.37-2.116-2.37-3.79 0-1.133.342-2.065 1.027-2.796.685-.73 1.614-1.164 2.787-1.3v-2.233h1.628v2.253c1.18.17 2.092.674 2.737 1.51.644.837.966 1.925.966 3.263H33.36c0-.86-.191-1.538-.575-2.033-.383-.495-.903-.743-1.561-.743-.651 0-1.16.178-1.526.533-.367.355-.55.864-.55 1.526 0 .594.182 1.07.545 1.429.362.358.978.698 1.846 1.02.868.32 1.55.617 2.045.89.495.273.912.586 1.251.937.34.352.6.757.784 1.214.183.458.274.994.274 1.608 0 1.154-.35 2.09-1.053 2.807-.702.717-1.68 1.14-2.935 1.27v1.997h-1.617v-1.987c-1.343-.15-2.376-.635-3.098-1.454-.722-.82-1.084-1.905-1.084-3.258h2.473c0 .86.215 1.527.646 1.998.43.471 1.039.707 1.826.707.773 0 1.361-.188 1.765-.564.403-.375.605-.874.605-1.495zm17.243-1.424h1.842v1.997h-1.842v3.319h-2.472v-3.319h-6.4l-.07-1.516 6.389-10.078h2.553v9.597zm-6.348 0h3.876v-6.227l-.183.327-3.693 5.9zm10.025-2.08l.804-7.517H63.1v2.15h-5.9l-.408 3.565c.685-.396 1.458-.594 2.32-.594 1.41 0 2.507.454 3.29 1.362.784.908 1.176 2.13 1.176 3.667 0 1.516-.434 2.723-1.302 3.62-.869.899-2.059 1.348-3.571 1.348-1.357 0-2.48-.388-3.373-1.163-.892-.775-1.375-1.797-1.45-3.067h2.391c.095.723.353 1.278.773 1.664.421.386.97.579 1.649.579.76 0 1.35-.273 1.775-.82.424-.546.636-1.29.636-2.233 0-.908-.234-1.626-.702-2.156-.468-.529-1.113-.793-1.933-.793-.448 0-.828.06-1.14.179-.312.12-.65.353-1.017.701l-1.974-.491zm17.727 1.158c-.827.881-1.794 1.322-2.9 1.322-1.302 0-2.34-.46-3.112-1.378-.774-.919-1.16-2.125-1.16-3.62 0-.984.196-1.875.59-2.674a4.42 4.42 0 0 1 1.678-1.864c.726-.444 1.567-.666 2.523-.666 1.493 0 2.676.56 3.551 1.68.875 1.12 1.312 2.618 1.312 4.496v.697c0 2.69-.603 4.742-1.81 6.155-1.208 1.414-3.008 2.131-5.403 2.151h-.295V84.31h.356c1.459-.02 2.578-.374 3.358-1.06.78-.687 1.217-1.747 1.312-3.18zm-2.38-.625c.495 0 .96-.143 1.393-.43a2.83 2.83 0 0 0 1.007-1.188v-.973c0-1.1-.223-1.984-.671-2.653-.448-.669-1.028-1.004-1.74-1.004s-1.28.296-1.704.886c-.424.591-.636 1.337-.636 2.238 0 .936.214 1.69.641 2.264.428.574.997.86 1.71.86zm7.258 10.223l-1.333-.8c.393-.62.663-1.162.809-1.623.146-.46.222-.93.229-1.408V83.9h2.228l-.01 1.792c-.007.724-.189 1.45-.545 2.177-.356.727-.815 1.326-1.378 1.798zm10.3-3.36h-2.462V74.333l-3.632 1.25v-2.1l5.778-2.14h.316v14.964zm5.345-7.395l.804-7.518h7.956v2.15h-5.9l-.408 3.565c.685-.396 1.458-.594 2.32-.594 1.41 0 2.508.454 3.29 1.362.784.908 1.176 2.13 1.176 3.667 0 1.516-.434 2.723-1.302 3.62-.868.899-2.059 1.348-3.571 1.348-1.357 0-2.48-.388-3.373-1.163-.892-.775-1.375-1.797-1.45-3.067h2.391c.095.723.353 1.278.774 1.664.42.386.97.579 1.648.579.76 0 1.351-.273 1.775-.82.424-.546.636-1.29.636-2.233 0-.908-.234-1.626-.702-2.156-.468-.529-1.113-.793-1.933-.793-.448 0-.828.06-1.14.179-.312.12-.65.353-1.017.701l-1.974-.491zM17.305 63.826h-1.081v-7.217l-2.168.802v-.983l3.08-1.165h.17v8.563zm8.432 0h-5.546v-.779l2.93-3.277c.434-.496.734-.899.898-1.209.165-.31.248-.631.248-.963 0-.445-.134-.81-.402-1.094-.267-.285-.624-.428-1.07-.428-.534 0-.95.154-1.246.46-.297.306-.445.732-.445 1.279h-1.075c0-.785.25-1.419.752-1.903.502-.483 1.174-.725 2.015-.725.786 0 1.408.208 1.866.623.457.416.686.969.686 1.66 0 .838-.531 1.837-1.593 2.996l-2.267 2.476h4.25v.884zm5.778-4.021l1.395-2.312h1.256l-2.058 3.131 2.122 3.202h-1.244l-1.453-2.37-1.454 2.37h-1.25l2.122-3.202-2.058-3.131h1.244l1.378 2.312zm5.947.802c0-.972.228-1.753.686-2.345.457-.59 1.056-.886 1.796-.886.736 0 1.32.253 1.75.76v-3.3h1.075v8.99h-.988l-.052-.68c-.43.531-1.03.797-1.797.797-.728 0-1.322-.3-1.781-.902-.46-.6-.69-1.385-.69-2.353v-.081zm1.075.122c0 .718.147 1.28.442 1.686.295.406.701.609 1.22.609.683 0 1.18-.308 1.495-.925V59.19c-.322-.597-.816-.895-1.483-.895-.527 0-.937.204-1.232.614-.295.41-.442 1.017-.442 1.82zm8.246 3.214c-.852 0-1.546-.282-2.081-.846-.535-.564-.802-1.318-.802-2.262v-.2c0-.627.119-1.188.357-1.682.239-.494.572-.88 1-1.159a2.502 2.502 0 0 1 1.392-.418c.818 0 1.454.27 1.907.813.454.543.68 1.32.68 2.33v.45h-4.26c.015.625.196 1.13.543 1.513.347.385.787.577 1.322.577.38 0 .702-.078.965-.234a2.43 2.43 0 0 0 .692-.62l.657.514c-.527.816-1.318 1.224-2.372 1.224zm-.134-5.678a1.43 1.43 0 0 0-1.092.477c-.295.318-.477.764-.547 1.338h3.151v-.082c-.031-.55-.178-.977-.442-1.279-.263-.302-.62-.454-1.07-.454z"/>
            <g transform="translate(159.003 56.604)">
                <rect width="80.013" height="38.824" fill="#DA7514" rx="4"/>
                <text fill="#FFF" font-family="Roboto-Medium, Roboto" font-size="14" font-weight="400" letter-spacing=".105">
                    <tspan x="5.511" y="22.97">DETALHES</tspan>
                </text>
            </g>
            <path fill="#DDD" fill-rule="nonzero" d="M14.056 166.276h224.889v1H14.056z"/>
            <rect width="45.681" height="7.076" x="14.056" y="128.244" fill="gray" fill-rule="nonzero" rx="3"/>
            <rect width="79.941" height="7.076" x="14.056" y="110.556" fill="gray" fill-rule="nonzero" rx="3"/>
            <rect width="34.26" height="7.076" x="14.056" y="145.933" fill="gray" fill-rule="nonzero" rx="3"/>
            <rect width="84.333" height="7.076" x="154.611" y="110.556" fill="#D6D6D6" fill-rule="nonzero" rx="3"/>
            <rect width="113.323" height="7.076" x="125.622" y="128.244" fill="#D6D6D6" fill-rule="nonzero" rx="3"/>
            <rect width="113.323" height="7.076" x="125.622" y="145.933" fill="#D6D6D6" fill-rule="nonzero" rx="3"/>
            <rect width="40.41" height="7.076" x="14.056" y="177.773" fill="#DA7514" fill-rule="nonzero" rx="3"/>
        </g>
        <g fill-rule="nonzero" transform="translate(31 37)">
            <use fill="#000" filter="url(#c)" xlink:href="#d"/>
            <rect width="252" height="199" x=".5" y=".5" fill="#FFF" fill-rule="evenodd" stroke="#EBEBEB" stroke-linejoin="square" stroke-opacity=".98" rx="4"/>
        </g>
        <g fill-rule="nonzero" transform="translate(45.056 149.39)">
            <path fill="#DDD" d="M0 55.752h224.889v1H0z"/>
            <rect width="45.681" height="7.08" y="17.699" fill="gray" rx="3"/>
            <rect width="79.941" height="7.08" fill="gray" rx="3"/>
            <rect width="34.26" height="7.08" y="35.398" fill="gray" rx="3"/>
            <rect width="84.333" height="7.08" x="140.556" fill="#D6D6D6" rx="3"/>
            <rect width="112.444" height="7.08" x="112.444" y="17.699" fill="#D6D6D6" rx="3"/>
            <rect width="112.444" height="7.08" x="112.444" y="35.398" fill="#D6D6D6" rx="3"/>
            <rect width="41.288" height="7.08" y="66.372" fill="#DA7514" rx="3"/>
        </g>
        <path fill="#1EA7D0" fill-rule="nonzero" d="M35 37h245a4 4 0 0 1 4 4v38.478H31V41a4 4 0 0 1 4-4z"/>
        <path fill="#FFF" d="M61.63 60.322c-.153 1.313-.637 2.327-1.452 3.041s-1.898 1.07-3.249 1.07c-1.465 0-2.639-.525-3.521-1.578-.883-1.052-1.325-2.46-1.325-4.222v-1.195c0-1.154.206-2.17.618-3.045.411-.876.995-1.549 1.75-2.018.755-.47 1.63-.704 2.623-.704 1.317 0 2.373.368 3.168 1.105.795.736 1.257 1.756 1.388 3.058h-1.644c-.142-.99-.45-1.706-.924-2.15-.474-.443-1.137-.665-1.988-.665-1.045 0-1.864.387-2.457 1.16-.593.774-.89 1.874-.89 3.302v1.203c0 1.348.281 2.42.843 3.216.562.796 1.348 1.194 2.359 1.194.908 0 1.605-.206 2.09-.618.486-.413.808-1.13.967-2.154h1.644zm7.673 3.941c-.09-.182-.165-.506-.221-.973-.733.763-1.607 1.144-2.623 1.144-.909 0-1.654-.258-2.236-.772-.582-.515-.873-1.168-.873-1.958 0-.961.365-1.708 1.095-2.24.73-.531 1.755-.797 3.078-.797h1.533v-.726c0-.551-.165-.99-.494-1.318-.33-.327-.815-.49-1.456-.49-.562 0-1.033.142-1.414.426-.38.285-.57.629-.57 1.033h-1.584c0-.461.163-.906.49-1.335.326-.43.769-.77 1.328-1.02a4.463 4.463 0 0 1 1.844-.375c1.061 0 1.893.266 2.495.797.602.532.914 1.264.937 2.197v4.249c0 .847.107 1.521.323 2.022v.136h-1.652zm-2.614-1.203c.494 0 .962-.128 1.405-.384.443-.256.763-.588.962-.998v-1.894h-1.235c-1.93 0-2.895.566-2.895 1.698 0 .495.164.881.494 1.16.329.279.752.418 1.269.418zm10.866-6.611a4.713 4.713 0 0 0-.775-.06c-1.033 0-1.734.44-2.103 1.322v6.552H73.1v-9.23h1.533l.026 1.066c.516-.825 1.249-1.237 2.197-1.237.306 0 .54.04.698.12v1.467zm3.586-3.652v2.235h1.72v1.22h-1.72v5.725c0 .37.076.647.23.831.153.185.414.278.783.278.182 0 .431-.034.75-.103v1.28a4.56 4.56 0 0 1-1.21.17c-.704 0-1.235-.213-1.592-.64-.358-.426-.537-1.031-.537-1.816v-5.725h-1.678v-1.22h1.678v-2.235h1.576zm9.248 11.466c-.09-.182-.165-.506-.221-.973-.733.763-1.607 1.144-2.623 1.144-.909 0-1.654-.258-2.236-.772-.582-.515-.873-1.168-.873-1.958 0-.961.365-1.708 1.095-2.24.73-.531 1.755-.797 3.078-.797h1.533v-.726c0-.551-.165-.99-.494-1.318-.33-.327-.815-.49-1.456-.49-.562 0-1.033.142-1.414.426-.38.285-.57.629-.57 1.033h-1.584c0-.461.163-.906.49-1.335.326-.43.769-.77 1.328-1.02a4.463 4.463 0 0 1 1.844-.375c1.061 0 1.893.266 2.495.797.602.532.914 1.264.937 2.197v4.249c0 .847.107 1.521.323 2.022v.136H90.39zm-2.614-1.203c.494 0 .962-.128 1.405-.384.443-.256.763-.588.962-.998v-1.894h-1.235c-1.93 0-2.895.566-2.895 1.698 0 .495.164.881.494 1.16.329.279.752.418 1.269.418zm3.704-11.628c0 .615-.174 1.112-.524 1.493a1.7 1.7 0 0 1-1.307.572c-.233 0-.434-.029-.604-.086-.17-.056-.394-.173-.669-.35-.275-.176-.474-.282-.596-.32a1.457 1.457 0 0 0-.422-.055.78.78 0 0 0-.596.27.975.975 0 0 0-.247.686l-1.056-.06c0-.608.172-1.112.515-1.51.344-.398.78-.597 1.308-.597.198 0 .377.028.536.085.16.057.375.168.647.333.273.165.482.273.626.324.145.051.306.077.482.077a.761.761 0 0 0 .608-.29c.162-.194.243-.418.243-.674l1.056.102zm2.291 8.13c0-.904.177-1.717.532-2.44.355-.722.85-1.28 1.482-1.672.633-.392 1.356-.588 2.167-.588 1.255 0 2.27.435 3.045 1.305.775.87 1.162 2.028 1.162 3.472v.111c0 .899-.171 1.705-.515 2.419a3.917 3.917 0 0 1-1.473 1.667c-.639.399-1.373.598-2.201.598-1.25 0-2.262-.435-3.037-1.306-.774-.87-1.162-2.021-1.162-3.455v-.11zm1.584.188c0 1.024.237 1.846.711 2.466.474.62 1.109.93 1.904.93.8 0 1.436-.315 1.907-.943.471-.629.707-1.509.707-2.64 0-1.013-.24-1.833-.72-2.462-.48-.628-1.117-.943-1.912-.943-.777 0-1.405.31-1.882.93-.477.62-.715 1.508-.715 2.662zm12.715-.18c0-1.415.335-2.554 1.005-3.416.67-.861 1.547-1.292 2.631-1.292 1.079 0 1.933.37 2.563 1.109v-4.812h1.576v13.104h-1.448l-.076-.99c-.63.774-1.508 1.16-2.632 1.16-1.067 0-1.937-.437-2.61-1.313-.673-.876-1.01-2.02-1.01-3.43v-.12zm1.575.18c0 1.047.216 1.866.647 2.457.432.592 1.028.887 1.789.887.999 0 1.729-.449 2.188-1.348v-4.24c-.47-.87-1.195-1.305-2.171-1.305-.772 0-1.374.299-1.806.896-.431.597-.647 1.481-.647 2.653zm12.468 4.684c-1.25 0-2.265-.411-3.049-1.233-.783-.822-1.175-1.921-1.175-3.297v-.29c0-.916.174-1.734.524-2.453.349-.72.837-1.283 1.464-1.69a3.678 3.678 0 0 1 2.04-.61c1.198 0 2.129.396 2.793 1.187.665.79.997 1.922.997 3.395v.657h-6.243c.023.91.288 1.645.797 2.205.508.56 1.154.84 1.937.84.556 0 1.028-.113 1.414-.34a3.554 3.554 0 0 0 1.013-.905l.962.75c-.772 1.19-1.93 1.784-3.474 1.784zm-.196-8.276a2.1 2.1 0 0 0-1.601.696c-.432.463-.698 1.113-.8 1.95h4.615v-.12c-.045-.802-.261-1.424-.647-1.864-.386-.441-.908-.662-1.567-.662zm13.626 6.987c.562 0 1.053-.17 1.473-.511.42-.342.653-.768.699-1.28h1.49c-.029.529-.21 1.032-.545 1.51a3.591 3.591 0 0 1-1.341 1.143 3.865 3.865 0 0 1-1.776.427c-1.255 0-2.253-.42-2.994-1.259-.74-.839-1.11-1.986-1.11-3.442v-.264c0-.9.164-1.698.493-2.398.33-.7.802-1.242 1.418-1.63.616-.386 1.344-.58 2.184-.58 1.034 0 1.892.31 2.577.93.684.62 1.048 1.425 1.094 2.415h-1.49c-.046-.597-.272-1.088-.678-1.472-.405-.384-.906-.576-1.503-.576-.8 0-1.42.29-1.86.866-.44.578-.66 1.412-.66 2.504v.299c0 1.063.218 1.882.655 2.457.437.574 1.062.861 1.874.861zm9.887-6.696a4.713 4.713 0 0 0-.775-.06c-1.033 0-1.734.44-2.103 1.322v6.552h-1.576v-9.23h1.533l.026 1.066c.516-.825 1.249-1.237 2.197-1.237.306 0 .54.04.698.12v1.467zm5.272 7.985c-1.25 0-2.266-.411-3.05-1.233-.783-.822-1.174-1.921-1.174-3.297v-.29c0-.916.174-1.734.523-2.453.35-.72.838-1.283 1.465-1.69a3.678 3.678 0 0 1 2.04-.61c1.198 0 2.129.396 2.793 1.187.664.79.997 1.922.997 3.395v.657h-6.243c.023.91.288 1.645.796 2.205.509.56 1.154.84 1.938.84.556 0 1.027-.113 1.414-.34a3.554 3.554 0 0 0 1.013-.905l.962.75c-.772 1.19-1.93 1.784-3.474 1.784zm-.196-8.276a2.1 2.1 0 0 0-1.601.696c-.432.463-.699 1.113-.8 1.95h4.615v-.12c-.045-.802-.261-1.424-.647-1.864-.386-.441-.909-.662-1.567-.662zm.766-4.999h1.908l-2.282 2.508h-1.27l1.644-2.508zm4.463 8.412c0-1.416.335-2.555 1.005-3.417.67-.861 1.547-1.292 2.631-1.292 1.079 0 1.933.37 2.564 1.109v-4.812h1.575v13.104h-1.448l-.076-.99c-.63.774-1.508 1.16-2.632 1.16-1.067 0-1.937-.437-2.61-1.313-.673-.876-1.01-2.02-1.01-3.43v-.12zm1.575.18c0 1.046.216 1.865.647 2.456.432.592 1.028.887 1.789.887 1 0 1.729-.449 2.189-1.348v-4.24c-.472-.87-1.196-1.305-2.172-1.305-.772 0-1.374.299-1.806.896-.431.597-.647 1.481-.647 2.653zm10.356 4.512h-1.576v-9.23h1.576v9.23zm-1.703-11.679c0-.256.078-.472.234-.648.156-.177.387-.265.694-.265.307 0 .54.088.698.265a.933.933 0 0 1 .239.648c0 .256-.08.47-.239.64-.159.17-.391.256-.698.256-.307 0-.538-.086-.694-.256a.912.912 0 0 1-.234-.64zm6.361.213v2.235h1.72v1.22h-1.72v5.725c0 .37.077.647.23.831.153.185.415.278.784.278.181 0 .431-.034.75-.103v1.28a4.56 4.56 0 0 1-1.21.17c-.704 0-1.235-.213-1.593-.64-.357-.426-.536-1.031-.536-1.816v-5.725h-1.678v-1.22h1.678v-2.235h1.575zm3.143 6.765c0-.904.177-1.717.532-2.44.355-.722.849-1.28 1.482-1.672.633-.392 1.355-.588 2.167-.588 1.255 0 2.27.435 3.045 1.305.775.87 1.162 2.028 1.162 3.472v.111c0 .899-.172 1.705-.515 2.419a3.917 3.917 0 0 1-1.473 1.667c-.64.399-1.373.598-2.202.598-1.249 0-2.26-.435-3.036-1.306-.775-.87-1.162-2.021-1.162-3.455v-.11zm1.584.188c0 1.024.237 1.846.71 2.466.475.62 1.11.93 1.904.93.8 0 1.437-.315 1.908-.943.471-.629.707-1.509.707-2.64 0-1.013-.24-1.833-.72-2.462-.48-.628-1.117-.943-1.912-.943-.778 0-1.405.31-1.882.93-.477.62-.715 1.508-.715 2.662z"/>
        <rect width="80.013" height="32.744" fill="#DA7514" rx="4" transform="translate(190.003 92.752)"/>
        <g fill-rule="nonzero" transform="translate(45.056 92.752)">
            <rect width="68.797" height="42.478" fill="url(#e)" rx="2"/>
            <rect width="52.251" height="3.468" x="6.967" y="26.874" fill="#529C90" rx="1.734"/>
            <rect width="17.417" height="3.468" x="6.967" y="33.809" fill="#529C90" rx="1.734"/>
            <rect width="10.45" height="7.802" x="6.967" y="14.737" fill="url(#f)" rx="2"/>
        </g>
    </g>
</svg>
