<svg xmlns="http://www.w3.org/2000/svg" xmlns:xlink="http://www.w3.org/1999/xlink" width="280" height="240"><defs><rect id="b" width="237" height="188" rx="2.596"/><filter id="a" width="110.5%" height="113.3%" x="-5.3%" y="-6.1%" filterUnits="objectBoundingBox"><feOffset dy="1" in="SourceAlpha" result="shadowOffsetOuter1"/><feGaussianBlur in="shadowOffsetOuter1" result="shadowBlurOuter1" stdDeviation="4"/><feComposite in="shadowBlurOuter1" in2="SourceAlpha" operator="out" result="shadowBlurOuter1"/><feColorMatrix in="shadowBlurOuter1" values="0 0 0 0 0 0 0 0 0 0 0 0 0 0 0 0 0 0 0.04 0"/></filter><path id="d" d="M2.596 0h223.808A2.596 2.596 0 0 1 229 2.596v182.808a2.596 2.596 0 0 1-2.596 2.596H2.596A2.596 2.596 0 0 1 0 185.404V2.596A2.596 2.596 0 0 1 2.596 0z"/><filter id="c" width="110.9%" height="113.3%" x="-5.5%" y="-6.1%" filterUnits="objectBoundingBox"><feOffset dy="1" in="SourceAlpha" result="shadowOffsetOuter1"/><feGaussianBlur in="shadowOffsetOuter1" result="shadowBlurOuter1" stdDeviation="4"/><feComposite in="shadowBlurOuter1" in2="SourceAlpha" operator="out" result="shadowBlurOuter1"/><feColorMatrix in="shadowBlurOuter1" values="0 0 0 0 0 0 0 0 0 0 0 0 0 0 0 0 0 0 0.04 0"/></filter></defs><g fill="none" fill-rule="evenodd"><g transform="translate(7)"><use fill="#000" filter="url(#a)" xlink:href="#b"/><rect width="236" height="187" x=".5" y=".5" fill="#FFF" stroke="#ECECEC" stroke-linejoin="square" rx="2.596"/><rect width="83.212" height="19.822" x="145.5" y="13.683" fill="#FFF" stroke="#E57608" opacity=".7" rx="9.911"/><g fill-rule="nonzero"><path fill="#59C200" d="M56 113c0 1.662-1.681 3.108-2.026 4.664-.357 1.605.536 3.653-.149 5.102-.694 1.472-2.822 2.03-3.81 3.296-.992 1.27-1.055 3.516-2.298 4.53-1.236 1.01-3.388.576-4.828 1.286-1.417.7-2.423 2.697-3.993 3.063-1.52.353-3.271-.993-4.896-.993s-3.375 1.346-4.896.993c-1.57-.366-2.576-2.364-3.993-3.063-1.44-.71-3.592-.276-4.829-1.286-1.243-1.015-1.305-3.26-2.297-4.531-.988-1.264-3.116-1.824-3.81-3.296-.684-1.448.208-3.496-.149-5.101C13.681 116.108 12 114.662 12 113s1.68-3.108 2.026-4.664c.357-1.605-.535-3.652.149-5.1.694-1.474 2.822-2.033 3.81-3.298.992-1.27 1.055-3.515 2.298-4.53 1.237-1.01 3.389-.577 4.828-1.286 1.417-.7 2.423-2.697 3.993-3.063 1.52-.353 3.271.993 4.896.993s3.375-1.346 4.896-.993c1.57.366 2.576 2.364 3.993 3.063 1.44.71 3.592.276 4.829 1.286 1.242 1.015 1.305 3.26 2.297 4.531.988 1.265 3.116 1.824 3.81 3.296.684 1.45-.208 3.496.149 5.101C54.319 109.891 56 111.338 56 113"/><path fill="#FFF" d="M22.699 114.085h-3.59v-1.34h3.59v1.34zm6.432-6.44v1.375h-.205c-.93.014-1.672.269-2.228.766-.556.496-.887 1.2-.991 2.112.533-.56 1.214-.84 2.044-.84.88 0 1.573.309 2.081.929.508.62.762 1.42.762 2.4 0 1.01-.297 1.83-.892 2.457-.595.626-1.375.94-2.341.94-.994 0-1.8-.367-2.417-1.1-.617-.735-.926-1.696-.926-2.886v-.567c0-1.746.425-3.113 1.275-4.102.85-.989 2.072-1.483 3.668-1.483h.17zm-1.784 4.752c-.364 0-.698.102-1.001.308a1.798 1.798 0 0 0-.667.82v.506c0 .738.155 1.325.465 1.76.31.435.711.653 1.203.653.492 0 .882-.185 1.17-.554.286-.37.43-.854.43-1.456s-.146-1.091-.438-1.47a1.395 1.395 0 0 0-1.162-.567zm11.06 1.06c0 1.43-.267 2.51-.802 3.236-.536.727-1.35 1.09-2.444 1.09-1.076 0-1.886-.354-2.43-1.062-.545-.709-.824-1.758-.838-3.148v-1.723c0-1.43.268-2.504.803-3.22.536-.715 1.353-1.073 2.451-1.073 1.09 0 1.902.349 2.437 1.046.536.697.81 1.74.824 3.13v1.723zm-1.66-1.86c0-.934-.128-1.619-.383-2.054-.255-.435-.661-.653-1.217-.653-.542 0-.941.206-1.196.619-.255.412-.39 1.056-.404 1.93v2.257c0 .93.13 1.622.39 2.078.26.456.668.683 1.224.683.533 0 .927-.21 1.182-.632.256-.421.39-1.081.404-1.979v-2.249zm3.062-1.99c0-.6.194-1.094.581-1.48.388-.384.896-.577 1.525-.577.638 0 1.15.193 1.534.578.385.385.578.89.578 1.514v.492c0 .597-.193 1.087-.578 1.47-.385.383-.892.574-1.52.574-.616 0-1.123-.188-1.522-.564-.398-.376-.598-.883-.598-1.52v-.486zm1.162.527c0 .315.088.569.263.762a.892.892 0 0 0 .694.291c.283 0 .51-.097.684-.29.173-.194.26-.457.26-.79v-.5c0-.314-.088-.569-.264-.765a.886.886 0 0 0-.693-.294c-.287 0-.516.1-.687.298-.171.198-.257.459-.257.782v.506zm3.623 5.072c0-.61.199-1.105.595-1.483.397-.378.902-.567 1.518-.567.62 0 1.126.189 1.52.567.395.378.592.889.592 1.531v.486c0 .592-.19 1.08-.57 1.466-.381.385-.89.578-1.529.578-.638 0-1.152-.19-1.541-.571-.39-.38-.585-.883-.585-1.507v-.5zm1.162.534c0 .31.09.564.27.762.18.198.412.297.694.297.292 0 .521-.094.687-.283.167-.19.25-.455.25-.797v-.513c0-.319-.09-.574-.267-.765a.891.891 0 0 0-.683-.287.888.888 0 0 0-.687.287c-.176.191-.264.456-.264.793v.506zm-3.486 1.162l-.854-.492 4.86-7.78.854.493-4.86 7.779z"/></g><path fill="#009EE3" d="M10.596 149h215.808a2.596 2.596 0 0 1 2.596 2.596v26.04a2.596 2.596 0 0 1-2.596 2.597H10.596A2.596 2.596 0 0 1 8 177.637v-26.041A2.596 2.596 0 0 1 10.596 149z"/><rect width="62.187" height="31.233" x="8" y="8" fill="#C4CFDC" rx="2.2"/><rect width="50.505" height="4.411" x="8" y="60.223" fill="#E2E9F2" rx="2.206"/><rect width="62.582" height="6.617" x="8" y="70.149" fill="#E2E9F2" rx="3.3"/><rect width="71.366" height="4.411" x="150" y="60.223" fill="#E2E9F2" rx="2.206"/><rect width="59.289" height="3.309" x="158.175" y="22.006" fill="#E57608" opacity=".44" rx="1.654"/><rect width="41.722" height="6.617" x="179.644" y="70.149" fill="#C4CFDC" rx="3.3"/></g><g transform="translate(47 48)"><use fill="#000" filter="url(#c)" xlink:href="#d"/><path fill="#FFF" stroke="#ECECEC" stroke-linejoin="square" d="M2.596.5A2.096 2.096 0 0 0 .5 2.596v182.808c0 1.158.938 2.096 2.096 2.096h223.808a2.096 2.096 0 0 0 2.096-2.096V2.596A2.096 2.096 0 0 0 226.404.5H2.596z"/><rect width="83.112" height="19.722" x="137.55" y="13.733" stroke="#D6103B" stroke-width="1.1" opacity=".7" rx="9.861"/><g transform="translate(14 93)"><path fill="#000" fill-opacity=".8" fill-rule="nonzero" d="M55.36 26.126v4.008h-2.344V18.759h4.437c.854 0 1.606.156 2.254.468.648.313 1.147.757 1.496 1.332.35.576.524 1.23.524 1.965 0 1.115-.382 1.994-1.145 2.637s-1.819.965-3.168.965H55.36zm0-1.899h2.093c.62 0 1.093-.145 1.418-.437.326-.292.488-.708.488-1.25 0-.557-.164-1.008-.492-1.352-.328-.343-.781-.52-1.36-.531H55.36v3.57zm7.374 1.602c0-.839.162-1.586.485-2.242a3.546 3.546 0 0 1 1.394-1.524c.607-.36 1.311-.539 2.114-.539 1.14 0 2.071.35 2.793 1.047.72.698 1.123 1.646 1.207 2.844l.015.578c0 1.297-.362 2.337-1.086 3.121-.724.784-1.695 1.176-2.914 1.176s-2.191-.39-2.918-1.172c-.726-.781-1.09-1.844-1.09-3.188v-.101zm2.258.164c0 .802.151 1.415.453 1.84.302.424.735.637 1.297.637.547 0 .974-.21 1.281-.63.308-.419.461-1.09.461-2.011 0-.787-.153-1.396-.46-1.828-.308-.433-.74-.649-1.297-.649-.553 0-.98.215-1.282.645-.302.43-.453 1.095-.453 1.996zm11.89-2.195a6.134 6.134 0 0 0-.812-.063c-.854 0-1.414.29-1.68.867v5.532h-2.257V21.68h2.133l.062 1.008c.453-.776 1.08-1.164 1.883-1.164.25 0 .484.034.703.102l-.031 2.172zm1.196 5.226c0-.36.121-.65.363-.875.243-.224.546-.336.91-.336.37 0 .676.112.919.336.242.224.363.516.363.875 0 .354-.12.642-.36.864-.24.22-.546.332-.921.332-.37 0-.675-.111-.915-.332-.24-.222-.359-.51-.359-.864zm0-6.398c0-.36.121-.651.363-.875.243-.224.546-.336.91-.336.37 0 .676.112.919.336.242.224.363.515.363.875 0 .354-.12.642-.36.863-.24.221-.546.332-.921.332-.37 0-.675-.11-.915-.332-.24-.221-.359-.509-.359-.863zm12.75 3.344h-1.867v4.164h-2.344V18.759h4.227c1.344 0 2.38.3 3.11.898.728.599 1.093 1.445 1.093 2.54 0 .775-.168 1.422-.504 1.94-.336.519-.845.931-1.527 1.239l2.46 4.648v.11h-2.515l-2.133-4.164zm-1.867-1.899h1.89c.59 0 1.045-.15 1.368-.45.323-.299.484-.711.484-1.237 0-.537-.152-.959-.457-1.266-.305-.307-.772-.461-1.402-.461H88.96v3.414zm13.023 3.07c0-.427-.118-.767-.355-1.02-.237-.252-.64-.485-1.207-.698a14.24 14.24 0 0 1-1.469-.637 4.68 4.68 0 0 1-1.058-.727 2.92 2.92 0 0 1-.688-.964c-.164-.37-.246-.81-.246-1.32 0-.881.281-1.602.844-2.165.562-.562 1.31-.89 2.242-.984v-1.672h1.25v1.695c.922.13 1.643.515 2.164 1.153.52.638.781 1.464.781 2.48h-2.258c0-.625-.129-1.092-.386-1.402-.258-.31-.603-.465-1.035-.465-.428 0-.758.12-.993.363-.234.242-.351.577-.351 1.004 0 .396.114.714.344.953.229.24.654.485 1.277.735.622.25 1.134.485 1.535.707.401.22.74.47 1.016.75.276.278.487.596.632.953.146.356.22.772.22 1.246 0 .885-.277 1.604-.829 2.156-.552.552-1.312.878-2.281.977v1.554H99.89v-1.547c-1.068-.114-1.895-.493-2.48-1.136-.587-.644-.88-1.499-.88-2.567h2.258c0 .62.147 1.095.441 1.426.295.33.718.496 1.27.496.458 0 .82-.12 1.086-.363.266-.242.398-.57.398-.98zm10.063-3.695h1.203c.573 0 .997-.143 1.273-.43.276-.286.415-.666.415-1.14 0-.459-.137-.815-.41-1.07-.274-.256-.65-.383-1.13-.383-.432 0-.794.118-1.085.355a1.137 1.137 0 0 0-.438.926h-2.258c0-.594.16-1.126.48-1.598.321-.471.769-.84 1.344-1.105a4.485 4.485 0 0 1 1.903-.399c1.203 0 2.146.288 2.828.864.682.575 1.023 1.368 1.023 2.379 0 .52-.159 1-.476 1.437a3.096 3.096 0 0 1-1.25 1.008c.64.229 1.118.573 1.433 1.031.315.458.473 1 .473 1.625 0 1.01-.368 1.82-1.105 2.43-.737.61-1.713.914-2.926.914-1.136 0-2.064-.3-2.785-.899-.722-.599-1.082-1.39-1.082-2.375h2.257c0 .427.16.776.48 1.047.321.271.716.407 1.184.407.537 0 .957-.142 1.262-.426.305-.284.457-.66.457-1.13 0-1.135-.625-1.702-1.875-1.702h-1.195v-1.766zm13.008-4.805v1.86h-.22c-1.02.015-1.842.281-2.464.797-.622.515-.996 1.231-1.121 2.148.604-.614 1.367-.922 2.29-.922.989 0 1.775.354 2.358 1.063.584.708.875 1.64.875 2.797 0 .74-.16 1.408-.48 2.007a3.446 3.446 0 0 1-1.36 1.399c-.585.333-1.248.5-1.988.5-1.198 0-2.165-.417-2.902-1.25-.737-.833-1.106-1.945-1.106-3.336v-.813c0-1.234.234-2.324.7-3.27.466-.944 1.135-1.676 2.008-2.194.872-.519 1.884-.78 3.035-.786h.375zm-2.203 5.696c-.365 0-.696.095-.993.285-.297.19-.515.441-.656.754v.687c0 .755.149 1.345.445 1.77.297.424.714.637 1.25.637.485 0 .877-.192 1.176-.575.3-.382.45-.879.45-1.488 0-.62-.152-1.12-.454-1.5-.302-.38-.708-.57-1.218-.57zm12.914 1.093c0 1.573-.326 2.777-.977 3.61-.651.833-1.604 1.25-2.86 1.25-1.239 0-2.187-.409-2.843-1.227-.656-.817-.992-1.99-1.008-3.515v-2.094c0-1.589.33-2.794.988-3.617.66-.823 1.608-1.235 2.848-1.235 1.24 0 2.188.408 2.844 1.223.656.815.992 1.986 1.008 3.512v2.093zm-2.258-2.296c0-.943-.13-1.63-.387-2.059-.258-.43-.66-.645-1.207-.645-.531 0-.923.205-1.176.614-.252.409-.386 1.048-.402 1.918v2.765c0 .927.126 1.616.379 2.067.252.45.657.676 1.215.676.552 0 .95-.217 1.195-.649.245-.432.372-1.094.383-1.984v-2.703zm4.46 9.851l-1.179-.617.281-.508c.35-.635.529-1.268.54-1.898v-1.75h1.906l-.008 1.562c-.005.578-.151 1.162-.438 1.75a4.486 4.486 0 0 1-1.101 1.461zm10.884-7.555c0 1.573-.326 2.777-.977 3.61-.651.833-1.604 1.25-2.86 1.25-1.239 0-2.187-.409-2.843-1.227-.656-.817-.992-1.99-1.008-3.515v-2.094c0-1.589.33-2.794.988-3.617.66-.823 1.608-1.235 2.848-1.235 1.24 0 2.187.408 2.844 1.223.656.815.992 1.986 1.008 3.512v2.093zm-2.258-2.296c0-.943-.13-1.63-.387-2.059-.258-.43-.66-.645-1.207-.645-.531 0-.923.205-1.176.614-.252.409-.387 1.048-.402 1.918v2.765c0 .927.126 1.616.379 2.067.252.45.657.676 1.215.676.552 0 .95-.217 1.195-.649.245-.432.372-1.094.383-1.984v-2.703zm11.437 2.296c0 1.573-.325 2.777-.976 3.61-.651.833-1.604 1.25-2.86 1.25-1.24 0-2.187-.409-2.843-1.227-.657-.817-.993-1.99-1.008-3.515v-2.094c0-1.589.33-2.794.988-3.617.659-.823 1.608-1.235 2.848-1.235 1.24 0 2.187.408 2.843 1.223.657.815.993 1.986 1.008 3.512v2.093zm-2.258-2.296c0-.943-.128-1.63-.386-2.059-.258-.43-.66-.645-1.207-.645-.532 0-.923.205-1.176.614-.253.409-.387 1.048-.402 1.918v2.765c0 .927.126 1.616.378 2.067.253.45.658.676 1.215.676.552 0 .95-.217 1.196-.649.244-.432.372-1.094.382-1.984v-2.703z"/><path fill="#000" fill-opacity=".6" fill-rule="nonzero" d="M52.762 12.594V4.063h2.625c.75 0 1.42.168 2.012.506a3.534 3.534 0 0 1 1.386 1.442c.332.623.498 1.33.498 2.124v.392c0 .793-.163 1.498-.49 2.116a3.504 3.504 0 0 1-1.379 1.435c-.594.34-1.264.512-2.01.516h-2.642zm1.758-7.108v5.696h.85c.687 0 1.212-.225 1.575-.674.364-.45.55-1.092.557-1.928v-.45c0-.867-.18-1.524-.54-1.972-.358-.447-.884-.67-1.575-.67h-.867zm8.847 7.225c-.93 0-1.686-.285-2.27-.855-.584-.57-.876-1.33-.876-2.28v-.164c0-.637.123-1.206.369-1.708a2.71 2.71 0 0 1 1.046-1.16 2.936 2.936 0 0 1 1.544-.407c.867 0 1.55.273 2.048.82.498.547.747 1.322.747 2.326v.692h-4.037c.054.414.22.746.495.996s.624.375 1.046.375c.652 0 1.162-.237 1.529-.71l.832.932a2.54 2.54 0 0 1-1.031.841 3.383 3.383 0 0 1-1.442.302zm-.193-5.203c-.336 0-.609.113-.818.34-.209.226-.342.55-.4.972h2.355v-.134c-.008-.375-.11-.665-.305-.87-.195-.206-.473-.308-.832-.308zm3.844 4.254c0-.27.09-.489.272-.656a.967.967 0 0 1 .683-.252c.277 0 .506.084.688.252a.852.852 0 0 1 .273.656.84.84 0 0 1-.27.647.98.98 0 0 1-.691.25.97.97 0 0 1-.686-.25.84.84 0 0 1-.27-.647zm0-4.8c0-.269.09-.487.272-.655a.967.967 0 0 1 .683-.252c.277 0 .506.084.688.252a.852.852 0 0 1 .273.656.84.84 0 0 1-.27.647.98.98 0 0 1-.691.25.97.97 0 0 1-.686-.25.84.84 0 0 1-.27-.647zm9.562 2.509h-1.4v3.123h-1.758V4.063h3.17c1.008 0 1.785.224 2.332.673.547.45.82 1.084.82 1.905 0 .582-.126 1.067-.378 1.456-.252.388-.634.698-1.145.928l1.845 3.487v.082H78.18l-1.6-3.123zm-1.4-1.424h1.418c.441 0 .783-.112 1.025-.337.242-.225.363-.534.363-.929 0-.402-.114-.718-.342-.949-.229-.23-.58-.346-1.052-.346H75.18v2.56zm9.767 2.303c0-.32-.089-.576-.266-.765-.178-.19-.48-.364-.906-.524a10.68 10.68 0 0 1-1.101-.478 3.51 3.51 0 0 1-.794-.545 2.19 2.19 0 0 1-.516-.723c-.123-.278-.184-.608-.184-.99 0-.66.21-1.202.632-1.624.422-.422.983-.668 1.682-.738V2.709h.938v1.272c.691.097 1.232.385 1.623.864.39.478.586 1.098.586 1.86h-1.694c0-.469-.096-.82-.29-1.052a.958.958 0 0 0-.776-.348c-.32 0-.568.09-.744.272-.176.182-.264.433-.264.753 0 .297.086.535.258.715.172.18.491.363.958.55.467.188.85.365 1.151.531.301.166.555.354.762.563.207.209.365.447.475.714.109.268.164.58.164.935 0 .664-.207 1.203-.621 1.617-.415.414-.985.658-1.711.733v1.166h-.932v-1.16c-.8-.087-1.42-.37-1.86-.853-.44-.483-.66-1.124-.66-1.925h1.694c0 .465.11.821.33 1.07.222.247.539.371.953.371.344 0 .615-.09.814-.272.2-.182.3-.427.3-.735zm9.938 2.244H93.19V6.066l-2.021.627V5.316l3.533-1.265h.182v8.543zm2.93-.832c0-.27.09-.489.272-.656a.967.967 0 0 1 .683-.252c.277 0 .506.084.688.252a.852.852 0 0 1 .272.656.84.84 0 0 1-.27.647.977.977 0 0 1-.69.25.97.97 0 0 1-.686-.25.84.84 0 0 1-.27-.647zm8.888-5.432c0 .414-.103.781-.31 1.102-.207.32-.493.576-.856.767.414.2.742.474.984.824.243.35.364.76.364 1.233 0 .758-.258 1.356-.774 1.796-.515.44-1.216.659-2.103.659-.887 0-1.59-.22-2.11-.662-.52-.442-.779-1.04-.779-1.793 0-.473.121-.885.363-1.236a2.43 2.43 0 0 1 .979-.82 2.212 2.212 0 0 1-.853-.768 1.998 1.998 0 0 1-.307-1.102c0-.726.242-1.306.726-1.737.485-.432 1.143-.648 1.975-.648.828 0 1.485.214 1.972.642.486.428.73 1.009.73 1.743zm-1.517 3.803c0-.371-.108-.668-.323-.89-.215-.223-.504-.335-.867-.335-.36 0-.646.11-.861.331-.215.221-.323.519-.323.894 0 .363.106.656.317.879.21.222.504.334.879.334.367 0 .655-.108.864-.323.21-.214.314-.511.314-.89zm-.176-3.72c0-.333-.088-.6-.264-.8-.176-.202-.424-.302-.744-.302-.316 0-.563.097-.738.293-.176.195-.264.464-.264.808 0 .34.088.613.264.82.175.208.423.311.744.311.32 0 .567-.103.741-.31.174-.208.26-.481.26-.82zm8.76 2.653c0 1.18-.245 2.082-.733 2.707s-1.203.938-2.144.938c-.93 0-1.641-.307-2.133-.92s-.744-1.492-.756-2.637v-1.57c0-1.191.247-2.096.741-2.713s1.206-.926 2.136-.926c.93 0 1.64.306 2.133.917.492.612.744 1.49.756 2.634v1.57zm-1.694-1.722c0-.707-.097-1.222-.29-1.544-.193-.322-.495-.484-.905-.484-.399 0-.693.154-.882.46-.19.307-.29.787-.302 1.439v2.074c0 .695.095 1.212.284 1.55.19.338.494.507.912.507.414 0 .712-.162.896-.487.184-.324.28-.82.287-1.488V7.344zm8.578 1.722c0 1.18-.244 2.082-.732 2.707s-1.203.938-2.145.938c-.93 0-1.64-.307-2.132-.92-.493-.613-.745-1.492-.756-2.637v-1.57c0-1.191.247-2.096.74-2.713.495-.617 1.207-.926 2.137-.926.93 0 1.64.306 2.132.917.493.612.745 1.49.756 2.634v1.57zm-1.693-1.722c0-.707-.097-1.222-.29-1.544-.193-.322-.495-.484-.905-.484-.399 0-.693.154-.882.46-.19.307-.29.787-.302 1.439v2.074c0 .695.095 1.212.284 1.55.19.338.493.507.911.507.414 0 .713-.162.897-.487.183-.324.28-.82.287-1.488V7.344zm3.346 7.388l-.885-.462.21-.381c.263-.477.397-.951.405-1.424v-1.313h1.43l-.006 1.172a3.044 3.044 0 0 1-.328 1.313c-.215.441-.49.806-.826 1.095zm8.162-5.666c0 1.18-.244 2.082-.733 2.707-.488.625-1.203.938-2.144.938-.93 0-1.64-.307-2.133-.92-.492-.613-.744-1.492-.756-2.637v-1.57c0-1.191.247-2.096.741-2.713s1.206-.926 2.136-.926c.93 0 1.64.306 2.133.917.492.612.744 1.49.756 2.634v1.57zm-1.694-1.722c0-.707-.096-1.222-.29-1.544-.193-.322-.495-.484-.905-.484-.398 0-.692.154-.882.46-.19.307-.29.787-.302 1.439v2.074c0 .695.095 1.212.285 1.55.19.338.493.507.91.507.415 0 .714-.162.897-.487.184-.324.28-.82.287-1.488V7.344zm8.579 1.722c0 1.18-.245 2.082-.733 2.707s-1.203.938-2.144.938c-.93 0-1.641-.307-2.133-.92s-.744-1.492-.756-2.637v-1.57c0-1.191.247-2.096.741-2.713s1.206-.926 2.136-.926c.93 0 1.64.306 2.133.917.492.612.744 1.49.756 2.634v1.57zm-1.694-1.722c0-.707-.097-1.222-.29-1.544-.193-.322-.495-.484-.905-.484-.399 0-.693.154-.882.46-.19.307-.29.787-.302 1.439v2.074c0 .695.095 1.212.284 1.55.19.338.494.507.912.507.414 0 .712-.162.896-.487.184-.324.28-.82.287-1.488V7.344z"/><path fill="#B400FF" d="M44 22c0 1.662-1.681 3.108-2.026 4.664-.357 1.605.536 3.653-.149 5.102-.694 1.472-2.822 2.03-3.81 3.296-.992 1.27-1.055 3.516-2.298 4.53-1.236 1.01-3.388.576-4.828 1.286-1.417.7-2.423 2.697-3.993 3.063-1.52.353-3.271-.993-4.896-.993s-3.375 1.346-4.896.993c-1.57-.366-2.576-2.364-3.993-3.063-1.44-.71-3.592-.276-4.829-1.286-1.243-1.015-1.305-3.26-2.297-4.531-.988-1.264-3.116-1.824-3.81-3.296-.684-1.448.208-3.496-.149-5.101C1.681 25.108 0 23.662 0 22s1.68-3.108 2.026-4.664c.357-1.605-.535-3.652.149-5.1.694-1.474 2.822-2.033 3.81-3.298.992-1.27 1.055-3.515 2.298-4.53 1.237-1.01 3.389-.577 4.828-1.286 1.417-.7 2.423-2.697 3.993-3.063 1.52-.353 3.271.993 4.896.993s3.375-1.346 4.896-.993c1.57.366 2.576 2.364 3.993 3.063 1.44.71 3.592.276 4.829 1.286 1.242 1.015 1.305 3.26 2.297 4.531.988 1.265 3.116 1.824 3.81 3.296.684 1.45-.208 3.496.149 5.101C42.319 18.891 44 20.338 44 22"/><path fill="#FFF" fill-rule="nonzero" d="M10.699 23.085h-3.59v-1.34h3.59v1.34zm7.533-3.766c0 .487-.125.922-.376 1.302-.25.38-.592.68-1.025.899.52.242.92.572 1.2.991.28.42.42.893.42 1.422 0 .875-.296 1.569-.889 2.082-.592.512-1.38.769-2.365.769-.99 0-1.78-.258-2.376-.773-.594-.515-.892-1.207-.892-2.078 0-.533.142-1.012.424-1.435a2.73 2.73 0 0 1 1.19-.978 2.593 2.593 0 0 1-1.016-.899 2.33 2.33 0 0 1-.372-1.302c0-.848.273-1.52.82-2.017.547-.497 1.285-.745 2.215-.745.934 0 1.675.248 2.222.745.547.497.82 1.17.82 2.017zM16.79 23.85c0-.492-.147-.89-.441-1.193-.294-.303-.683-.454-1.166-.454-.483 0-.87.15-1.159.45-.289.302-.434.7-.434 1.197 0 .488.143.877.428 1.169.284.292.678.437 1.179.437s.892-.14 1.172-.423c.28-.283.42-.677.42-1.183zm-.212-4.47c0-.434-.126-.79-.376-1.07s-.588-.42-1.012-.42c-.424 0-.759.132-1.005.399-.246.267-.369.63-.369 1.09 0 .456.124.818.373 1.087.248.27.584.404 1.008.404.424 0 .76-.135 1.008-.404.249-.269.373-.63.373-1.087zm9.83 3.075c0 1.431-.268 2.51-.803 3.237-.536.727-1.35 1.09-2.444 1.09-1.076 0-1.886-.354-2.43-1.062-.545-.709-.824-1.758-.838-3.148V20.85c0-1.43.268-2.504.803-3.22.536-.715 1.353-1.073 2.451-1.073 1.09 0 1.902.349 2.437 1.046.536.697.81 1.74.824 3.13v1.723zm-1.661-1.859c0-.934-.128-1.619-.383-2.054-.255-.435-.661-.653-1.217-.653-.542 0-.941.206-1.196.619-.255.412-.39 1.056-.404 1.93v2.257c0 .93.13 1.622.39 2.078.26.456.668.683 1.224.683.533 0 .927-.21 1.182-.632.256-.421.39-1.081.404-1.979v-2.249zm3.062-1.99c0-.6.194-1.094.581-1.48.388-.384.896-.577 1.525-.577.638 0 1.15.193 1.534.578.385.385.578.89.578 1.514v.492c0 .597-.193 1.087-.578 1.47-.385.383-.892.574-1.52.574-.616 0-1.123-.188-1.522-.564-.398-.376-.598-.883-.598-1.52v-.486zm1.162.527c0 .315.088.569.263.762a.892.892 0 0 0 .694.291c.283 0 .51-.097.684-.29.173-.194.26-.457.26-.79v-.5c0-.314-.088-.569-.264-.765a.886.886 0 0 0-.693-.294c-.287 0-.516.1-.687.298-.171.198-.257.459-.257.782v.506zm3.623 5.072c0-.61.199-1.105.595-1.483.397-.378.902-.567 1.518-.567.62 0 1.126.189 1.52.567.395.378.592.889.592 1.531v.486c0 .592-.19 1.08-.57 1.466-.381.385-.89.578-1.529.578-.638 0-1.152-.19-1.541-.571-.39-.38-.585-.883-.585-1.507v-.5zm1.162.534c0 .31.09.564.27.762.18.198.412.297.694.297.292 0 .521-.094.687-.283.167-.19.25-.455.25-.797v-.513c0-.319-.09-.574-.267-.765a.891.891 0 0 0-.683-.287.888.888 0 0 0-.687.287c-.176.191-.264.456-.264.793v.506zm-3.486 1.162l-.854-.492 4.86-7.78.854.493-4.86 7.779z"/><rect width="88" height="4.853" x="52" y="38.118" fill="#E2E9F2" rx="2.426"/></g><path fill="#009EE3" d="M10.596 149h207.808a2.596 2.596 0 0 1 2.596 2.596v26.04a2.596 2.596 0 0 1-2.596 2.597H10.596A2.596 2.596 0 0 1 8 177.637v-26.041A2.596 2.596 0 0 1 10.596 149z"/><path fill="#FFF" fill-rule="nonzero" d="M95.693 166.46l1.933-6.415h1.957l-2.97 8.531h-1.834l-2.96-8.531h1.952l1.922 6.416zm7.5 2.233c-.93 0-1.687-.285-2.27-.855-.585-.57-.877-1.33-.877-2.28v-.164c0-.636.123-1.206.37-1.708a2.71 2.71 0 0 1 1.045-1.16 2.936 2.936 0 0 1 1.544-.407c.867 0 1.55.273 2.048.82.498.547.747 1.323.747 2.326v.692h-4.037c.055.414.22.746.495.996s.624.375 1.046.375c.652 0 1.162-.236 1.53-.709l.831.932c-.254.359-.597.64-1.03.84a3.383 3.383 0 0 1-1.442.302zm-.194-5.203c-.336 0-.608.113-.817.34-.21.226-.343.55-.401.973h2.355v-.135c-.008-.375-.11-.665-.305-.87-.195-.205-.472-.308-.832-.308zm7.325.334a4.6 4.6 0 0 0-.61-.047c-.64 0-1.06.217-1.26.65v4.149h-1.693v-6.34h1.6l.047.756c.34-.582.81-.873 1.412-.873.187 0 .363.025.527.076l-.023 1.629zm3.539 1.523c0-.628.12-1.189.363-1.681a2.66 2.66 0 0 1 1.046-1.143c.455-.27.983-.404 1.585-.404.855 0 1.553.262 2.094.785.541.524.843 1.234.906 2.133l.011.434c0 .972-.271 1.752-.814 2.34-.543.588-1.271.882-2.186.882-.914 0-1.643-.293-2.188-.879-.545-.586-.817-1.383-.817-2.39v-.077zm1.693.124c0 .601.113 1.061.34 1.38.226.318.55.477.972.477.41 0 .73-.157.961-.472.23-.314.346-.817.346-1.509 0-.59-.115-1.046-.346-1.37-.23-.325-.554-.487-.972-.487-.414 0-.735.161-.961.483-.227.323-.34.822-.34 1.498zm5.818 3.105v-5.098h-.943v-1.242h.943v-.539c0-.71.204-1.263.613-1.655.408-.393.98-.589 1.713-.589.235 0 .522.039.862.117l-.018 1.313a2.159 2.159 0 0 0-.515-.053c-.637 0-.955.299-.955.896v.51h1.26v1.242h-1.26v5.098h-1.7zm6.756.117c-.93 0-1.686-.285-2.27-.855-.584-.57-.876-1.33-.876-2.28v-.164c0-.636.123-1.206.369-1.708a2.71 2.71 0 0 1 1.046-1.16 2.936 2.936 0 0 1 1.544-.407c.867 0 1.55.273 2.048.82.498.547.747 1.323.747 2.326v.692H126.7c.055.414.22.746.496.996.275.25.624.375 1.046.375.652 0 1.162-.236 1.529-.709l.832.932c-.254.359-.598.64-1.031.84a3.383 3.383 0 0 1-1.442.302zm-.193-5.203c-.336 0-.609.113-.818.34-.209.226-.342.55-.4.973h2.355v-.135c-.008-.375-.11-.665-.305-.87-.195-.205-.473-.308-.832-.308zm7.324.334a4.6 4.6 0 0 0-.61-.047c-.64 0-1.06.217-1.26.65v4.149H131.7v-6.34h1.6l.046.756c.34-.582.81-.873 1.412-.873.188 0 .363.025.527.076l-.023 1.629zm2.842-3.146v1.558h1.084v1.242h-1.084v3.164c0 .235.045.403.135.504.09.102.261.153.515.153a2.7 2.7 0 0 0 .498-.041v1.283a3.486 3.486 0 0 1-1.025.152c-1.188 0-1.793-.6-1.817-1.799v-3.416h-.925v-1.242h.925v-1.558h1.694zm5.701 7.898a1.88 1.88 0 0 1-.17-.568c-.41.457-.943.685-1.6.685-.62 0-1.135-.18-1.543-.539a1.734 1.734 0 0 1-.613-1.36c0-.671.25-1.187.747-1.546.498-.36 1.218-.541 2.16-.545h.779v-.363c0-.293-.075-.528-.226-.703-.15-.176-.388-.264-.712-.264-.285 0-.509.068-.67.205a.697.697 0 0 0-.244.562h-1.693c0-.367.113-.707.34-1.02.226-.312.547-.557.96-.734a3.502 3.502 0 0 1 1.395-.267c.781 0 1.402.196 1.86.589.46.392.689.944.689 1.655v2.748c.004.602.088 1.057.252 1.365v.1h-1.711zm-1.4-1.178c.25 0 .48-.055.691-.167.211-.111.367-.26.469-.448v-1.09h-.633c-.848 0-1.299.293-1.354.88l-.005.099c0 .21.074.384.222.521.149.137.352.205.61.205z"/><rect width="62.187" height="31.233" x="8" y="8" fill="#C4CFDC" rx="2.2"/><rect width="50.505" height="4.411" x="8" y="58.223" fill="#E2E9F2" rx="2.206"/><rect width="62.582" height="6.617" x="8" y="68.149" fill="#E2E9F2" rx="3.3"/><rect width="71.366" height="4.411" x="142" y="58.223" fill="#E2E9F2" rx="2.206"/><rect width="59.289" height="3.309" x="150.175" y="22.006" fill="#D6103B" opacity=".44" rx="1.654"/><rect width="41.722" height="6.617" x="171.644" y="68.149" fill="#C4CFDC" rx="3.3"/></g></g></svg>