<svg xmlns="http://www.w3.org/2000/svg" width="48" height="48" viewBox="0 0 48 48">
    <defs>
        <linearGradient id="prefix__a" x1="42.976%" x2="60.111%" y1="56.595%" y2="38.319%">
            <stop offset=".021%" stop-color="#02AC7C"/>
            <stop offset="100%" stop-color="#03DEA0"/>
        </linearGradient>
        <linearGradient id="prefix__b" x1="81.249%" x2="37.823%" y1="26.157%" y2="75.401%">
            <stop offset="0%" stop-color="#2BFFC3"/>
            <stop offset="100%" stop-color="#01C88F"/>
        </linearGradient>
        <linearGradient id="prefix__c" x1="50%" x2="50%" y1="0%" y2="100%">
            <stop offset="0%" stop-color="#FFBE27"/>
            <stop offset="100%" stop-color="#FF5D1C"/>
        </linearGradient>
        <linearGradient id="prefix__d" x1="35.465%" x2="57.594%" y1="37.769%" y2="60.358%">
            <stop offset="0%" stop-color="#FF9811"/>
            <stop offset="100%" stop-color="#FF2929"/>
        </linearGradient>
        <linearGradient id="prefix__e" x1="50%" x2="50%" y1="0%" y2="100%">
            <stop offset="0%" stop-color="#6B86A1"/>
            <stop offset="100%" stop-color="#4D7296"/>
        </linearGradient>
    </defs>
    <g fill="none" fill-rule="evenodd">
        <path fill="#E7F9F4" d="M45.063 36.735c.517-.97.932-1.997 1.228-3.08 2.023-7.373 2.725-17.6-.573-24.66-1.01-2.163-2.529-4.04-4.492-5.396C36.778.527 32.23-1.455 27.07 1.339c-3.343 1.809-4.962 5.059-7.805 7.355-5.393 4.358-13.847 2.907-17.68 9.555-2.81 4.875-1.473 11.102.809 15.926C4.697 39.04 8.57 43.25 13.373 45.68c1.165.59 2.38 1.078 3.63 1.45 9.388 2.798 23.211-1.294 28.06-10.396"/>
        <g>
            <path fill="url(#prefix__a)" d="M42 21.048v.11l-.006.908c-.01 1.154-.947 2.084-2.1 2.084H38.09c-1.16 0-2.1-.94-2.1-2.1v-.022c.006-.539.009-.865.009-.98 0-3.47-1.173-6.665-3.143-9.21l4.197-4.36C40.14 11.144 42 15.879 42 21.049z" transform="translate(3 9)"/>
            <path fill="url(#prefix__b)" d="M37.054 7.479l-4.197 4.36c-2.229-2.88-5.478-4.924-9.204-5.59l.881-5.952c4.994.848 9.389 3.463 12.52 7.182z" transform="translate(3 9)"/>
            <path fill="url(#prefix__c)" d="M21 0c1.205 0 2.386.102 3.535.297l-.882 5.951c-.861-.154-1.748-.234-2.653-.234-3.537 0-6.789 1.227-9.354 3.28L8.43 4.185C11.935 1.557 16.286 0 21 0z" transform="translate(3 9)"/>
            <path fill="url(#prefix__d)" d="M8.43 4.185l3.216 5.109C8.205 12.049 6 16.29 6 21.048l.001.185.008.795c.012 1.16-.918 2.11-2.078 2.122H2.106c-1.153 0-2.09-.93-2.1-2.084L0 21.048c0-6.9 3.312-13.024 8.43-16.863z" transform="translate(3 9)"/>
            <path fill="url(#prefix__e)" d="M27.493 12.5c-.15 0-.3.035-.45.099-.12.051-.231.111-.335.18l-9.028 6.175c-.085.057-.168.118-.245.179-.107.085-.2.189-.28.308-.459.478-.697 1.135-.649 1.873.047.726.344 1.352.879 1.855.262.23.535.401.832.526.31.13.643.196.995.196.36 0 .716-.081 1.066-.24.34-.155.638-.358.89-.61l7.398-8.142c.213-.255.325-.539.344-.852.02-.306-.049-.598-.201-.865-.184-.24-.346-.384-.529-.494-.208-.125-.44-.188-.687-.188z" transform="translate(3 9)"/>
        </g>
    </g>
</svg>
