<svg xmlns="http://www.w3.org/2000/svg" width="116" height="48" viewBox="0 0 116 48">
    <g fill="none" fill-rule="evenodd">
        <path fill="#84B269" fill-rule="nonzero" d="M30.027 35.298c0 1.208.231 2.337.681 3.402a8.997 8.997 0 0 0 1.864 2.78 8.888 8.888 0 0 0 2.75 1.882c1.054.468 2.172.701 3.367.701 1.632 0 3.11-.402 4.434-1.207 1.324-.805 2.364-1.858 3.11-3.17.231-.375.565-.622.99-.713a1.593 1.593 0 0 1 1.195.155c.372.247.617.585.707 1.026.102.443.038.87-.206 1.286-1.016 1.754-2.442 3.156-4.254 4.22-1.812 1.065-3.817 1.598-5.989 1.598a11.77 11.77 0 0 1-4.614-.922c-1.439-.623-2.699-1.467-3.765-2.546a11.802 11.802 0 0 1-2.52-3.804c-.616-1.455-.911-3.013-.911-4.662v-9.312c0-1.649.308-3.194.912-4.662.617-1.454 1.453-2.728 2.519-3.805a12.183 12.183 0 0 1 3.765-2.572c1.44-.635 2.982-.948 4.614-.948 2.172 0 4.164.546 5.989 1.65 1.812 1.103 3.238 2.546 4.254 4.324.206.377.257.793.18 1.234-.09.442-.309.793-.681 1.026a1.593 1.593 0 0 1-1.196.155c-.424-.103-.77-.363-1.04-.765-.746-1.299-1.787-2.364-3.11-3.195a8.19 8.19 0 0 0-4.383-1.234 8.186 8.186 0 0 0-3.367.701 8.743 8.743 0 0 0-2.75 1.91 9.268 9.268 0 0 0-1.864 2.805c-.463 1.064-.68 2.194-.68 3.403v9.259zm21.45-.663c0-1.675.308-3.272.937-4.766a12.464 12.464 0 0 1 6.439-6.61 11.893 11.893 0 0 1 4.691-1.026c.54 0 .976.156 1.298.468.321.31.488.688.488 1.13 0 .441-.167.817-.488 1.13-.322.31-.758.467-1.298.467a9.035 9.035 0 0 0-3.47.792 9.267 9.267 0 0 0-2.853 1.987 8.988 8.988 0 0 0-1.915 2.909c-.463 1.116-.681 2.286-.681 3.532v11.013c0 .441-.154.818-.463 1.13-.308.311-.68.467-1.118.467-.437 0-.81-.156-1.118-.467a1.548 1.548 0 0 1-.463-1.13V34.635h.014zm17.644 4.286a8.944 8.944 0 0 0 1.903 2.623 9.68 9.68 0 0 0 2.621 1.753 9.035 9.035 0 0 0 3.072.754 8.871 8.871 0 0 0 3.238-.377 8.663 8.663 0 0 0 3.162-1.702 9.54 9.54 0 0 0 2.223-2.7c.206-.39.514-.637.938-.767.401-.132.84-.09 1.208.116.386.209.63.521.758.948.13.43.09.832-.115 1.222-.707 1.546-1.658 2.779-2.853 3.701-1.195.922-2.674 1.65-4.421 2.195-1.62.493-3.239.662-4.82.506a12.064 12.064 0 0 1-4.472-1.325 12.154 12.154 0 0 1-3.662-2.96c-1.054-1.26-1.839-2.74-2.34-4.442-.488-1.636-.655-3.272-.475-4.882a12.32 12.32 0 0 1 1.362-4.507c.733-1.39 1.735-2.624 2.982-3.715a13.546 13.546 0 0 1 4.382-2.506 11.096 11.096 0 0 1 4.691-.415c1.568.195 3.046.663 4.434 1.39a12.373 12.373 0 0 1 3.663 2.908 12.605 12.605 0 0 1 2.402 4.208c.232.532.22 1.013-.025 1.403-.257.402-.578.662-.964.78l-18.892 5.79zm5.54-12.935a8.832 8.832 0 0 0-2.88 1.494 9.522 9.522 0 0 0-2.12 2.324 8.723 8.723 0 0 0-1.208 2.87 10.146 10.146 0 0 0-.193 3.182l17.208-5.272a9.28 9.28 0 0 0-1.927-2.533 8.97 8.97 0 0 0-2.609-1.702 9.89 9.89 0 0 0-3.046-.74 8.593 8.593 0 0 0-3.226.377zm28.62-3.649c1.902.065 3.637.558 5.191 1.467 1.556.91 2.905 1.987 4.023 3.221V15.65c0-.441.154-.818.463-1.13.308-.311.68-.467 1.118-.467.437 0 .81.155 1.118.467.308.311.463.689.463 1.13v19.194c0 1.78-.322 3.429-.964 4.935a11.986 11.986 0 0 1-6.567 6.48c-1.491.624-3.072.922-4.743.922-1.735 0-3.341-.324-4.845-.974a12.225 12.225 0 0 1-3.894-2.675 12.812 12.812 0 0 1-2.621-3.935 11.917 11.917 0 0 1-.964-4.766c0-1.714.334-3.324.99-4.844.668-1.506 1.554-2.83 2.673-3.96a12.815 12.815 0 0 1 3.894-2.702 11.275 11.275 0 0 1 4.665-.987zm9.214 12.506a10.52 10.52 0 0 0-.835-3.7c-.489-1.13-1.144-2.118-1.966-2.936a8.909 8.909 0 0 0-2.853-1.935c-1.093-.467-2.236-.688-3.47-.688-1.26 0-2.442.246-3.56.714a9.175 9.175 0 0 0-4.897 4.948 9.215 9.215 0 0 0-.72 3.597c0 1.272.232 2.468.72 3.571a9.313 9.313 0 0 0 1.967 2.935 9.175 9.175 0 0 0 2.93 1.987 8.937 8.937 0 0 0 3.56.715c1.259 0 2.441-.234 3.534-.715a9.207 9.207 0 0 0 2.904-1.987 9.313 9.313 0 0 0 1.967-2.935c.488-1.117.72-2.299.72-3.57z"/>
        <path fill="#6C6C6F" d="M4.093 38.92a8.944 8.944 0 0 0 1.902 2.624 9.68 9.68 0 0 0 2.621 1.753 9.04 9.04 0 0 0 3.072.754 8.875 8.875 0 0 0 3.239-.377 8.67 8.67 0 0 0 3.161-1.702 9.54 9.54 0 0 0 2.223-2.7c.206-.39.515-.637.939-.767.401-.132.838-.09 1.207.116.386.209.63.521.76.948.127.43.089.832-.117 1.222-.707 1.546-1.657 2.779-2.853 3.701-1.195.922-2.673 1.65-4.421 2.195-1.62.493-3.239.662-4.82.506a12.069 12.069 0 0 1-4.472-1.325 12.163 12.163 0 0 1-3.662-2.96C1.818 41.66 1.06 40.155.546 38.454.057 36.817-.109 35.18.07 33.57a12.32 12.32 0 0 1 1.363-4.507c.732-1.39 1.735-2.623 2.98-3.715a13.546 13.546 0 0 1 4.384-2.506 11.096 11.096 0 0 1 4.69-.415c1.568.195 3.046.662 4.434 1.39a12.385 12.385 0 0 1 3.663 2.908 12.605 12.605 0 0 1 2.403 4.208c.232.532.218 1.013-.026 1.403-.257.402-.578.662-.964.779L4.093 38.921zm5.539-12.934a8.832 8.832 0 0 0-2.879 1.494 9.842 9.842 0 0 0-2.133 2.324 8.723 8.723 0 0 0-1.209 2.87 10.146 10.146 0 0 0-.192 3.182l17.208-5.272A9.28 9.28 0 0 0 18.5 28.05a8.97 8.97 0 0 0-2.608-1.702 9.89 9.89 0 0 0-3.046-.74 8.528 8.528 0 0 0-3.213.377zM64.366 8.208a.19.19 0 0 1 0-.273l.412-.48c.077-.078.193-.053.27 0a4.59 4.59 0 0 0 2.917 1.064c1.567 0 2.338-.701 2.338-1.752 0-.91-.397-1.416-2.055-1.598l-.9-.09c-1.683-.17-2.622-.988-2.622-2.417C64.726 1 65.908.013 67.888.013c1.22 0 2.274.403 2.994.87.09.078.09.195.038.272l-.334.456c-.051.09-.167.116-.27.052-.578-.338-1.542-.702-2.492-.702-1.376 0-2.095.611-2.095 1.624 0 .895.552 1.376 2.068 1.52l.9.09c1.748.169 2.597 1.026 2.597 2.441 0 1.728-1.209 2.832-3.445 2.832-1.594.012-2.776-.676-3.483-1.26zm9.42-1.13c-.167-.558-.27-1.182-.27-2.338 0-1.142.09-1.805.27-2.363.489-1.52 1.71-2.364 3.342-2.364 1.632 0 2.866.844 3.354 2.364.193.571.27 1.156.27 2.415 0 .117-.077.195-.205.195h-5.86c-.078 0-.116.052-.116.13 0 .766.05 1.181.192 1.598.411 1.194 1.324 1.766 2.545 1.766 1.169 0 1.979-.494 2.506-1.156.077-.091.167-.117.27-.04l.436.403c.09.078.09.169.013.273-.655.896-1.786 1.52-3.277 1.52-1.773 0-2.955-.832-3.47-2.403zm5.81-2.96c.076 0 .115-.04.115-.118 0-.558-.051-.948-.167-1.311-.36-1.13-1.221-1.715-2.416-1.715-1.17 0-2.03.585-2.39 1.715-.116.363-.167.766-.167 1.311 0 .078.038.117.115.117h4.91zm4.19 5.168c-.116 0-.194-.078-.194-.194V.389c0-.116.078-.194.193-.194h.642c.116 0 .193.078.193.194v1.156h.013C84.967.65 85.777 0 87.05 0c.72 0 1.375.247 1.812.624.09.051.116.155.039.246l-.373.533c-.077.09-.167.09-.283.038-.41-.272-.86-.453-1.426-.453-1.58 0-2.185 1.389-2.185 3.064v5.026c0 .116-.077.195-.192.195h-.656v.013zm7.53-7.636c-.09.077-.205.077-.283-.014l-.321-.48c-.052-.09-.039-.194.052-.272.642-.56 1.606-.87 2.865-.87 2.34 0 3.277.779 3.277 3.012v6.078c0 .117-.077.194-.193.194h-.59c-.116 0-.193-.077-.193-.194v-.948h-.013c-.36.766-1.324 1.337-2.79 1.337-1.811 0-3.019-.909-3.019-2.688 0-1.805 1.22-2.688 3.405-2.688h2.275c.077 0 .116-.039.116-.117v-.934c0-1.482-.514-2.092-2.34-2.092-1.079 0-1.72.247-2.248.676zm4.6 4.844V5.103c0-.078-.038-.117-.115-.117h-2.146c-1.786 0-2.544.585-2.544 1.792 0 1.143.796 1.753 2.223 1.753 1.542 0 2.583-.805 2.583-2.038zm3.65 1.714a.19.19 0 0 1 0-.273l.412-.48c.077-.078.193-.053.27 0a4.59 4.59 0 0 0 2.917 1.064c1.568 0 2.339-.701 2.339-1.752 0-.91-.398-1.416-2.056-1.598l-.9-.09c-1.67-.17-2.622-.988-2.622-2.417 0-1.662 1.182-2.649 3.162-2.649 1.22 0 2.275.403 2.994.87.09.078.09.195.039.272l-.334.456c-.052.09-.168.116-.27.052-.579-.338-1.542-.702-2.493-.702-1.376 0-2.095.611-2.095 1.624 0 .895.553 1.376 2.069 1.52l.9.09c1.748.169 2.596 1.026 2.596 2.441 0 1.728-1.209 2.832-3.445 2.832-1.594.012-2.776-.676-3.483-1.26zm10.487-6.558c-.09.077-.205.077-.282-.014l-.322-.48c-.051-.09-.038-.194.052-.272.642-.56 1.606-.87 2.865-.87 2.34 0 3.277.779 3.277 3.012v6.078c0 .117-.077.194-.192.194h-.604c-.116 0-.193-.077-.193-.194v-.948h-.013c-.36.766-1.323 1.337-2.788 1.337-1.812 0-3.02-.909-3.02-2.688 0-1.805 1.22-2.688 3.405-2.688h2.275c.077 0 .116-.039.116-.117v-.934c0-1.482-.515-2.092-2.34-2.092-1.066 0-1.708.247-2.236.676zm4.601 4.844V5.103c0-.078-.038-.117-.115-.117h-2.146c-1.787 0-2.545.585-2.545 1.792 0 1.143.797 1.753 2.223 1.753 1.542 0 2.583-.805 2.583-2.038z"/>
    </g>
</svg>
