<svg xmlns="http://www.w3.org/2000/svg" width="172" height="44" viewBox="0 0 172 44">
    <g fill="none" fill-rule="evenodd">
        <g fill="#26478D" fill-rule="nonzero">
            <path d="M62.524 42.97a.255.255 0 0 1-.261-.263v-.824h-.037c-.67.824-1.75 1.386-3.463 1.386-2.235 0-4.208-1.198-4.208-3.895 0-2.81 2.122-4.083 5.25-4.083h2.235c.111 0 .149-.037.149-.15v-.486c0-1.199-.559-1.723-2.57-1.723-1.266 0-2.197.374-2.83.824-.149.112-.26.075-.335-.038l-1.155-2.06c-.074-.15-.037-.3.075-.374 1.08-.75 2.607-1.274 4.692-1.274 4.133 0 5.586 1.423 5.586 4.607v8.128c0 .15-.112.262-.26.262h-2.868v-.037zm-.298-4.233v-.861c0-.113-.037-.15-.15-.15H60.29c-1.526 0-2.234.45-2.234 1.46 0 .9.633 1.35 1.825 1.35 1.564-.038 2.346-.6 2.346-1.799zM76.749 42.97a.255.255 0 0 1-.26-.263v-7.303c0-1.386-.671-2.323-1.937-2.323s-1.974.937-1.974 2.323v7.303c0 .15-.112.263-.26.263h-3.129a.255.255 0 0 1-.26-.263V30.535c0-.15.111-.263.26-.263h3.128c.15 0 .261.113.261.263v.898h.037c.559-.786 1.639-1.46 3.24-1.46 2.793 0 4.283 1.947 4.283 4.72v8.014c0 .15-.112.263-.261.263h-3.128zM87.585 43.12c-2.904 0-4.021-1.311-4.021-4.233v-5.768c0-.112-.038-.15-.15-.15h-.781a.255.255 0 0 1-.261-.262v-2.172c0-.15.112-.263.26-.263h.783c.111 0 .149-.037.149-.15v-3.408c0-.15.111-.262.26-.262h3.091c.149 0 .26.112.26.262v3.409c0 .112.038.15.15.15h1.6c.15 0 .262.112.262.262v2.172c0 .15-.112.262-.261.262h-1.601c-.112 0-.15.038-.15.15v5.618c0 .937.299 1.274 1.155 1.274h.633c.15 0 .26.112.26.262v2.584c0 .15-.11.262-.26.262h-1.378zM92.203 28.25a.255.255 0 0 1-.26-.262v-2.585c0-.15.11-.262.26-.262h3.128c.149 0 .26.112.26.262v2.585c0 .15-.111.262-.26.262h-3.128zm0 14.72a.255.255 0 0 1-.26-.263V30.535c0-.15.11-.263.26-.263h3.128c.149 0 .26.113.26.263v12.172c0 .15-.111.263-.26.263h-3.128zM99.613 42.97a.255.255 0 0 1-.26-.263V33.12c0-.112-.038-.15-.15-.15h-.781a.255.255 0 0 1-.26-.262v-2.172c0-.15.11-.263.26-.263h.782c.111 0 .149-.037.149-.15v-.599c0-3.109 1.415-4.382 4.431-4.382h1.415c.15 0 .26.112.26.262v2.472c0 .15-.11.262-.26.262h-.82c-1.153 0-1.414.3-1.414 1.349v.637c0 .112.037.15.149.15h2.048c.149 0 .26.112.26.262v2.172c0 .15-.111.262-.26.262h-2.048c-.112 0-.15.038-.15.15v9.588c0 .15-.11.263-.26.263h-3.09zM107.955 42.97a.255.255 0 0 1-.26-.263V30.535c0-.15.11-.263.26-.263h3.128c.149 0 .26.113.26.263v1.086h.038c.596-1.012 1.75-1.61 3.277-1.61.819 0 1.676.299 2.234.748.112.113.15.225.075.375l-1.453 2.66c-.111.149-.223.149-.372.037-.596-.412-1.192-.6-1.825-.562-1.34.037-1.936 1.049-1.936 2.771v6.705c0 .15-.112.262-.26.262h-3.166v-.037zM125.569 42.97a.255.255 0 0 1-.261-.263v-.824h-.037c-.67.824-1.75 1.386-3.463 1.386-2.235 0-4.208-1.198-4.208-3.895 0-2.81 2.122-4.083 5.25-4.083h2.235c.111 0 .149-.037.149-.15v-.486c0-1.199-.559-1.723-2.57-1.723-1.266 0-2.197.374-2.83.824-.112.112-.26.075-.335-.038l-1.192-2.06c-.074-.15-.037-.3.075-.374 1.08-.75 2.606-1.274 4.692-1.274 4.133 0 5.586 1.423 5.586 4.607v8.128c0 .15-.112.262-.261.262h-2.83v-.037zm-.298-4.233v-.861c0-.113-.037-.15-.15-.15h-1.787c-1.526 0-2.234.45-2.234 1.46 0 .9.633 1.35 1.825 1.35 1.564-.038 2.346-.6 2.346-1.799zM139.57 42.97a.255.255 0 0 1-.26-.263v-.936h-.037c-.67.862-1.639 1.46-3.24 1.46-2.793 0-4.245-1.947-4.245-4.719v-8.015c0-.15.111-.262.26-.262h3.128c.15 0 .261.112.261.262v7.304c0 1.348.67 2.322 1.936 2.322s1.937-.936 1.937-2.322v-7.304c0-.15.111-.262.26-.262h3.128c.15 0 .261.112.261.262V42.67c0 .15-.112.262-.26.262h-3.129v.038zM153.945 42.97a.255.255 0 0 1-.261-.263v-.936h-.037c-.596.862-1.639 1.46-3.315 1.46-2.122 0-3.612-1.048-4.282-3.033-.298-1.011-.447-1.985-.447-3.596 0-1.648.15-2.584.447-3.595.67-2.023 2.16-3.034 4.282-3.034 1.676 0 2.719.599 3.315 1.46h.037v-6.067c0-.15.112-.262.26-.262h3.129c.149 0 .26.112.26.262V42.67c0 .15-.111.262-.26.262h-3.128v.038zm-.485-4.158c.15-.487.224-1.049.224-2.172 0-1.124-.075-1.686-.224-2.173-.297-.936-.968-1.348-1.936-1.348-1.005 0-1.676.45-1.936 1.348-.15.487-.224 1.05-.224 2.173s.075 1.685.224 2.172c.298.899.968 1.349 1.936 1.349s1.639-.487 1.936-1.349zM160.424 39.636c-.26-.786-.447-1.685-.447-3.034 0-1.348.15-2.247.41-3.034.745-2.284 2.718-3.595 5.437-3.595 2.793 0 4.729 1.348 5.437 3.558.26.824.41 1.76.41 3.895 0 .15-.113.262-.299.262h-7.634c-.111 0-.149.038-.149.15.038.262.075.487.15.712.334 1.086 1.303 1.685 2.606 1.685 1.266 0 2.16-.449 2.905-1.123.111-.113.26-.113.372 0l1.713 1.61c.149.113.149.263.037.375-1.191 1.273-3.053 2.135-5.362 2.135-2.867.037-4.841-1.311-5.586-3.596zm7.522-4.345c.112 0 .15-.037.15-.15a3.39 3.39 0 0 0-.112-.936c-.298-.861-1.08-1.386-2.123-1.386-1.043 0-1.825.525-2.123 1.386a3.39 3.39 0 0 0-.111.937c0 .112.037.15.149.15h4.17zM54.704 17.912a.229.229 0 0 1 0-.3l.484-.561a.226.226 0 0 1 .298 0c.819.674 2.01 1.273 3.463 1.273 1.862 0 2.755-.824 2.755-2.06 0-1.086-.484-1.648-2.42-1.873l-1.08-.112c-1.974-.187-3.09-1.161-3.09-2.847 0-1.947 1.414-3.108 3.76-3.108 1.453 0 2.719.487 3.538 1.048a.199.199 0 0 1 .037.3l-.41.524c-.074.113-.186.15-.297.075-.708-.412-1.825-.824-2.942-.824-1.639 0-2.495.712-2.495 1.91 0 1.05.633 1.611 2.458 1.798l1.08.113c2.085.187 3.09 1.198 3.09 2.884 0 2.06-1.415 3.333-4.096 3.333a6.516 6.516 0 0 1-4.133-1.573zM65.875 16.601c-.186-.636-.298-1.386-.298-2.771 0-1.349.112-2.135.298-2.772.596-1.798 2.048-2.772 3.947-2.772 1.937 0 3.39.974 3.985 2.772.223.674.298 1.386.298 2.847 0 .15-.075.224-.26.224H66.88c-.075 0-.15.075-.15.15 0 .899.075 1.386.224 1.873.484 1.423 1.564 2.097 3.016 2.097 1.378 0 2.346-.599 2.98-1.386.074-.112.186-.15.297-.037l.522.487c.111.075.111.187.037.3-.782 1.048-2.123 1.797-3.873 1.797-2.048.038-3.463-.973-4.059-2.809zm6.89-3.52c.074 0 .148-.038.148-.15 0-.637-.074-1.124-.186-1.536-.41-1.31-1.452-2.023-2.867-2.023-1.378 0-2.42.712-2.83 2.023-.15.412-.187.899-.187 1.536 0 .075.038.15.15.15h5.771zM77.717 19.223c-.149 0-.223-.075-.223-.225V8.736c0-.15.074-.225.223-.225h.745c.149 0 .223.075.223.225v1.386h.037c.41-1.05 1.378-1.836 2.868-1.836.856 0 1.638.3 2.16.75.111.074.149.187.037.299l-.447.637c-.074.112-.186.112-.335.037-.484-.3-1.043-.524-1.713-.524-1.862 0-2.607 1.648-2.607 3.633v5.918c0 .15-.074.225-.223.225h-.745v-.038zM86.654 10.196c-.111.075-.26.075-.335-.037l-.372-.562c-.075-.112-.037-.225.074-.3.745-.636 1.9-1.048 3.389-1.048 2.756 0 3.873.936 3.873 3.558v7.154c0 .15-.075.225-.224.225h-.707c-.15 0-.224-.075-.224-.225v-1.124h-.037c-.41.9-1.564 1.573-3.314 1.573-2.16 0-3.575-1.086-3.575-3.183 0-2.135 1.452-3.184 4.059-3.184h2.718c.075 0 .15-.037.15-.15v-1.086c0-1.76-.596-2.472-2.756-2.472-1.34.037-2.086.337-2.719.861zm5.474 5.694v-1.648c0-.075-.037-.15-.149-.15h-2.532c-2.122 0-3.016.711-3.016 2.097 0 1.349.93 2.06 2.644 2.06 1.825.075 3.053-.899 3.053-2.36zM96.448 17.912a.229.229 0 0 1 0-.3l.484-.561a.226.226 0 0 1 .298 0c.82.674 2.011 1.273 3.463 1.273 1.862 0 2.756-.824 2.756-2.06 0-1.086-.484-1.648-2.42-1.873l-1.08-.112c-1.974-.187-3.091-1.161-3.091-2.847 0-1.947 1.415-3.108 3.76-3.108 1.453 0 2.72.487 3.538 1.048a.199.199 0 0 1 .038.3l-.41.524c-.074.113-.186.15-.298.075-.707-.412-1.824-.824-2.942-.824-1.638 0-2.495.712-2.495 1.91 0 1.05.633 1.611 2.458 1.798l1.08.113c2.085.187 3.09 1.198 3.09 2.884 0 2.06-1.414 3.333-4.095 3.333a6.516 6.516 0 0 1-4.134-1.573zM108.886 10.196c-.112.075-.26.075-.335-.037l-.373-.562c-.074-.112-.037-.225.075-.3.745-.636 1.899-1.048 3.388-1.048 2.756 0 3.873.936 3.873 3.558v7.154c0 .15-.074.225-.223.225h-.708c-.149 0-.223-.075-.223-.225v-1.124h-.037c-.41.9-1.564 1.573-3.315 1.573-2.16 0-3.575-1.086-3.575-3.183 0-2.135 1.453-3.184 4.06-3.184h2.718c.074 0 .149-.037.149-.15v-1.086c0-1.76-.596-2.472-2.756-2.472-1.34.037-2.122.337-2.718.861zm5.437 5.694v-1.648c0-.075-.038-.15-.15-.15h-2.532c-2.122 0-3.016.711-3.016 2.097 0 1.349.931 2.06 2.644 2.06 1.825.075 3.054-.899 3.054-2.36z"/>
        </g>
        <path fill="#632678" fill-rule="nonzero" d="M31.541 42.97H11.21C5.176 42.97.26 38.063.26 31.958v-20.45C.26 5.44 5.176.495 11.209.495H31.54c6.033 0 10.948 4.944 10.948 11.011v20.45c0 6.106-4.915 11.013-10.948 11.013zm-4.096-10.563c-.745 0-1.415-.3-1.937-.824l-6.48-6.592 3.874-3.858 4.58 4.645 5.66-5.618a2.84 2.84 0 0 0-2.718-2.06h-1.378V12.63c0-3.858-3.351-7.229-7.187-7.229-3.947 0-7.187 3.259-7.187 7.229v5.468h-1.34a2.837 2.837 0 0 0-2.83 2.847v11.649a2.837 2.837 0 0 0 2.83 2.846h17.055a2.837 2.837 0 0 0 2.83-2.846v-4.907l-3.91 3.858c-.484.6-1.155.861-1.862.861zm-9.906-19.739c0-2.397 1.937-4.344 4.32-4.344 2.458 0 4.32 2.36 4.32 4.344v5.469h-8.677v-5.469h.037zm5.326 10.338l-2.011 2.023 5.548 5.655c.26.3.633.412 1.006.412.372 0 .707-.15 1.005-.412L39.92 19.298l-2.011-2.023-10.501 10.376-4.543-4.645z"/>
    </g>
</svg>
