<svg xmlns="http://www.w3.org/2000/svg" xmlns:xlink="http://www.w3.org/1999/xlink" width="195" height="49" viewBox="0 0 195 49">
    <defs>
        <path id="a" d="M.133.287h12.148v13.668H.133z"/>
        <path id="c" d="M0 .005h43.828v43.748H0z"/>
    </defs>
    <g fill="none" fill-rule="evenodd">
        <path fill="#004E99" d="M60.87 44.295c-2.895 0-4.059-1.27-4.059-4.16V26.036c0-.162.108-.27.27-.27h3.247c.163 0 .27.108.27.27v13.802c0 .892.353 1.243 1.137 1.243h.568c.163 0 .27.108.27.27v2.674c0 .162-.107.27-.27.27H60.87zM65.361 44.133c-.162 0-.27-.108-.27-.27V31.33c0-.162.108-.27.27-.27h3.247c.162 0 .27.108.27.27v12.533c0 .162-.108.27-.27.27H65.36zm0-15.153c-.162 0-.27-.108-.27-.27v-2.674c0-.162.108-.27.27-.27h3.247c.162 0 .27.108.27.27v2.674c0 .162-.108.27-.27.27H65.36zM88.304 44.133c-.162 0-.27-.108-.27-.27v-7.51c0-1.43-.704-2.376-2.057-2.376-1.298 0-2.029.945-2.029 2.377v7.509c0 .162-.108.27-.27.27H80.43c-.162 0-.27-.108-.27-.27v-7.51c0-1.43-.677-2.376-2.03-2.376-1.298 0-2.056.945-2.056 2.377v7.509c0 .162-.108.27-.27.27h-3.247c-.162 0-.27-.108-.27-.27V31.33c0-.162.108-.27.27-.27h3.247c.162 0 .27.108.27.27v.918h.027c.596-.81 1.705-1.485 3.382-1.485 1.596 0 2.76.567 3.517 1.647h.027c.975-1.026 2.273-1.647 4.112-1.647 3.085 0 4.681 1.972 4.681 4.862v8.238c0 .162-.108.27-.27.27h-3.247zM103.186 39.838c.163-.513.244-1.08.244-2.242 0-1.161-.081-1.728-.244-2.241-.298-.946-1-1.405-2.029-1.405-1 0-1.704.46-2.002 1.405-.162.513-.243 1.08-.243 2.241 0 1.162.08 1.73.243 2.242.298.919 1.001 1.405 2.002 1.405 1.028 0 1.731-.486 2.03-1.405zm-7.792 9.157c-.162 0-.27-.108-.27-.27V31.33c0-.162.108-.27.27-.27h3.247c.162 0 .27.108.27.27v.945h.028c.595-.89 1.704-1.512 3.436-1.512 2.191 0 3.76 1.053 4.437 3.133.325 1.027.46 1.999.46 3.7 0 1.675-.135 2.675-.46 3.7-.677 2.054-2.246 3.134-4.437 3.134-1.732 0-2.841-.621-3.436-1.513h-.027v5.808c0 .162-.109.27-.27.27h-3.248zM117.392 39.784v-.891c0-.108-.055-.162-.163-.162h-1.84c-1.596 0-2.326.459-2.326 1.486 0 .918.649 1.377 1.894 1.377 1.623 0 2.435-.595 2.435-1.81zm.324 4.35c-.162 0-.27-.11-.27-.271v-.865h-.027c-.677.865-1.813 1.432-3.598 1.432-2.327 0-4.357-1.215-4.357-3.997 0-2.89 2.192-4.214 5.439-4.214h2.326c.108 0 .163-.054.163-.162v-.487c0-1.215-.595-1.782-2.679-1.782-1.325 0-2.3.378-2.922.837-.135.108-.27.081-.351-.054l-1.218-2.133c-.081-.162-.054-.298.081-.379 1.11-.783 2.706-1.296 4.87-1.296 4.275 0 5.817 1.459 5.817 4.726v8.374c0 .162-.108.27-.27.27h-3.004zM138.848 44.133c-.162 0-.27-.108-.27-.27v-7.51c0-1.43-.677-2.376-2.03-2.376-1.299 0-2.056.945-2.056 2.377v7.509c0 .162-.108.27-.27.27h-3.247c-.162 0-.27-.108-.27-.27V31.33c0-.162.108-.27.27-.27h3.247c.162 0 .27.108.27.27v.918h.027c.595-.81 1.705-1.485 3.382-1.485 2.895 0 4.464 1.998 4.464 4.862v8.238c0 .162-.108.27-.27.27h-3.247zM153.161 39.838c.19-.594.244-1.134.244-2.242 0-1.107-.054-1.647-.244-2.241-.297-.919-1.027-1.405-2.029-1.405-1 0-1.731.486-2.029 1.405-.189.594-.243 1.134-.243 2.241 0 1.108.054 1.648.243 2.242.298.919 1.028 1.405 2.03 1.405 1 0 1.73-.486 2.028-1.405m-7.71.919c-.298-.946-.433-1.864-.433-3.16 0-1.297.135-2.216.433-3.161.758-2.377 2.922-3.673 5.681-3.673 2.76 0 4.924 1.296 5.682 3.673.298.945.433 1.864.433 3.16 0 1.297-.135 2.215-.433 3.16-.758 2.378-2.922 3.674-5.682 3.674-2.76 0-4.923-1.296-5.68-3.673M176.024 44.133c-.162 0-.27-.108-.27-.27v-7.51c0-1.43-.704-2.376-2.057-2.376-1.298 0-2.029.945-2.029 2.377v7.509c0 .162-.108.27-.27.27h-3.247c-.162 0-.27-.108-.27-.27v-7.51c0-1.43-.676-2.376-2.03-2.376-1.298 0-2.056.945-2.056 2.377v7.509c0 .162-.108.27-.27.27h-3.246c-.163 0-.271-.108-.271-.27V31.33c0-.162.108-.27.27-.27h3.247c.162 0 .27.108.27.27v.918h.028c.595-.81 1.704-1.485 3.382-1.485 1.596 0 2.759.567 3.516 1.647h.028c.974-1.026 2.272-1.647 4.112-1.647 3.085 0 4.68 1.972 4.68 4.862v8.238c0 .162-.108.27-.27.27h-3.247z"/>
        <g transform="translate(182.062 30.475)">
            <mask id="b" fill="#fff">
                <use xlink:href="#a"/>
            </mask>
            <path fill="#004E99" d="M8.385 5.744c.108 0 .162-.055.162-.162 0-.406-.054-.703-.135-.973-.297-.89-1.109-1.431-2.191-1.431-1.082 0-1.894.54-2.192 1.431-.081.27-.135.567-.135.973 0 .107.054.162.162.162h4.329zM.593 10.227c-.27-.81-.46-1.756-.46-3.106 0-1.377.162-2.323.433-3.133.758-2.35 2.841-3.7 5.628-3.7 2.895 0 4.897 1.377 5.654 3.673.27.864.433 1.81.433 4.025 0 .161-.108.27-.297.27H4.056c-.108 0-.162.053-.162.162.027.27.081.513.162.729.352 1.134 1.353 1.729 2.706 1.729 1.298 0 2.245-.46 3.003-1.162.135-.108.27-.135.379 0l1.785 1.675c.136.108.136.27.027.378-1.244 1.324-3.165 2.188-5.573 2.188-2.976 0-5.032-1.378-5.79-3.728z" mask="url(#b)"/>
        </g>
        <path fill="#004E99" d="M56.436 18.343a.223.223 0 0 1 0-.324l.51-.579c.093-.092.232-.07.325 0 .858.695 2.088 1.297 3.595 1.297 1.925 0 2.876-.857 2.876-2.13 0-1.111-.487-1.713-2.528-1.945l-1.114-.115c-2.063-.208-3.223-1.204-3.223-2.94 0-2.014 1.461-3.218 3.896-3.218 1.508 0 2.806.486 3.688 1.065a.228.228 0 0 1 .046.324l-.418.556c-.07.115-.208.139-.324.07-.72-.418-1.902-.857-3.061-.857-1.693 0-2.575.74-2.575 1.967 0 1.088.673 1.667 2.551 1.852l1.113.116c2.157.208 3.201 1.25 3.201 2.963 0 2.106-1.484 3.45-4.244 3.45a6.695 6.695 0 0 1-4.314-1.552M75.175 13.366c.093 0 .14-.046.14-.139 0-.671-.07-1.157-.21-1.597-.44-1.366-1.507-2.083-2.968-2.083-1.438 0-2.504.717-2.945 2.083-.14.44-.209.926-.209 1.597 0 .093.047.14.14.14h6.052zm-7.143 3.611c-.208-.67-.324-1.435-.324-2.847 0-1.389.116-2.2.324-2.87.603-1.852 2.11-2.87 4.105-2.87 1.995 0 3.525 1.018 4.128 2.87.232.694.325 1.412.325 2.94 0 .138-.093.231-.255.231h-7.213c-.092 0-.139.07-.139.162 0 .926.07 1.435.232 1.945.51 1.458 1.624 2.152 3.13 2.152 1.439 0 2.436-.602 3.085-1.412.093-.115.21-.138.325-.046l.534.486c.116.093.116.208.023.324-.812 1.088-2.204 1.852-4.036 1.852-2.157 0-3.617-1.019-4.244-2.917zM80.324 19.663c-.139 0-.232-.093-.232-.232V8.852c0-.139.093-.231.232-.231h.789c.139 0 .232.092.232.231v1.412h.023c.417-1.088 1.415-1.875 2.968-1.875.882 0 1.693.301 2.227.764.116.07.14.185.046.301l-.463.648c-.094.116-.21.116-.348.046-.511-.324-1.067-.555-1.763-.555-1.948 0-2.69 1.69-2.69 3.727v6.111c0 .139-.093.232-.232.232h-.789zM95.26 16.26v-1.69c0-.093-.046-.14-.139-.14h-2.644c-2.203 0-3.13.718-3.13 2.177 0 1.389.974 2.13 2.736 2.13 1.902 0 3.177-.973 3.177-2.477m-5.658-5.88c-.116.093-.255.093-.348-.023l-.395-.579c-.07-.116-.046-.231.07-.324.789-.671 1.971-1.065 3.525-1.065 2.876 0 4.035.95 4.035 3.658v7.384c0 .139-.092.232-.231.232h-.743c-.139 0-.232-.093-.232-.232v-1.157h-.023c-.44.926-1.623 1.62-3.432 1.62-2.226 0-3.71-1.111-3.71-3.264 0-2.2 1.507-3.264 4.197-3.264h2.806c.093 0 .14-.046.14-.139v-1.134c0-1.806-.627-2.546-2.876-2.546-1.345 0-2.134.3-2.783.833M99.76 18.343a.224.224 0 0 1 0-.324l.51-.579c.093-.092.231-.07.324 0 .858.695 2.088 1.297 3.595 1.297 1.925 0 2.876-.857 2.876-2.13 0-1.111-.487-1.713-2.528-1.945l-1.114-.115c-2.063-.208-3.223-1.204-3.223-2.94 0-2.014 1.461-3.218 3.896-3.218 1.508 0 2.806.486 3.688 1.065a.228.228 0 0 1 .046.324l-.417.556c-.07.115-.209.139-.325.07-.719-.418-1.902-.857-3.061-.857-1.693 0-2.575.74-2.575 1.967 0 1.088.673 1.667 2.551 1.852l1.113.116c2.157.208 3.201 1.25 3.201 2.963 0 2.106-1.484 3.45-4.244 3.45a6.695 6.695 0 0 1-4.314-1.552M118.313 16.26v-1.69c0-.093-.046-.14-.14-.14h-2.643c-2.203 0-3.131.718-3.131 2.177 0 1.389.974 2.13 2.737 2.13 1.901 0 3.177-.973 3.177-2.477m-5.659-5.88c-.116.093-.255.093-.348-.023l-.394-.579c-.07-.116-.047-.231.07-.324.788-.671 1.971-1.065 3.525-1.065 2.876 0 4.035.95 4.035 3.658v7.384c0 .139-.093.232-.232.232h-.742c-.14 0-.232-.093-.232-.232v-1.157h-.023c-.44.926-1.624 1.62-3.433 1.62-2.226 0-3.71-1.111-3.71-3.264 0-2.2 1.508-3.264 4.198-3.264h2.806c.093 0 .139-.046.139-.139v-1.134c0-1.806-.626-2.546-2.876-2.546-1.345 0-2.134.3-2.783.833"/>
        <g transform="translate(0 .38)">
            <mask id="d" fill="#fff">
                <use xlink:href="#c"/>
            </mask>
            <path fill="#209CD7" d="M21.914 36.097c-7.485 0-13.636-5.795-14.198-13.125h2.195c.555 6.123 5.726 10.937 12.003 10.937s11.448-4.814 12.004-10.937h2.194c-.562 7.33-6.712 13.125-14.198 13.125M15.34 10.942c1.21 0 2.192.98 2.192 2.188a2.19 2.19 0 0 1-2.192 2.187 2.19 2.19 0 0 1-2.191-2.187 2.19 2.19 0 0 1 2.19-2.188m13.15 0c1.21 0 2.19.98 2.19 2.188a2.19 2.19 0 0 1-2.19 2.187 2.19 2.19 0 0 1-2.192-2.187 2.19 2.19 0 0 1 2.191-2.188M32.871.005H10.957C4.931.005 0 4.927 0 10.942v21.874c0 6.015 4.93 10.937 10.957 10.937h21.914c6.027 0 10.957-4.922 10.957-10.937V10.942c0-6.015-4.93-10.937-10.957-10.937" mask="url(#d)"/>
        </g>
    </g>
</svg>
