<svg xmlns="http://www.w3.org/2000/svg" width="132" height="44" viewBox="0 0 132 44">
    <g fill="none" fill-rule="nonzero">
        <path fill="#26478D" d="M56.402 40.26c-.269-.81-.46-1.734-.46-3.121s.153-2.312.421-3.12c.767-2.35 2.838-3.7 5.598-3.7 2.876 0 4.87 1.388 5.598 3.66.269.848.422 1.812.422 4.008 0 .154-.115.27-.307.27h-7.86c-.115 0-.153.038-.153.153.038.27.077.501.153.732.345 1.118 1.342 1.734 2.684 1.734 1.304 0 2.224-.462 2.991-1.156.153-.115.268-.115.383 0l1.764 1.657c.154.115.154.27.038.385-1.226 1.31-3.144 2.196-5.52 2.196-2.992 0-5.024-1.348-5.752-3.698zm7.707-4.508c.115 0 .153-.038.153-.154 0-.385-.038-.693-.153-.963-.307-.886-1.112-1.426-2.186-1.426-1.073 0-1.879.54-2.185 1.426-.077.27-.154.578-.154.963 0 .116.039.154.154.154h4.37zm14.685 7.936a.263.263 0 0 1-.269-.27v-7.512c0-1.425-.69-2.388-1.993-2.388-1.304 0-2.033.963-2.033 2.388v7.513c0 .154-.115.27-.268.27h-3.22a.263.263 0 0 1-.27-.27V30.898c0-.154.116-.27.27-.27h3.22c.153 0 .268.116.268.27v.924h.039c.575-.809 1.687-1.502 3.336-1.502 2.875 0 4.409 2.003 4.409 4.854v8.245c0 .154-.115.27-.268.27h-3.221zm5.981-1.733c-.115-.116-.115-.27 0-.386l1.726-1.964c.115-.116.23-.116.383 0 1.15.886 2.646 1.425 3.988 1.425 1.38 0 1.993-.5 1.993-1.233 0-.616-.345-1.001-1.84-1.117l-1.457-.154c-2.722-.27-4.256-1.657-4.256-4.007 0-2.581 1.955-4.2 5.33-4.2 2.185 0 4.064.694 5.253 1.619.115.116.153.27.038.424l-1.495 1.849c-.115.154-.23.154-.384.039-.882-.578-2.185-1.04-3.527-1.04-1.112 0-1.65.423-1.65 1.078 0 .578.308.963 1.803 1.079l1.419.154c3.067.308 4.332 1.772 4.332 3.968-.038 2.658-2.108 4.47-5.79 4.47-2.683 0-4.639-.926-5.866-2.004zm14.609-13.407a.263.263 0 0 1-.269-.27V25.62c0-.154.115-.27.269-.27h3.22c.154 0 .269.116.269.27v2.658c0 .154-.115.27-.269.27h-3.22zm0 15.14a.263.263 0 0 1-.269-.27v-12.52c0-.154.115-.27.269-.27h3.22c.154 0 .269.116.269.27v12.52c0 .155-.115.27-.269.27h-3.22zm14.953 0a.263.263 0 0 1-.268-.27v-7.512c0-1.425-.69-2.388-1.994-2.388s-2.032.963-2.032 2.388v7.513c0 .154-.115.27-.268.27h-3.221a.263.263 0 0 1-.269-.27V30.898c0-.154.115-.27.269-.27h3.22c.154 0 .269.116.269.27v.924h.038c.575-.809 1.687-1.502 3.336-1.502 2.876 0 4.41 2.003 4.41 4.854v8.245c0 .154-.116.27-.269.27h-3.22zm14.379 0a.263.263 0 0 1-.269-.27v-.847h-.038c-.69.848-1.802 1.426-3.566 1.426-2.3 0-4.333-1.195-4.333-4.007 0-2.89 2.186-4.2 5.407-4.2h2.3c.115 0 .154-.038.154-.154v-.5c0-1.195-.576-1.773-2.646-1.773-1.304 0-2.262.386-2.914.848-.153.116-.268.077-.345-.038l-1.227-2.12c-.077-.154-.038-.308.077-.385 1.112-.77 2.684-1.31 4.83-1.31 4.257 0 5.752 1.464 5.752 4.74v8.36c0 .153-.115.269-.268.269h-2.914v-.039zm-.307-4.353v-.886c0-.116-.038-.154-.153-.154h-1.84c-1.573 0-2.301.462-2.301 1.464 0 .924.651 1.387 1.878 1.387 1.61 0 2.416-.617 2.416-1.811zm-72.276-21.42a.235.235 0 0 1 0-.309l.499-.578a.232.232 0 0 1 .307 0c.843.694 2.07 1.31 3.565 1.31 1.918 0 2.838-.847 2.838-2.119 0-1.117-.499-1.695-2.492-1.926l-1.112-.115c-2.033-.193-3.183-1.195-3.183-2.928 0-2.004 1.457-3.198 3.873-3.198 1.495 0 2.799.5 3.642 1.079a.204.204 0 0 1 .039.308l-.422.54c-.077.115-.192.153-.307.076-.728-.424-1.879-.847-3.029-.847-1.687 0-2.569.732-2.569 1.965 0 1.078.652 1.656 2.53 1.849l1.113.115c2.147.193 3.182 1.233 3.182 2.967 0 2.119-1.457 3.429-4.218 3.429a7.035 7.035 0 0 1-4.256-1.618zm11.503-1.349c-.192-.655-.307-1.425-.307-2.85 0-1.388.115-2.197.307-2.852.614-1.849 2.109-2.85 4.064-2.85 1.994 0 3.49 1.001 4.103 2.85.23.694.307 1.426.307 2.928 0 .154-.077.231-.269.231h-7.17c-.076 0-.153.077-.153.155 0 .924.077 1.425.23 1.926.499 1.464 1.61 2.157 3.106 2.157 1.418 0 2.415-.616 3.067-1.425.077-.116.192-.154.307-.039l.537.501c.115.077.115.193.038.308-.805 1.08-2.185 1.85-3.988 1.85-2.108 0-3.527-1.002-4.179-2.89zm7.094-3.621c.076 0 .153-.039.153-.154 0-.655-.077-1.156-.192-1.58-.422-1.348-1.495-2.08-2.952-2.08-1.419 0-2.492.732-2.914 2.08-.154.424-.192.925-.192 1.58 0 .077.038.154.153.154h5.944zm5.1 6.28c-.154 0-.231-.078-.231-.232V8.437c0-.154.077-.231.23-.231h.767c.153 0 .23.077.23.231v1.426h.038c.422-1.08 1.419-1.888 2.953-1.888.882 0 1.687.308 2.224.77.115.077.153.193.038.309l-.46.655c-.077.115-.192.115-.345.038-.499-.308-1.074-.54-1.764-.54-1.917 0-2.684 1.696-2.684 3.738v6.087c0 .154-.077.231-.23.231h-.767v-.039zm9.201-9.247c-.115.077-.268.077-.345-.038l-.383-.578c-.077-.116-.039-.231.076-.308.767-.655 1.956-1.08 3.49-1.08 2.837 0 3.987.964 3.987 3.66v7.36c0 .153-.076.23-.23.23h-.728c-.154 0-.23-.077-.23-.23v-1.156h-.039c-.422.924-1.61 1.618-3.412 1.618-2.224 0-3.681-1.118-3.681-3.275 0-2.196 1.495-3.275 4.18-3.275h2.798c.077 0 .154-.038.154-.154v-1.117c0-1.81-.614-2.543-2.838-2.543-1.342.039-2.147.347-2.799.886zm5.637 5.856V14.14c0-.077-.039-.154-.154-.154h-2.607c-2.186 0-3.106.732-3.106 2.157 0 1.387.959 2.12 2.723 2.12 1.878.038 3.144-.925 3.144-2.428zm4.447 2.08a.235.235 0 0 1 0-.308l.499-.578a.232.232 0 0 1 .307 0c.843.694 2.07 1.31 3.565 1.31 1.917 0 2.838-.847 2.838-2.119 0-1.117-.499-1.695-2.493-1.926l-1.111-.115c-2.033-.193-3.183-1.195-3.183-2.928 0-2.004 1.457-3.198 3.873-3.198 1.495 0 2.799.5 3.642 1.079a.204.204 0 0 1 .039.308l-.422.54c-.077.115-.192.153-.307.076-.728-.424-1.879-.847-3.029-.847-1.687 0-2.569.732-2.569 1.965 0 1.078.652 1.656 2.53 1.849l1.113.115c2.147.193 3.182 1.233 3.182 2.967 0 2.119-1.457 3.429-4.218 3.429-1.955-.077-3.412-.886-4.256-1.618zm12.807-7.936c-.115.077-.269.077-.345-.038l-.384-.578c-.076-.116-.038-.231.077-.308.767-.655 1.955-1.08 3.49-1.08 2.836 0 3.987.964 3.987 3.66v7.36c0 .153-.077.23-.23.23h-.729c-.153 0-.23-.077-.23-.23v-1.156h-.038c-.422.924-1.61 1.618-3.413 1.618-2.224 0-3.68-1.118-3.68-3.275 0-2.196 1.495-3.275 4.179-3.275h2.799c.076 0 .153-.038.153-.154v-1.117c0-1.81-.613-2.543-2.837-2.543-1.38.039-2.147.347-2.8.886zm5.598 5.856V14.14c0-.077-.039-.154-.154-.154h-2.607c-2.185 0-3.106.732-3.106 2.157 0 1.387.959 2.12 2.723 2.12 1.878.038 3.144-.925 3.144-2.428z"/>
        <path fill="#CD2080" d="M32.668 0c5.981 0 10.89 4.893 10.85 10.903v21.844c0 5.972-4.869 10.903-10.85 10.903h-21.74C4.985 43.65.077 38.757.077 32.747V10.903C.077 4.93 4.947 0 10.927 0h21.74zm5.483 25.658c.422-1.04.422-2.157-.039-3.12-.076-.077-.153-.193-.268-.231-.038-.039-.077-.039-.153-.039-.077 0-.115 0-.192.039l-.959.423c-.23.116-.345.386-.23.617.192.5.192 1.078 0 1.618-.076.154-.153.308-.268.462v-.193c-.92-5.278-5.56-10.787-11.695-10.787h-4.869c-2.224 0-4.371.617-6.25 1.81l-2.147-1.925a.434.434 0 0 0-.307-.116c-.076 0-.115 0-.191.039a.474.474 0 0 0-.269.423v4.123a12.54 12.54 0 0 0-2.185 4.045H5.636a.444.444 0 0 0-.46.462v6.164c0 .27.192.463.46.463H8.13c.766 2.504 2.377 4.7 4.562 6.24v3.584c0 .27.192.462.46.462h4.717c.268 0 .46-.193.46-.462v-1.503c.383.039.767.039 1.15.039h4.87c.383 0 .766-.039 1.15-.077v1.502c0 .27.191.463.46.463h4.716c.268 0 .46-.193.46-.463v-3.583c2.569-1.81 4.371-4.584 4.908-7.666v-.617a3.943 3.943 0 0 0 2.109-2.196zm-13.804-9.362c5.1 0 9.011 4.624 9.854 9.131V28.24c-.498 2.696-2.147 5.123-4.486 6.626l-.23.154a.424.424 0 0 0-.23.385v2.928h-1.878V36.6c0-.116-.039-.27-.154-.347-.115-.077-.192-.116-.307-.116h-.076l-.575.116c-.652.115-1.266.193-1.918.193h-4.869c-.652 0-1.265-.078-1.917-.193l-.575-.116h-.077a.434.434 0 0 0-.307.116.49.49 0 0 0-.153.347v1.733H14.57v-2.928c0-.154-.115-.308-.23-.385l-.23-.154c-2.185-1.425-3.758-3.583-4.371-6.126l-.077-.385c-.076-.193-.23-.347-.46-.347H7.055v-3.274h2.147c.23 0 .422-.154.46-.347l.077-.385a10.262 10.262 0 0 1 2.224-4.238l.115-.154a.439.439 0 0 0 .115-.309v-1.463l.613.539a.434.434 0 0 0 .307.115c.077 0 .192 0 .269-.077l.306-.23a9.817 9.817 0 0 1 5.79-1.889h4.87zm-10.084 8.938a1.28 1.28 0 0 0 1.266-1.27 1.28 1.28 0 0 0-1.266-1.272 1.28 1.28 0 0 0-1.265 1.271 1.28 1.28 0 0 0 1.265 1.271zM25 19.841c.384 0 .69-.308.69-.694a.689.689 0 0 0-.69-.693h-5.904a.689.689 0 0 0-.69.693c0 .386.306.694.69.694h5.904zM22.085 3.467a4.823 4.823 0 0 0-4.83 4.855c0 2.696 2.185 4.854 4.83 4.854 2.684 0 4.831-2.196 4.831-4.854 0-2.697-2.185-4.855-4.83-4.855zm0 7.783c-1.648 0-2.952-1.31-2.914-2.928a2.92 2.92 0 0 1 2.914-2.928A2.92 2.92 0 0 1 25 8.322a2.92 2.92 0 0 1-2.914 2.928z"/>
    </g>
</svg>
