<svg xmlns="http://www.w3.org/2000/svg" width="86" height="32" viewBox="0 0 86 32">
    <g fill="none" fill-rule="evenodd">
        <path fill="#26478D" fill-rule="nonzero" d="M40.264 30.233c-.082-.083-.082-.193 0-.276l1.24-1.405c.083-.083.166-.083.276 0 .827.633 1.902 1.02 2.866 1.02.992 0 1.433-.359 1.433-.883 0-.44-.248-.716-1.322-.799l-1.048-.11c-1.956-.193-3.059-1.185-3.059-2.866 0-1.847 1.406-3.004 3.831-3.004 1.57 0 2.921.496 3.776 1.157.082.083.11.193.027.276l-1.075 1.323c-.082.11-.165.11-.275.027a4.829 4.829 0 0 0-2.536-.744c-.799 0-1.185.303-1.185.772 0 .413.22.689 1.296.772l1.02.11c2.204.22 3.113 1.267 3.113 2.838-.027 1.902-1.515 3.197-4.161 3.197-1.93.055-3.335-.634-4.217-1.405zM50.406 29.048c-.193-.551-.303-1.268-.303-2.233 0-.992.11-1.68.303-2.232.551-1.736 2.067-2.646 4.024-2.646 1.598 0 2.866.744 3.528 1.764.055.11.055.193-.028.276l-1.681 1.102c-.11.083-.22.055-.276-.027-.413-.552-.799-.8-1.488-.8-.716 0-1.24.331-1.433.992-.138.386-.165.827-.165 1.599s.027 1.213.165 1.598c.22.69.744.993 1.433.993.689 0 1.075-.249 1.488-.8.083-.11.166-.11.276-.027l1.681 1.102c.083.083.083.165.028.276-.69 1.02-1.93 1.764-3.528 1.764-1.957-.056-3.445-.965-4.024-2.701zM59.363 29.048c-.22-.69-.303-1.323-.303-2.26 0-.937.11-1.571.303-2.26.551-1.709 2.095-2.618 4.051-2.618 1.957 0 3.5.937 4.052 2.618.22.689.303 1.323.303 2.26 0 .937-.083 1.57-.303 2.26-.552 1.708-2.095 2.618-4.052 2.618-1.956.027-3.5-.91-4.05-2.618zm5.512-.634c.138-.414.165-.8.165-1.599 0-.799-.027-1.185-.165-1.598-.22-.661-.744-.992-1.433-.992-.717 0-1.24.358-1.433.992-.138.413-.166.8-.166 1.598 0 .8.028 1.185.166 1.599.22.661.744.992 1.433.992.689 0 1.212-.358 1.433-.992zM69.946 31.473a.188.188 0 0 1-.193-.193v-8.957c0-.11.083-.193.193-.193h2.315c.11 0 .193.083.193.193v.8h.027c.441-.745 1.296-1.186 2.426-1.186.606 0 1.24.22 1.626.552.082.082.11.165.055.275l-1.075 1.957c-.083.11-.165.11-.276.027-.44-.303-.882-.44-1.35-.413-.992.028-1.433.772-1.433 2.04v4.933c0 .11-.083.192-.193.192h-2.315v-.027zM77.47 29.02c-.193-.579-.331-1.268-.331-2.232 0-.992.11-1.654.303-2.232.551-1.682 2.012-2.646 4.024-2.646 2.067 0 3.5.992 4.023 2.618.193.606.304 1.295.304 2.866 0 .11-.083.193-.22.193h-5.65c-.083 0-.11.028-.11.11.027.193.054.359.11.524.247.8.964 1.24 1.929 1.24.937 0 1.598-.33 2.15-.827.11-.082.192-.11.275 0l1.268 1.185a.212.212 0 0 1 .027.276c-.882.937-2.26 1.57-3.968 1.57-2.123.028-3.583-.964-4.134-2.645zm5.567-3.197c.082 0 .11-.027.11-.11a2.35 2.35 0 0 0-.083-.689c-.22-.634-.799-1.02-1.57-1.02-.772 0-1.351.386-1.572 1.02-.055.193-.11.413-.11.689 0 .083.028.11.11.11h3.115zM40.54 13.036a.168.168 0 0 1 0-.22l.358-.414a.168.168 0 0 1 .22 0c.607.496 1.489.937 2.564.937 1.378 0 2.04-.607 2.04-1.516 0-.8-.36-1.213-1.792-1.378l-.8-.083c-1.46-.137-2.287-.854-2.287-2.094 0-1.433 1.047-2.288 2.784-2.288 1.074 0 2.011.359 2.618.772a.146.146 0 0 1 .027.22l-.303.386c-.055.083-.138.11-.22.056-.524-.304-1.35-.607-2.178-.607-1.212 0-1.846.524-1.846 1.406 0 .771.469 1.185 1.819 1.323l.8.082c1.542.138 2.287.882 2.287 2.122 0 1.516-1.048 2.453-3.032 2.453a4.838 4.838 0 0 1-3.059-1.157zM48.808 12.071c-.138-.468-.22-1.02-.22-2.04 0-.991.082-1.57.22-2.039.44-1.323 1.516-2.04 2.921-2.04 1.433 0 2.508.717 2.949 2.04.165.496.22 1.02.22 2.095 0 .11-.055.165-.192.165h-5.154a.119.119 0 0 0-.11.11c0 .662.055 1.02.165 1.378.358 1.048 1.158 1.544 2.232 1.544 1.02 0 1.737-.441 2.205-1.02.055-.083.138-.11.22-.028l.386.359c.083.055.083.137.028.22-.579.772-1.57 1.323-2.866 1.323-1.516.028-2.563-.717-3.004-2.067zm5.098-2.59c.055 0 .11-.028.11-.11 0-.47-.055-.828-.137-1.13-.303-.965-1.075-1.489-2.122-1.489-1.02 0-1.792.524-2.095 1.488-.11.303-.138.662-.138 1.13 0 .055.028.11.11.11h4.272zM57.572 14c-.11 0-.166-.055-.166-.165V6.284c0-.11.055-.166.166-.166h.55c.111 0 .166.055.166.166v1.02h.028c.303-.772 1.02-1.351 2.122-1.351.634 0 1.213.22 1.598.551.083.055.11.138.028.22l-.33.441c-.056.083-.139.083-.249.028-.358-.22-.772-.386-1.268-.386-1.378 0-1.929 1.213-1.929 2.673v4.355c0 .11-.055.165-.165.165h-.551zM64.186 7.358c-.083.056-.193.056-.248-.027l-.276-.414c-.055-.082-.027-.165.055-.22.552-.469 1.406-.772 2.508-.772 2.04 0 2.867.69 2.867 2.618v5.264c0 .11-.056.166-.166.166h-.523c-.11 0-.166-.055-.166-.166v-.826h-.027c-.303.661-1.158 1.157-2.453 1.157-1.599 0-2.646-.8-2.646-2.343 0-1.57 1.075-2.342 3.004-2.342h2.012c.055 0 .11-.028.11-.11v-.8c0-1.295-.44-1.818-2.04-1.818-.991.027-1.543.248-2.011.633zm4.024 4.19v-1.213c0-.055-.028-.11-.11-.11h-1.875c-1.57 0-2.232.523-2.232 1.543 0 .992.689 1.516 1.957 1.516 1.35.055 2.26-.662 2.26-1.737zM71.434 13.036a.168.168 0 0 1 0-.22l.358-.414a.168.168 0 0 1 .22 0c.607.496 1.49.937 2.564.937 1.378 0 2.04-.607 2.04-1.516 0-.8-.359-1.213-1.792-1.378l-.8-.083c-1.46-.137-2.287-.854-2.287-2.094 0-1.433 1.048-2.288 2.784-2.288 1.075 0 2.012.359 2.618.772a.146.146 0 0 1 .027.22l-.303.386c-.055.083-.137.11-.22.056-.524-.304-1.35-.607-2.177-.607-1.213 0-1.847.524-1.847 1.406 0 .771.469 1.185 1.82 1.323l.798.082c1.544.138 2.288.882 2.288 2.122 0 1.516-1.048 2.453-3.032 2.453a4.838 4.838 0 0 1-3.059-1.157zM80.611 7.358c-.082.056-.192.056-.248-.027l-.275-.414c-.055-.082-.028-.165.055-.22.551-.469 1.405-.772 2.508-.772 2.04 0 2.866.69 2.866 2.618v5.264c0 .11-.055.166-.165.166h-.524c-.11 0-.165-.055-.165-.166v-.826h-.028c-.303.661-1.157 1.157-2.453 1.157-1.598 0-2.645-.8-2.645-2.343 0-1.57 1.074-2.342 3.004-2.342h2.011c.056 0 .11-.028.11-.11v-.8c0-1.295-.44-1.818-2.039-1.818-.964.027-1.543.248-2.012.633zm4.052 4.19v-1.213c0-.055-.028-.11-.11-.11h-1.875c-1.57 0-2.232.523-2.232 1.543 0 .992.689 1.516 1.957 1.516 1.35.055 2.26-.662 2.26-1.737z"/>
        <path fill="#B6BD0D" d="M27.558 20.744a11.652 11.652 0 0 1-.663 2.449.507.507 0 0 1-.737.249l-1.806-1.11a.507.507 0 0 1-.213-.592 8.619 8.619 0 0 0-2.43-9.28.705.705 0 0 1-.17-.835l.778-1.614a.705.705 0 0 1 1.08-.239 11.498 11.498 0 0 1 4.01 6.482c.33 1.508.381 3.018.15 4.49m-6.164-4.05L17.2 22.398a1.75 1.75 0 1 1-2.446-2.446l5.703-4.195a.67.67 0 0 1 .937.937M7.338 18.85a8.652 8.652 0 0 0 .473 2.885.504.504 0 0 1-.212.597l-1.804 1.109a.508.508 0 0 1-.738-.25 11.705 11.705 0 0 1-.805-4.277c0-3.131 1.22-6.075 3.433-8.29a11.647 11.647 0 0 1 8.29-3.433c.846 0 1.706.09 2.556.269.684.143 1.345.347 1.977.606.375.153.54.591.365.956l-.745 1.545a.701.701 0 0 1-.894.349 8.587 8.587 0 0 0-3.258-.639h-.057c-4.698.032-8.547 3.878-8.58 8.573M23.97 0H7.98C3.582 0 0 3.61 0 7.98v15.99c0 4.4 3.61 7.981 7.98 7.981h15.99c4.4 0 7.981-3.61 7.981-7.98V7.98C31.979 3.61 28.37 0 23.971 0"/>
    </g>
</svg>
