<svg xmlns="http://www.w3.org/2000/svg" width="259" height="49" viewBox="0 0 259 49">
    <g fill="none" fill-rule="nonzero">
        <g fill="#26478D">
            <path d="M56.133 39.828c-.271-.762-.427-1.752-.427-3.085 0-1.37.156-2.323.427-3.084.776-2.4 2.91-3.656 5.666-3.656 2.25 0 4.035 1.028 4.966 2.437.078.153.078.267-.039.381l-2.366 1.523c-.156.114-.31.076-.389-.038-.582-.761-1.125-1.104-2.095-1.104-1.009 0-1.746.457-2.018 1.37-.194.534-.232 1.143-.232 2.21 0 1.065.038 1.675.232 2.208.31.952 1.048 1.37 2.018 1.37.931 0 1.513-.342 2.095-1.104.117-.114.233-.152.389-.038l2.366 1.523c.117.115.117.229.04.381-.932 1.41-2.717 2.437-4.967 2.437-2.755-.076-4.89-1.332-5.666-3.731zM76.815 43.179a.263.263 0 0 1-.271-.267v-.838h-.04c-.698.838-1.823 1.41-3.608 1.41-2.328 0-4.385-1.22-4.385-3.961 0-2.856 2.212-4.15 5.472-4.15h2.328c.116 0 .155-.039.155-.153v-.495c0-1.218-.582-1.752-2.677-1.752-1.32 0-2.29.381-2.95.838-.155.114-.271.076-.349-.038l-1.203-2.094c-.077-.153-.038-.305.078-.381 1.125-.762 2.716-1.295 4.89-1.295 4.306 0 5.82 1.447 5.82 4.684v8.225a.263.263 0 0 1-.272.267h-2.988zm-.31-4.303V38c0-.114-.039-.153-.155-.153h-1.863c-1.59 0-2.328.457-2.328 1.486 0 .913.66 1.37 1.901 1.37 1.63-.038 2.445-.609 2.445-1.827zM91.483 43.179a.263.263 0 0 1-.272-.267v-.952h-.039c-.62.876-1.707 1.485-3.453 1.485-2.212 0-3.764-1.066-4.463-3.084-.31-1.028-.465-2.018-.465-3.656 0-1.675.155-2.627.465-3.655.699-2.057 2.251-3.085 4.463-3.085 1.746 0 2.832.61 3.453 1.485h.039v-6.169c0-.152.116-.266.272-.266h3.26c.154 0 .27.114.27.266v17.631a.263.263 0 0 1-.27.267h-3.26zm-.544-4.227c.156-.495.233-1.066.233-2.209 0-1.142-.077-1.713-.233-2.208-.31-.952-1.008-1.371-2.017-1.371-1.048 0-1.746.457-2.018 1.37-.155.496-.233 1.067-.233 2.21 0 1.142.078 1.713.233 2.208.31.914 1.009 1.37 2.018 1.37 1.047 0 1.746-.494 2.017-1.37zM106.15 43.179a.263.263 0 0 1-.272-.267v-.838h-.038c-.66.838-1.824 1.41-3.609 1.41-2.328 0-4.385-1.22-4.385-3.961 0-2.856 2.212-4.15 5.472-4.15h2.328c.116 0 .155-.039.155-.153v-.495c0-1.218-.582-1.752-2.678-1.752-1.319 0-2.289.381-2.949.838-.155.114-.271.076-.349-.038l-1.203-2.094c-.077-.153-.038-.305.078-.381 1.125-.762 2.716-1.295 4.89-1.295 4.306 0 5.82 1.447 5.82 4.684v8.225a.263.263 0 0 1-.272.267h-2.988zm-.35-4.303V38c0-.114-.038-.153-.154-.153h-1.863c-1.59 0-2.328.457-2.328 1.486 0 .913.66 1.37 1.901 1.37 1.63-.038 2.445-.609 2.445-1.827zM111.97 41.465c-.116-.114-.116-.267 0-.38l1.747-1.943c.116-.114.232-.114.388 0 1.164.876 2.677 1.41 4.035 1.41 1.397 0 2.018-.496 2.018-1.22 0-.609-.35-.99-1.863-1.104l-1.474-.152c-2.755-.267-4.307-1.637-4.307-3.96 0-2.552 1.979-4.15 5.393-4.15 2.212 0 4.113.685 5.316 1.598.117.115.156.267.04.381l-1.514 1.828c-.117.152-.233.152-.388.038-.893-.571-2.212-1.028-3.57-1.028-1.125 0-1.669.419-1.669 1.066 0 .571.31.952 1.824 1.066l1.436.153c3.104.304 4.385 1.751 4.385 3.922-.04 2.627-2.135 4.417-5.86 4.417-2.716.076-4.695-.876-5.936-1.942zM130.945 43.33c-3.027 0-4.19-1.332-4.19-4.302v-5.864c0-.114-.04-.153-.156-.153h-.815a.263.263 0 0 1-.271-.266v-2.209c0-.152.116-.266.271-.266h.815c.117 0 .155-.038.155-.153v-3.465c0-.152.117-.266.272-.266h3.22c.156 0 .272.114.272.266v3.465c0 .115.04.153.155.153h1.669c.155 0 .272.114.272.266v2.209a.263.263 0 0 1-.272.266h-1.669c-.116 0-.155.039-.155.153v5.712c0 .952.31 1.294 1.203 1.294h.66c.155 0 .271.115.271.267v2.627a.263.263 0 0 1-.271.267h-1.436zM135.757 43.179a.263.263 0 0 1-.272-.267V30.536c0-.152.116-.266.272-.266h3.26c.154 0 .27.114.27.266v1.105h.04c.62-1.028 1.823-1.638 3.414-1.638.854 0 1.746.305 2.29.762.116.114.155.228.077.38l-1.513 2.704c-.117.153-.233.153-.388.038-.621-.419-1.242-.609-1.902-.57-1.396.037-2.017 1.065-2.017 2.817v6.778a.263.263 0 0 1-.272.267h-3.26zM146.35 39.828c-.31-.952-.427-1.828-.427-3.123 0-1.295.116-2.17.427-3.122.776-2.361 2.949-3.618 5.704-3.618s4.928 1.295 5.704 3.618c.31.952.427 1.827.427 3.122s-.156 2.17-.427 3.123c-.776 2.36-2.95 3.617-5.704 3.617-2.794.038-4.967-1.257-5.704-3.617zm7.722-.876c.194-.571.232-1.105.232-2.209s-.038-1.637-.232-2.208c-.31-.914-1.048-1.371-2.018-1.371-.97 0-1.746.495-2.018 1.37-.194.572-.233 1.105-.233 2.21 0 1.103.039 1.637.233 2.208.31.914 1.048 1.37 2.018 1.37.97 0 1.707-.494 2.018-1.37zM167.614 47.976a.263.263 0 0 1-.272-.266V30.536c0-.152.117-.266.272-.266h3.26c.154 0 .27.114.27.266v.952h.04c.582-.875 1.707-1.485 3.453-1.485 2.212 0 3.764 1.028 4.462 3.085.31 1.028.466 1.98.466 3.655 0 1.638-.116 2.628-.466 3.656-.698 2.018-2.25 3.084-4.462 3.084-1.746 0-2.833-.61-3.453-1.485h-.04v5.75a.263.263 0 0 1-.27.267h-3.26v-.039zm7.838-9.024c.155-.495.233-1.066.233-2.209 0-1.142-.078-1.713-.233-2.208-.31-.952-1.009-1.371-2.018-1.371s-1.707.457-2.018 1.37c-.155.496-.232 1.067-.232 2.21 0 1.142.077 1.713.232 2.208.31.914 1.01 1.37 2.018 1.37 1.009 0 1.707-.494 2.018-1.37zM182.126 39.828c-.31-.952-.427-1.828-.427-3.123 0-1.295.155-2.17.427-3.122.776-2.361 2.949-3.618 5.704-3.618s4.928 1.295 5.704 3.618c.31.952.427 1.827.427 3.122s-.117 2.17-.427 3.123c-.776 2.36-2.949 3.617-5.704 3.617-2.794.038-4.967-1.257-5.704-3.617zm7.722-.876c.194-.571.233-1.105.233-2.209s-.04-1.637-.233-2.208c-.31-.914-1.048-1.371-2.018-1.371-.97 0-1.746.495-2.018 1.37-.194.572-.233 1.105-.233 2.21 0 1.103.04 1.637.233 2.208.31.914 1.048 1.37 2.018 1.37.97 0 1.707-.494 2.018-1.37zM195.9 41.465c-.115-.114-.115-.267 0-.38l1.747-1.943c.116-.114.233-.114.388 0 1.164.876 2.677 1.41 4.036 1.41 1.396 0 2.017-.496 2.017-1.22 0-.609-.349-.99-1.862-1.104l-1.475-.152c-2.755-.267-4.307-1.637-4.307-3.96 0-2.552 1.98-4.15 5.394-4.15 2.212 0 4.113.685 5.316 1.598a.289.289 0 0 1 .039.381l-1.514 1.828c-.116.152-.233.152-.388.038-.892-.571-2.212-1.028-3.57-1.028-1.125 0-1.668.419-1.668 1.066 0 .571.31.952 1.824 1.066l1.435.153c3.104.304 4.385 1.751 4.385 3.922-.039 2.627-2.134 4.417-5.86 4.417-2.715.076-4.694-.876-5.936-1.942zM210.724 28.214a.263.263 0 0 1-.272-.267V25.32c0-.153.116-.267.272-.267h3.259c.155 0 .272.114.272.267v2.627a.263.263 0 0 1-.272.267h-3.26zm0 14.965a.263.263 0 0 1-.272-.267V30.536c0-.152.116-.266.272-.266h3.259c.155 0 .272.114.272.266v12.376a.263.263 0 0 1-.272.267h-3.26zM222.132 43.33c-3.027 0-4.191-1.332-4.191-4.302v-5.864c0-.114-.039-.153-.155-.153h-.815a.263.263 0 0 1-.272-.266v-2.209c0-.152.117-.266.272-.266h.815c.116 0 .155-.038.155-.153v-3.465c0-.152.116-.266.272-.266h3.22c.155 0 .272.114.272.266v3.465c0 .115.039.153.155.153h1.669c.155 0 .271.114.271.266v2.209a.263.263 0 0 1-.271.266h-1.669c-.116 0-.155.039-.155.153v5.712c0 .952.31 1.294 1.203 1.294h.66c.155 0 .27.115.27.267v2.627a.263.263 0 0 1-.27.267h-1.436zM226.943 28.214a.263.263 0 0 1-.271-.267V25.32c0-.153.116-.267.271-.267h3.26c.155 0 .271.114.271.267v2.627a.263.263 0 0 1-.271.267h-3.26zm0 14.965a.263.263 0 0 1-.271-.267V30.536c0-.152.116-.266.271-.266h3.26c.155 0 .271.114.271.266v12.376a.263.263 0 0 1-.271.267h-3.26zM237.575 43.179c-.155 0-.271-.115-.31-.267l-4.657-12.376c-.038-.152.04-.266.233-.266h3.415c.194 0 .31.076.35.266l2.56 7.654h.039l2.444-7.654c.04-.19.156-.266.35-.266h3.375c.195 0 .272.114.233.266l-4.734 12.376c-.038.152-.155.267-.31.267h-2.988zM247.12 39.828c-.31-.952-.426-1.828-.426-3.123 0-1.295.155-2.17.427-3.122.776-2.361 2.949-3.618 5.704-3.618s4.928 1.295 5.704 3.618c.31.952.426 1.827.426 3.122s-.116 2.17-.426 3.123c-.776 2.36-2.95 3.617-5.704 3.617-2.755.038-4.928-1.257-5.704-3.617zm7.761-.876c.194-.571.233-1.105.233-2.209s-.039-1.637-.233-2.208c-.31-.914-1.048-1.371-2.018-1.371-.97 0-1.746.495-2.017 1.37-.194.572-.233 1.105-.233 2.21 0 1.103.039 1.637.233 2.208.31.914 1.047 1.37 2.017 1.37s1.708-.494 2.018-1.37z"/>
        </g>
        <g fill="#26478D">
            <path d="M57.336 16.367a.207.207 0 0 1 0-.286l.495-.536c.077-.071.23-.071.305 0a5.841 5.841 0 0 0 3.547 1.215c1.907 0 2.822-.786 2.822-1.965 0-1.037-.496-1.573-2.479-1.787L60.92 12.9c-2.02-.18-3.165-1.108-3.165-2.716 0-1.859 1.45-2.966 3.852-2.966 1.487 0 2.784.464 3.623 1a.182.182 0 0 1 .038.286l-.42.5c-.076.108-.19.143-.305.072-.724-.393-1.868-.786-3.012-.786-1.678 0-2.556.679-2.556 1.822 0 1 .649 1.537 2.517 1.715l1.106.108c2.136.178 3.166 1.143 3.166 2.751 0 1.966-1.45 3.18-4.195 3.18-1.945-.035-3.394-.821-4.233-1.5zM68.777 15.116c-.191-.607-.306-1.322-.306-2.644 0-1.287.115-2.037.306-2.645.61-1.715 2.097-2.644 4.042-2.644 1.983 0 3.47.929 4.08 2.644.23.644.306 1.323.306 2.716 0 .143-.077.215-.267.215h-7.132c-.076 0-.152.071-.152.143 0 .857.076 1.322.229 1.786.495 1.358 1.601 2.002 3.089 2.002 1.41 0 2.402-.572 3.05-1.323.077-.107.191-.143.306-.035l.534.464c.114.072.114.179.038.286-.801 1-2.174 1.715-3.967 1.715-2.097.036-3.546-.929-4.156-2.68zm7.055-3.359c.076 0 .152-.036.152-.143 0-.607-.076-1.072-.19-1.465-.42-1.25-1.488-1.93-2.937-1.93-1.41 0-2.479.68-2.898 1.93-.153.393-.19.858-.19 1.465 0 .072.037.143.152.143h5.91zM80.904 17.618c-.153 0-.229-.072-.229-.215V7.612c0-.143.076-.215.229-.215h.763c.152 0 .229.072.229.215v1.322h.038c.42-1 1.41-1.751 2.936-1.751.877 0 1.678.286 2.212.715.115.071.153.178.038.285l-.457.608c-.077.107-.191.107-.344.036-.495-.286-1.067-.5-1.754-.5-1.907 0-2.67 1.572-2.67 3.466v5.646c0 .143-.076.214-.228.214h-.763v-.035zM90.057 9.005c-.115.072-.267.072-.343-.035l-.382-.536c-.076-.108-.038-.215.076-.286.763-.608 1.945-1 3.47-1 2.823 0 3.967.893 3.967 3.394v6.825c0 .143-.076.215-.229.215h-.724c-.153 0-.23-.072-.23-.215v-1.072h-.037c-.42.858-1.602 1.501-3.394 1.501-2.212 0-3.662-1.036-3.662-3.037 0-2.037 1.488-3.038 4.157-3.038h2.784c.077 0 .153-.035.153-.143v-1.036c0-1.68-.61-2.359-2.822-2.359-1.373.036-2.136.322-2.784.822zm5.606 5.432v-1.572c0-.072-.038-.143-.153-.143h-2.593c-2.174 0-3.09.679-3.09 2.001 0 1.287.954 1.966 2.709 1.966 1.868.071 3.127-.858 3.127-2.252zM100.087 16.367a.207.207 0 0 1 0-.286l.495-.536c.077-.071.23-.071.306 0a5.841 5.841 0 0 0 3.546 1.215c1.907 0 2.822-.786 2.822-1.965 0-1.037-.495-1.573-2.479-1.787l-1.067-.143c-2.022-.179-3.166-1.108-3.166-2.716 0-1.858 1.45-2.966 3.852-2.966 1.487 0 2.784.464 3.623 1a.182.182 0 0 1 .038.286l-.42.5c-.076.108-.19.144-.304.072-.725-.393-1.87-.786-3.013-.786-1.678 0-2.555.679-2.555 1.822 0 1.001.648 1.537 2.517 1.716l1.106.107c2.135.179 3.165 1.143 3.165 2.752 0 1.965-1.45 3.18-4.195 3.18-1.983 0-3.432-.786-4.271-1.465zM112.824 9.005c-.114.072-.267.072-.343-.035l-.381-.536c-.077-.108-.038-.215.076-.286.763-.608 1.945-1 3.47-1 2.822 0 3.967.893 3.967 3.394v6.825c0 .143-.077.215-.23.215h-.724c-.152 0-.229-.072-.229-.215v-1.072h-.038c-.42.858-1.602 1.501-3.394 1.501-2.212 0-3.661-1.036-3.661-3.037 0-2.037 1.487-3.038 4.157-3.038h2.784c.076 0 .152-.035.152-.143v-1.036c0-1.68-.61-2.359-2.822-2.359-1.373.036-2.174.322-2.784.822zm5.568 5.432v-1.572c0-.072-.038-.143-.152-.143h-2.594c-2.173 0-3.089.679-3.089 2.001 0 1.287.954 1.966 2.708 1.966 1.869.071 3.127-.858 3.127-2.252z"/>
        </g>
        <path fill="#E59346" d="M33.516 0H11.159C5.008 0 0 4.845 0 10.711v21.46c0 5.905 5.047 10.712 11.159 10.712h22.357c6.15 0 11.158-4.845 11.158-10.712v-21.46C44.674 4.807 39.667 0 33.516 0zM5.638 21.46c0-8.856 7.492-16.048 16.719-16.048 3.194 0 6.309.87 8.95 2.498a16.285 16.285 0 0 1 3.352 2.688V8.554c0-.757.63-1.363 1.42-1.363.788 0 1.419.606 1.419 1.363v6.434c0 .644-.473 1.173-1.104 1.325-.118.038-.197.038-.315.038h-6.743c-.789 0-1.42-.606-1.42-1.363s.631-1.362 1.42-1.362h4.219C30.992 10.18 26.852 8.1 22.317 8.1c-7.649 0-13.879 5.98-13.879 13.322 0 .757-.63 1.363-1.42 1.363-.788 0-1.38-.606-1.38-1.325zm9.07 1.666c-.986 0-1.775-.757-1.775-1.704 0-.946.789-1.703 1.774-1.703h5.875v-5.64c0-.945.79-1.702 1.775-1.702.986 0 1.774.757 1.774 1.703v5.64h5.875c.986 0 1.775.756 1.775 1.702 0 .455-.198.87-.513 1.212-.315.34-.789.492-1.262.492h-5.875v5.64c0 .945-.788 1.702-1.774 1.702s-1.775-.757-1.775-1.703v-5.64h-5.875zm7.649 14.344c-3.194 0-6.309-.87-8.95-2.498a16.285 16.285 0 0 1-3.352-2.687v2.044c0 .757-.631 1.362-1.42 1.362-.788 0-1.42-.605-1.42-1.362v-6.434-.114-.038-.076-.075-.076-.076c0-.037 0-.037.04-.037 0-.038 0-.038.04-.076 0 0 0-.038.039-.038 0-.038 0-.038.04-.076 0-.038.039-.038.039-.075 0-.038.04-.038.04-.076l.039-.038.04-.038.039-.038.039-.037.04-.038.039-.038.04-.038.039-.038.04-.038c.039 0 .039-.038.078-.038h.04c.078-.037.197-.075.275-.113h7.058c.789 0 1.42.605 1.42 1.362 0 .757-.631 1.363-1.42 1.363H11.04c2.563 3.444 6.704 5.526 11.238 5.526 7.65 0 13.88-5.98 13.88-13.323 0-.757.63-1.362 1.419-1.362.788 0 1.42.605 1.42 1.362.039 8.781-7.453 15.972-16.64 15.972z"/>
    </g>
</svg>
