<svg xmlns="http://www.w3.org/2000/svg" width="224" height="46" viewBox="0 0 224 46">
    <g fill="none" fill-rule="nonzero">
        <g fill="#26488E">
            <path d="M67.342 31.81c-.182 0-.273.091-.364.275l-2.548 8.067h-.091L61.7 32.085c-.091-.184-.182-.275-.364-.275h-3.55c-.181 0-.272.091-.181.275l4.823 13.108c.091.184.182.275.364.275h3.094c.182 0 .273-.091.364-.275l4.732-13.017c.091-.183 0-.275-.182-.275l-3.458-.091zM78.535 31.535c-2.82 0-5.096 1.375-5.915 3.85-.273 1.008-.455 1.925-.455 3.3 0 1.375.091 2.292.455 3.3.82 2.475 3.003 3.85 5.915 3.85 2.822 0 5.097-1.375 5.916-3.85.273-1.008.455-1.925.455-3.3 0-1.375-.182-2.292-.455-3.3-.82-2.475-3.094-3.85-5.916-3.85zm2.094 9.533c-.273.917-1.092 1.467-2.094 1.467-1 0-1.82-.55-2.093-1.467-.182-.641-.273-1.191-.273-2.383s.091-1.742.273-2.384c.273-.916 1.092-1.466 2.093-1.466 1.002 0 1.82.55 2.094 1.466.182.642.273 1.192.273 2.384s-.091 1.742-.273 2.383zM93.369 34.835c1.001 0 1.547.366 2.184 1.191.091.184.273.184.455.092l2.457-1.65c.182-.092.182-.275.091-.367-1-1.466-2.821-2.566-5.096-2.566-2.821 0-5.005 1.283-5.824 3.85-.273.825-.455 1.833-.455 3.3 0 1.467.182 2.475.455 3.3.819 2.567 3.003 3.85 5.824 3.85 2.366 0 4.186-1.1 5.096-2.567.091-.183.091-.275-.09-.366l-2.458-1.65c-.182-.092-.273-.092-.455.091-.546.825-1.183 1.192-2.184 1.192-1.001 0-1.82-.458-2.093-1.467-.182-.55-.273-1.191-.273-2.383 0-1.1.09-1.742.273-2.384.364-.916 1.092-1.466 2.093-1.466zM104.198 29.976c.273 0 .364-.092.637-.275l1.456-1.558h.091l1.456 1.558c.182.275.364.275.637.275h2.276c.182 0 .182-.183.09-.275l-2.912-3.667c-.182-.183-.273-.275-.546-.275h-2.093c-.273 0-.364.092-.546.275l-2.912 3.667c-.09.183 0 .275.182.275h2.184zM106.291 31.535c-2.912 0-5.005 1.375-5.824 3.85-.273.825-.455 1.833-.455 3.3 0 1.375.182 2.383.455 3.208.82 2.475 2.912 3.942 6.006 3.942 2.457 0 4.46-.917 5.734-2.292a.28.28 0 0 0 0-.366l-1.82-1.742c-.091-.183-.274-.092-.365 0-.819.733-1.729 1.192-3.094 1.192-1.365 0-2.457-.642-2.82-1.834a1.737 1.737 0 0 1-.183-.733c0-.092.091-.183.182-.183h8.19c.183 0 .274-.092.274-.275 0-2.292-.182-3.3-.455-4.217-.728-2.384-2.822-3.85-5.825-3.85zm2.275 5.683h-4.459c-.09 0-.182-.092-.182-.183 0-.459.091-.734.182-1.009.273-.916 1.183-1.466 2.275-1.466 1.092 0 2.002.55 2.275 1.466.091.275.091.55.091 1.009 0 .183 0 .183-.182.183zM127.768 34.835c1.001 0 1.547.366 2.184 1.191.091.184.273.184.455.092l2.457-1.65c.182-.092.182-.275.091-.367-1-1.466-2.82-2.566-5.096-2.566-2.821 0-5.005 1.283-5.824 3.85-.273.825-.455 1.833-.455 3.3 0 1.467.182 2.475.455 3.3.819 2.567 3.003 3.85 5.824 3.85 2.366 0 4.186-1.1 5.096-2.567.091-.183.091-.275-.09-.366l-2.458-1.65c-.182-.092-.273-.092-.455.091-.546.825-1.183 1.192-2.184 1.192-1.001 0-1.82-.458-2.093-1.467-.182-.55-.273-1.191-.273-2.383 0-1.1.091-1.742.273-2.384.273-.916 1.092-1.466 2.093-1.466zM140.781 31.535c-2.82 0-5.096 1.375-5.915 3.85-.273 1.008-.455 1.925-.455 3.3 0 1.375.091 2.292.455 3.3.82 2.475 3.003 3.85 5.915 3.85 2.822 0 5.097-1.375 5.916-3.85.273-1.008.455-1.925.455-3.3 0-1.375-.182-2.292-.455-3.3-.82-2.475-3.094-3.85-5.916-3.85zm2.094 9.533c-.273.917-1.092 1.467-2.094 1.467-1 0-1.82-.55-2.093-1.467-.182-.641-.273-1.191-.273-2.383s.091-1.742.273-2.384c.273-.916 1.092-1.466 2.093-1.466 1.002 0 1.82.55 2.094 1.466.182.642.273 1.192.273 2.384s-.091 1.742-.273 2.383zM157.435 31.535c-1.73 0-2.912.733-3.55 1.558v-.917c0-.183-.09-.275-.272-.275h-3.367c-.182 0-.273.092-.273.275v13.11c0 .182.09.274.273.274h3.367c.182 0 .273-.092.273-.275v-7.884c0-1.466.819-2.475 2.093-2.475 1.365 0 2.093 1.009 2.093 2.475v7.884c0 .183.091.275.273.275h3.367c.182 0 .273-.092.273-.275v-8.617c0-3.025-1.547-5.133-4.55-5.133zM172.36 37.035l-1.457-.184c-1.547-.183-1.91-.55-1.91-1.1 0-.641.545-1.1 1.728-1.1 1.365 0 2.73.55 3.64 1.1.183.092.274.092.365-.091l1.547-1.925c.09-.184.09-.275 0-.459-1.274-.916-3.186-1.65-5.46-1.65-3.55 0-5.552 1.65-5.552 4.4 0 2.475 1.547 3.85 4.46 4.217l1.546.184c1.547.183 1.912.55 1.912 1.191 0 .734-.638 1.284-2.094 1.284-1.365 0-2.912-.55-4.186-1.467-.182-.092-.273-.092-.364 0l-1.82 2.108a.28.28 0 0 0 0 .367c1.274 1.1 3.367 2.108 6.188 2.108 3.914 0 6.007-1.925 6.098-4.675-.182-2.475-1.456-4.033-4.642-4.308zM187.83 31.81c-.182 0-.273.091-.273.275v7.883c0 1.467-.728 2.475-2.093 2.475s-2.093-1.008-2.093-2.475v-7.883c0-.184-.091-.275-.273-.275h-3.367c-.182 0-.273.091-.273.275v8.617c0 2.933 1.547 5.041 4.55 5.041 1.729 0 2.73-.641 3.458-1.558v1.008c0 .184.091.275.273.275h3.367c.182 0 .273-.091.273-.275V32.176c0-.183-.09-.275-.273-.275l-3.276-.091zM200.024 42.352c-.819 0-1.183-.367-1.183-1.284V26.584c0-.183-.09-.275-.273-.275h-3.367c-.182 0-.273.092-.273.275v14.76c0 3.024 1.183 4.308 4.186 4.308h1.456c.182 0 .273-.092.273-.275v-2.842c0-.183-.09-.275-.273-.275l-.546.092zM207.669 31.81c-.091 0-.182-.092-.182-.184V27.96c0-.183-.091-.275-.273-.275h-3.368c-.182 0-.273.092-.273.275v3.667c0 .092-.09.184-.182.184h-.819c-.182 0-.273.091-.273.275v2.383c0 .183.091.275.273.275h.82c.09 0 .181.092.181.183v6.234c0 3.117 1.184 4.583 4.278 4.583h1.456c.182 0 .273-.091.273-.275v-2.841c0-.184-.091-.275-.273-.275h-.637c-.91 0-1.274-.367-1.274-1.375v-6.05c0-.092.09-.184.182-.184h1.729c.182 0 .273-.092.273-.275v-2.383c0-.184-.091-.275-.273-.275h-1.638zM217.952 31.535c-2.275 0-3.913.55-5.005 1.375-.091.091-.182.183-.091.366l1.274 2.2c.09.184.182.184.364.092.637-.458 1.638-.917 3.003-.917 2.184 0 2.73.55 2.73 1.834v.55c0 .091-.091.183-.182.183h-2.457c-3.367 0-5.642 1.375-5.642 4.4 0 2.934 2.093 4.217 4.55 4.217 1.82 0 3.003-.55 3.731-1.467v.917c0 .183.091.275.273.275h3.094c.182 0 .273-.092.273-.275v-8.709c.091-3.483-1.547-5.041-5.915-5.041zm2.275 9.442c0 1.283-.819 1.925-2.548 1.925-1.274 0-2.002-.459-2.002-1.467 0-1.1.728-1.558 2.366-1.558h1.911c.091 0 .182.091.182.183l.091.917zM67.433 16.592c0-1.833-1.092-2.841-3.276-3.116l-1.183-.092c-1.911-.183-2.64-.825-2.64-1.925 0-1.284.91-2.017 2.64-2.017 1.183 0 2.457.458 3.185.917.091.091.273 0 .364-.092l.455-.55c.091-.092.091-.275-.09-.367-.91-.641-2.276-1.1-3.823-1.1-2.548 0-4.004 1.284-4.004 3.392 0 1.834 1.183 2.842 3.367 3.117l1.183.092c2.093.275 2.64.916 2.64 2.016 0 1.375-1.002 2.2-3.004 2.2-1.547 0-2.821-.641-3.731-1.375a.275.275 0 0 0-.364 0l-.546.642a.28.28 0 0 0 0 .367c.91.733 2.366 1.65 4.459 1.65 2.821-.184 4.368-1.559 4.368-3.759zM79.082 18.242a.28.28 0 0 0 0-.366l-.547-.459a.275.275 0 0 0-.364 0c-.637.825-1.729 1.467-3.185 1.467-1.547 0-2.73-.733-3.276-2.292-.182-.55-.273-1.1-.273-2.016 0-.092.091-.184.182-.184h7.554c.182 0 .273-.091.273-.275 0-1.558-.091-2.383-.364-3.117-.638-1.925-2.185-3.025-4.278-3.025-2.093 0-3.64 1.1-4.277 3.025-.182.734-.364 1.559-.364 3.026 0 1.466.091 2.291.364 2.933.637 2.017 2.184 3.025 4.368 3.025 1.911.183 3.367-.642 4.187-1.742zM71.71 11.55c.455-1.466 1.547-2.2 3.003-2.2 1.547 0 2.64.734 3.094 2.2.182.459.182 1.009.182 1.65 0 .092 0 .184-.182.184h-6.279c-.09 0-.182-.092-.182-.183.182-.734.273-1.192.364-1.65zM88.91 9.992c.182.092.273.092.364-.092l.455-.641c.09-.092.09-.275 0-.275a3.61 3.61 0 0 0-2.275-.825c-1.638 0-2.64.825-3.094 1.925V8.617c0-.183-.091-.275-.273-.275h-.82c-.181 0-.272.092-.272.275v11.092c0 .183.09.275.273.275h.819c.182 0 .273-.092.273-.275v-6.417c0-2.108.728-3.942 2.82-3.942.638.092 1.275.275 1.73.642zM95.826 8.159c-1.638 0-2.821.366-3.64 1.1-.091.091-.182.183-.091.366l.364.642a.275.275 0 0 0 .364 0c.637-.55 1.456-.825 2.912-.825 2.366 0 3.003.733 3.003 2.658v1.192c0 .092-.09.184-.182.184h-2.912c-2.821 0-4.368 1.1-4.368 3.391 0 2.292 1.547 3.392 3.822 3.392 1.911 0 3.094-.733 3.55-1.65v1.192c0 .183.09.275.272.275h.728c.182 0 .273-.092.273-.275v-7.7c.091-2.934-1.092-3.942-4.095-3.942zm2.912 8.25c0 1.558-1.365 2.567-3.276 2.567-1.82 0-2.821-.734-2.821-2.2 0-1.559 1.001-2.292 3.276-2.292h2.73c.091 0 .182.092.182.183l-.09 1.742zM112.298 16.592c0-1.833-1.092-2.841-3.277-3.116l-1.183-.092c-1.91-.183-2.639-.825-2.639-1.925 0-1.284.91-2.017 2.64-2.017 1.182 0 2.457.458 3.185.917.09.091.273 0 .364-.092l.455-.55c.09-.092.09-.275-.091-.367-.91-.641-2.276-1.1-3.823-1.1-2.548 0-4.004 1.284-4.004 3.392 0 1.834 1.183 2.842 3.367 3.117l1.183.092c2.094.275 2.64.916 2.64 2.016 0 1.375-1.002 2.2-3.004 2.2-1.547 0-2.82-.641-3.73-1.375a.275.275 0 0 0-.365 0l-.546.642a.28.28 0 0 0 0 .367c.91.733 2.366 1.65 4.46 1.65 2.82-.184 4.368-1.559 4.368-3.759zM122.672 18.517v1.192c0 .183.09.275.273.275h.728c.182 0 .273-.092.273-.275v-7.7c0-2.842-1.183-3.85-4.186-3.85-1.638 0-2.821.366-3.64 1.1-.091.091-.182.183-.091.366l.364.642a.275.275 0 0 0 .364 0c.637-.55 1.456-.825 2.912-.825 2.366 0 3.003.733 3.003 2.658v1.192c0 .092-.091.184-.182.184h-2.912c-2.821 0-4.368 1.1-4.368 3.391 0 2.292 1.547 3.392 3.822 3.392 1.91-.092 3.185-.825 3.64-1.742zm-3.367.459c-1.82 0-2.821-.734-2.821-2.2 0-1.559 1-2.292 3.276-2.292h2.73c.09 0 .182.092.182.183v1.742c0 1.558-1.365 2.567-3.367 2.567z"/>
        </g>
        <path fill="#EEC92F" d="M23.115 9.534c-6.188 0-11.285 5.133-11.285 11.367 0 6.233 5.097 11.367 11.285 11.367S34.399 27.134 34.399 20.9c0-6.234-5.096-11.367-11.284-11.367zm0 4.125c1 0 1.729.825 1.729 1.742a1.734 1.734 0 0 1-1.73 1.741c-1 0-1.728-.825-1.728-1.741 0-.917.728-1.742 1.729-1.742zm2.73 14.484h-5.551V26.4h1v-6.325h-1v-1.742h4.55v8.067h1v1.742z"/>
        <path fill="#EEC92F" d="M33.671 0h-21.84C5.277 0 0 5.317 0 11.825v22.001c0 6.6 5.278 11.826 11.74 11.826h21.84c6.461 0 11.74-5.317 11.74-11.826v-22C45.41 5.315 40.131 0 33.67 0m-5.915 35.476l-4.641 4.676-4.641-4.676C12.376 33.46 7.917 27.684 7.917 20.901c0-8.434 6.825-15.31 15.198-15.31 8.372 0 15.197 6.876 15.197 15.31 0 6.783-4.459 12.559-10.556 14.575"/>
    </g>
</svg>
